<svg xmlns="http://www.w3.org/2000/svg" xmlns:xlink="http://www.w3.org/1999/xlink" width="335" height="250" viewBox="0 0 335 250">
  <defs>
    <clipPath id="clip-path">
      <path id="Path_57" data-name="Path 57" d="M169.28,228.864l1.6,3.492s9.845-4.576,11.978-7.267c.545-.673,1.3-1.8,2.113-3.055,1.346-2.079,2.853-4.583,3.9-6.339.781-1.312,1.305-2.207,1.305-2.207l-5.572-8.788c-1.218.935-4.946,15.955-5.612,16.762S169.28,228.864,169.28,228.864Z" transform="translate(-169.28 -204.7)" fill="#d63333"/>
    </clipPath>
    <clipPath id="clip-path-2">
      <path id="Path_82" data-name="Path 82" d="M217.781,232.325s3.916-23.854-2.813-34.547c0,0-13.458-.834-22.879,4.623,0,0,3.9,10.618,4.488,29.924Z" transform="translate(-192.09 -197.732)" fill="#d63333"/>
    </clipPath>
    <clipPath id="clip-vc1">
      <rect width="335" height="250"/>
    </clipPath>
  </defs>
  <g id="vc1" clip-path="url(#clip-vc1)">
    <g id="Group_20" data-name="Group 20" transform="translate(31.041 -106.011)">
      <g id="vc1-2" data-name="vc1" transform="translate(-31.041 106.011)">
        <g id="freepik--background-complete--inject-2">
          <rect id="Rectangle_1" data-name="Rectangle 1" width="335.516" height="0.168" transform="translate(0 219.612)" fill="#ebebeb"/>
          <rect id="Rectangle_2" data-name="Rectangle 2" width="22.287" height="0.168" transform="translate(279.517 230.439)" fill="#ebebeb"/>
          <rect id="Rectangle_3" data-name="Rectangle 3" width="5.848" height="0.168" transform="translate(216.418 232.269)" fill="#ebebeb"/>
          <rect id="Rectangle_4" data-name="Rectangle 4" width="12.913" height="0.168" transform="translate(266.095 224.194)" fill="#ebebeb"/>
          <rect id="Rectangle_5" data-name="Rectangle 5" width="29.063" height="0.168" transform="translate(35.301 225.325)" fill="#ebebeb"/>
          <rect id="Rectangle_6" data-name="Rectangle 6" width="4.259" height="0.168" transform="translate(70.161 225.325)" fill="#ebebeb"/>
          <rect id="Rectangle_7" data-name="Rectangle 7" width="63.038" height="0.168" transform="translate(88.164 228.164)" fill="#ebebeb"/>
          <path id="Path_1" data-name="Path 1" d="M171.977,245.3H42.046a3.842,3.842,0,0,1-3.836-3.842V58.809A3.842,3.842,0,0,1,42.046,55H171.977a3.842,3.842,0,0,1,3.842,3.842V241.455A3.842,3.842,0,0,1,171.977,245.3ZM42.046,55.135a3.674,3.674,0,0,0-3.667,3.674V241.455a3.674,3.674,0,0,0,3.667,3.674H171.977a3.681,3.681,0,0,0,3.674-3.674V58.809a3.681,3.681,0,0,0-3.674-3.674Z" transform="translate(-12.498 -55)" fill="#ebebeb"/>
          <path id="Path_2" data-name="Path 2" d="M388.28,245.3H258.342a3.849,3.849,0,0,1-3.842-3.842V58.809A3.849,3.849,0,0,1,258.342,55H388.28a3.842,3.842,0,0,1,3.829,3.809V241.455A3.842,3.842,0,0,1,388.28,245.3ZM258.342,55.135a3.681,3.681,0,0,0-3.674,3.674V241.455a3.681,3.681,0,0,0,3.674,3.674H388.28a3.681,3.681,0,0,0,3.674-3.674V58.809a3.681,3.681,0,0,0-3.674-3.674Z" transform="translate(-84.181 -55)" fill="#ebebeb"/>
          <path id="Path_3" data-name="Path 3" d="M85.059,329.6c0-.269.908-26.7,5.208-30.88,4.179-4.037,8.977-.155,9.178,0l.431-.518c-.054-.04-5.471-4.461-10.094,0-4.495,4.367-5.383,30.24-5.383,31.337Z" transform="translate(-27.772 -134.465)" fill="#e0e0e0"/>
          <path id="Path_4" data-name="Path 4" d="M80.444,331.716c0-.31,2.934-31.727-8.539-44.9l-.5.444c11.285,12.947,8.4,44.075,8.371,44.412Z" transform="translate(-23.355 -131.524)" fill="#e0e0e0"/>
          <path id="Path_5" data-name="Path 5" d="M85.318,327.221l.673-.047c0-.357-2.241-35.718,6.171-43.456l-.451-.5C83.05,291.18,85.217,325.748,85.318,327.221Z" transform="translate(-27.805 -130.216)" fill="#e0e0e0"/>
          <path id="Path_6" data-name="Path 6" d="M75.921,334.811h.673c0-.976-.276-23.881-6.79-27.589a4.616,4.616,0,0,0-4.206-.41c-3.936,1.628-5.888,8.633-5.969,8.929l.673.182c0-.074,1.945-6.985,5.572-8.485a3.977,3.977,0,0,1,3.62.37C75.645,311.313,75.921,334.575,75.921,334.811Z" transform="translate(-19.505 -137.836)" fill="#e0e0e0"/>
          <path id="Path_7" data-name="Path 7" d="M87.552,335.315l.673-.04c0-.175-.982-18.1,3.856-24.413,1.171-1.521,2.47-2.261,3.815-2.194,3.169.222,5.827,4.858,5.854,4.905l.585-.33c-.114-.209-2.86-5-6.393-5.249-1.575-.114-3.048.673-4.367,2.429C86.556,316.964,87.512,334.568,87.552,335.315Z" transform="translate(-28.777 -138.327)" fill="#e0e0e0"/>
          <path id="Path_8" data-name="Path 8" d="M84.682,327.979c.128-1.736,3.163-42.662-2.173-49.869l-.538.4c5.181,7.012,2.073,49,2.019,49.425Z" transform="translate(-26.812 -128.676)" fill="#e0e0e0"/>
          <path id="Path_9" data-name="Path 9" d="M61.087,311.829s3.2,1.178,2.248,3.963-11.063,7.362-11.063,7.362-4.239-3.883-.35-10.195S61,309.837,61.087,311.829Z" transform="translate(-16.446 -138.703)" fill="#ebebeb"/>
          <path id="Path_10" data-name="Path 10" d="M85.251,304.587s-3.365-.141-3.593,2.792,7.4,11.056,7.4,11.056,5.383-1.951,4.246-9.279S86.105,302.783,85.251,304.587Z" transform="translate(-26.708 -136.754)" fill="#ebebeb"/>
          <path id="Path_11" data-name="Path 11" d="M90.271,282.391s-2.268-.242-2.086-1.628,8.829-4.939,13.929.814c0,0-3.264,5.612-7.987,5.686S90.271,282.391,90.271,282.391Z" transform="translate(-29.014 -128.541)" fill="#ebebeb"/>
          <path id="Path_12" data-name="Path 12" d="M80.325,275.767s2.059.989,2.638-.276-4.879-8.869-12.254-6.682c0,0-.2,6.493,3.775,9.05S80.325,275.767,80.325,275.767Z" transform="translate(-23.128 -125.257)" fill="#ebebeb"/>
          <path id="Path_13" data-name="Path 13" d="M100.492,310.4s-1.568-1.265.128-1.877,9.986-.444,10.094,7.779c0,0-9.663,1.6-10.861-1.528S100.492,310.4,100.492,310.4Z" transform="translate(-32.721 -138.385)" fill="#ebebeb"/>
          <path id="Path_14" data-name="Path 14" d="M66.725,282.978s1.568-1.265-.121-1.884-9.993-.437-10.094,7.779c0,0,9.67,1.608,10.861-1.521S66.725,282.978,66.725,282.978Z" transform="translate(-18.484 -129.355)" fill="#ebebeb"/>
          <path id="Path_15" data-name="Path 15" d="M77.25,293.338s.141-1.534-1.1-.935-5.565,5.276-1.083,9.7c0,0,6.056-4.475,4.953-6.8S77.25,293.338,77.25,293.338Z" transform="translate(-23.903 -133.106)" fill="#ebebeb"/>
          <path id="Path_16" data-name="Path 16" d="M102.421,296.445s-.942-1.225.431-1.38,7.523,1.487,6.09,7.631c0,0-7.489-.565-7.812-3.116S102.421,296.445,102.421,296.445Z" transform="translate(-33.259 -134.02)" fill="#ebebeb"/>
          <path id="Path_17" data-name="Path 17" d="M64.1,368.761h25.7L92.58,340.62H61.33Z" transform="translate(-20.061 -149.122)" fill="#f0f0f0"/>
          <rect id="Rectangle_8" data-name="Rectangle 8" width="33.995" height="6.211" transform="translate(73.898 194.607) rotate(180)" fill="#e6e6e6"/>
          <path id="Path_18" data-name="Path 18" d="M407.017,329.6c0-.269-.9-26.7-5.2-30.88-4.179-4.037-8.983-.155-9.178,0l-.437-.518c.061-.04,5.471-4.461,10.094,0,4.495,4.367,5.383,30.24,5.383,31.337Z" transform="translate(-129.056 -134.465)" fill="#e0e0e0"/>
          <path id="Path_19" data-name="Path 19" d="M414.607,331.716c0-.31-2.934-31.727,8.539-44.9l.5.444c-11.285,12.947-8.4,44.075-8.371,44.412Z" transform="translate(-136.442 -131.524)" fill="#e0e0e0"/>
          <path id="Path_20" data-name="Path 20" d="M410.813,327.221l-.673-.047c0-.357,2.247-35.718-6.171-43.456l.458-.5C413.081,291.18,410.914,325.748,410.813,327.221Z" transform="translate(-133.072 -130.216)" fill="#e0e0e0"/>
          <path id="Path_21" data-name="Path 21" d="M415.443,334.811h-.673c0-.976.276-23.881,6.783-27.589a4.63,4.63,0,0,1,4.212-.41c3.937,1.628,5.888,8.633,5.969,8.929l-.673.182c0-.074-1.945-6.985-5.572-8.485a3.977,3.977,0,0,0-3.62.37C415.712,311.313,415.443,334.575,415.443,334.811Z" transform="translate(-136.605 -137.836)" fill="#e0e0e0"/>
          <path id="Path_22" data-name="Path 22" d="M404.827,335.328l-.673-.04c0-.175.983-18.1-3.856-24.413-1.171-1.534-2.449-2.261-3.788-2.167-3.169.222-5.827,4.858-5.854,4.905l-.585-.33c.114-.209,2.86-5,6.393-5.249,1.575-.114,3.048.673,4.367,2.429C405.823,316.978,404.874,334.581,404.827,335.328Z" transform="translate(-128.354 -138.34)" fill="#e0e0e0"/>
          <path id="Path_23" data-name="Path 23" d="M413.105,327.979c-.135-1.736-3.163-42.662,2.173-49.869l.538.4c-5.188,7.012-2.073,49-2.019,49.425Z" transform="translate(-135.741 -128.676)" fill="#e0e0e0"/>
          <path id="Path_24" data-name="Path 24" d="M432.091,311.829s-3.2,1.178-2.248,3.963,11.063,7.362,11.063,7.362,4.239-3.883.343-10.195S432.172,309.837,432.091,311.829Z" transform="translate(-141.477 -138.703)" fill="#ebebeb"/>
          <path id="Path_25" data-name="Path 25" d="M408.614,304.587s3.4-.141,3.6,2.792-7.4,11.056-7.4,11.056-5.383-1.951-4.239-9.279S407.766,302.783,408.614,304.587Z" transform="translate(-131.909 -136.754)" fill="#ebebeb"/>
          <path id="Path_26" data-name="Path 26" d="M402.563,282.391s2.268-.242,2.086-1.628-8.829-4.939-13.929.814c0,0,3.264,5.612,7.987,5.686S402.563,282.391,402.563,282.391Z" transform="translate(-128.566 -128.541)" fill="#ebebeb"/>
          <path id="Path_27" data-name="Path 27" d="M413.3,275.767s-2.052.989-2.631-.276,4.879-8.869,12.254-6.682c0,0,.2,6.493-3.775,9.05S413.3,275.767,413.3,275.767Z" transform="translate(-135.25 -125.257)" fill="#ebebeb"/>
          <path id="Path_28" data-name="Path 28" d="M393.661,310.4s1.568-1.265-.128-1.877-9.993-.444-10.094,7.779c0,0,9.663,1.6,10.861-1.528S393.661,310.4,393.661,310.4Z" transform="translate(-126.164 -138.385)" fill="#ebebeb"/>
          <path id="Path_29" data-name="Path 29" d="M427.411,282.978s-1.568-1.265.121-1.884,9.993-.437,10.094,7.779c0,0-9.67,1.608-10.861-1.521S427.411,282.978,427.411,282.978Z" transform="translate(-140.397 -129.355)" fill="#ebebeb"/>
          <path id="Path_30" data-name="Path 30" d="M418.914,293.338s-.134-1.534,1.1-.935,5.572,5.276,1.09,9.7c0,0-6.056-4.475-4.953-6.8S418.914,293.338,418.914,293.338Z" transform="translate(-137.014 -133.106)" fill="#ebebeb"/>
          <path id="Path_31" data-name="Path 31" d="M393.278,296.445s.942-1.225-.431-1.38-7.523,1.487-6.056,7.631c0,0,7.489-.565,7.812-3.116S393.278,296.445,393.278,296.445Z" transform="translate(-127.185 -134.02)" fill="#ebebeb"/>
          <path id="Path_32" data-name="Path 32" d="M420.31,368.761h-25.7L391.84,340.62h31.25Z" transform="translate(-129.105 -149.122)" fill="#f0f0f0"/>
          <rect id="Rectangle_9" data-name="Rectangle 9" width="33.995" height="6.211" transform="translate(261.362 188.389)" fill="#e6e6e6"/>
          <rect id="Rectangle_10" data-name="Rectangle 10" width="68.448" height="137.636" transform="translate(91.209 48.61)" fill="#fafafa"/>
          <rect id="Rectangle_11" data-name="Rectangle 11" width="71.61" height="6.756" transform="translate(89.629 46.952)" fill="#f0f0f0"/>
          <rect id="Rectangle_12" data-name="Rectangle 12" width="71.61" height="3.378" transform="translate(89.629 54.434)" fill="#f0f0f0"/>
          <rect id="Rectangle_13" data-name="Rectangle 13" width="71.61" height="3.378" transform="translate(89.629 59.432)" fill="#f0f0f0"/>
          <rect id="Rectangle_14" data-name="Rectangle 14" width="71.61" height="3.378" transform="translate(89.629 64.43)" fill="#f0f0f0"/>
          <rect id="Rectangle_15" data-name="Rectangle 15" width="71.61" height="3.378" transform="translate(89.629 69.428)" fill="#f0f0f0"/>
          <rect id="Rectangle_16" data-name="Rectangle 16" width="71.61" height="3.378" transform="translate(89.629 74.419)" fill="#f0f0f0"/>
          <rect id="Rectangle_17" data-name="Rectangle 17" width="71.61" height="3.378" transform="translate(89.629 79.417)" fill="#f0f0f0"/>
          <rect id="Rectangle_18" data-name="Rectangle 18" width="71.61" height="3.378" transform="translate(89.629 84.415)" fill="#f0f0f0"/>
          <rect id="Rectangle_19" data-name="Rectangle 19" width="71.61" height="3.378" transform="translate(89.629 89.413)" fill="#f0f0f0"/>
          <rect id="Rectangle_20" data-name="Rectangle 20" width="71.61" height="3.378" transform="translate(89.629 94.41)" fill="#f0f0f0"/>
          <rect id="Rectangle_21" data-name="Rectangle 21" width="71.61" height="3.378" transform="translate(89.629 99.408)" fill="#f0f0f0"/>
          <rect id="Rectangle_22" data-name="Rectangle 22" width="71.61" height="3.378" transform="translate(89.629 104.4)" fill="#f0f0f0"/>
          <rect id="Rectangle_23" data-name="Rectangle 23" width="71.61" height="3.378" transform="translate(89.629 109.398)" fill="#f0f0f0"/>
          <rect id="Rectangle_24" data-name="Rectangle 24" width="71.61" height="3.378" transform="translate(89.629 114.395)" fill="#f0f0f0"/>
          <rect id="Rectangle_25" data-name="Rectangle 25" width="71.61" height="3.378" transform="translate(89.629 119.393)" fill="#f0f0f0"/>
          <rect id="Rectangle_26" data-name="Rectangle 26" width="71.61" height="3.378" transform="translate(89.629 124.391)" fill="#f0f0f0"/>
          <rect id="Rectangle_27" data-name="Rectangle 27" width="71.61" height="3.378" transform="translate(89.629 129.383)" fill="#f0f0f0"/>
          <rect id="Rectangle_28" data-name="Rectangle 28" width="71.61" height="3.378" transform="translate(89.629 134.38)" fill="#f0f0f0"/>
          <rect id="Rectangle_29" data-name="Rectangle 29" width="71.61" height="3.378" transform="translate(89.629 139.378)" fill="#f0f0f0"/>
          <rect id="Rectangle_30" data-name="Rectangle 30" width="71.61" height="3.378" transform="translate(89.629 144.376)" fill="#f0f0f0"/>
          <rect id="Rectangle_31" data-name="Rectangle 31" width="71.61" height="3.378" transform="translate(89.629 149.374)" fill="#f0f0f0"/>
          <rect id="Rectangle_32" data-name="Rectangle 32" width="71.61" height="3.378" transform="translate(89.629 154.372)" fill="#f0f0f0"/>
          <rect id="Rectangle_33" data-name="Rectangle 33" width="71.61" height="3.378" transform="translate(89.629 159.363)" fill="#f0f0f0"/>
          <rect id="Rectangle_34" data-name="Rectangle 34" width="71.61" height="3.378" transform="translate(89.629 164.361)" fill="#f0f0f0"/>
          <rect id="Rectangle_35" data-name="Rectangle 35" width="71.61" height="3.378" transform="translate(89.629 169.359)" fill="#f0f0f0"/>
          <rect id="Rectangle_36" data-name="Rectangle 36" width="71.61" height="3.378" transform="translate(89.629 174.357)" fill="#f0f0f0"/>
          <rect id="Rectangle_37" data-name="Rectangle 37" width="71.61" height="3.378" transform="translate(89.629 179.355)" fill="#f0f0f0"/>
          <rect id="Rectangle_38" data-name="Rectangle 38" width="71.61" height="3.378" transform="translate(89.629 184.346)" fill="#f0f0f0"/>
          <rect id="Rectangle_39" data-name="Rectangle 39" width="68.448" height="137.636" transform="translate(175.86 48.61)" fill="#fafafa"/>
          <rect id="Rectangle_40" data-name="Rectangle 40" width="71.61" height="6.756" transform="translate(174.277 46.952)" fill="#f0f0f0"/>
          <rect id="Rectangle_41" data-name="Rectangle 41" width="71.61" height="0.619" transform="translate(174.277 54.436)" fill="#f0f0f0"/>
          <rect id="Rectangle_42" data-name="Rectangle 42" width="71.61" height="0.619" transform="translate(174.277 55.845)" fill="#f0f0f0"/>
          <rect id="Rectangle_43" data-name="Rectangle 43" width="71.61" height="0.619" transform="translate(174.277 57.247)" fill="#f0f0f0"/>
          <rect id="Rectangle_44" data-name="Rectangle 44" width="71.61" height="0.619" transform="translate(174.277 58.656)" fill="#f0f0f0"/>
          <rect id="Rectangle_45" data-name="Rectangle 45" width="71.61" height="0.619" transform="translate(174.277 60.058)" fill="#f0f0f0"/>
          <rect id="Rectangle_46" data-name="Rectangle 46" width="71.61" height="0.619" transform="translate(174.277 61.467)" fill="#f0f0f0"/>
          <rect id="Rectangle_47" data-name="Rectangle 47" width="71.61" height="0.619" transform="translate(174.277 62.869)" fill="#f0f0f0"/>
          <rect id="Rectangle_48" data-name="Rectangle 48" width="71.61" height="0.619" transform="translate(174.277 64.278)" fill="#f0f0f0"/>
          <rect id="Rectangle_49" data-name="Rectangle 49" width="71.61" height="0.619" transform="translate(174.277 65.687)" fill="#f0f0f0"/>
          <rect id="Rectangle_50" data-name="Rectangle 50" width="71.61" height="0.619" transform="translate(174.277 67.089)" fill="#f0f0f0"/>
          <rect id="Rectangle_51" data-name="Rectangle 51" width="71.61" height="0.619" transform="translate(174.277 68.498)" fill="#f0f0f0"/>
          <rect id="Rectangle_52" data-name="Rectangle 52" width="71.61" height="0.619" transform="translate(174.277 69.9)" fill="#f0f0f0"/>
          <rect id="Rectangle_53" data-name="Rectangle 53" width="71.61" height="0.619" transform="translate(174.277 71.309)" fill="#f0f0f0"/>
          <rect id="Rectangle_54" data-name="Rectangle 54" width="71.61" height="0.619" transform="translate(174.277 72.711)" fill="#f0f0f0"/>
          <rect id="Rectangle_55" data-name="Rectangle 55" width="71.61" height="0.619" transform="translate(174.277 74.12)" fill="#f0f0f0"/>
          <rect id="Rectangle_56" data-name="Rectangle 56" width="71.61" height="0.619" transform="translate(174.277 75.528)" fill="#f0f0f0"/>
          <rect id="Rectangle_57" data-name="Rectangle 57" width="71.61" height="0.619" transform="translate(174.277 76.931)" fill="#f0f0f0"/>
          <rect id="Rectangle_58" data-name="Rectangle 58" width="71.61" height="0.619" transform="translate(174.277 78.339)" fill="#f0f0f0"/>
          <circle id="Ellipse_1" data-name="Ellipse 1" cx="10.208" cy="10.208" r="10.208" transform="translate(156.056 36.223) rotate(-80.78)" fill="#f0f0f0"/>
          <circle id="Ellipse_2" data-name="Ellipse 2" cx="8.68" cy="8.68" r="8.68" transform="translate(157.808 34.96) rotate(-80.78)" fill="#fafafa"/>
          <path id="Path_33" data-name="Path 33" d="M247.437,87.43V93.5l-4.017-2.274" transform="translate(-80.083 -65.608)" fill="#f0f0f0" stroke="#e0e0e0" stroke-linecap="round" stroke-linejoin="round" stroke-width="2"/>
        </g>
        <g id="freepik--Shadow--inject-2" transform="translate(37.757 234.765)">
          <ellipse id="freepik--path--inject-2" cx="130.002" cy="7.617" rx="130.002" ry="7.617" fill="#f5f5f5"/>
        </g>
        <g id="freepik--Interface--inject-2" transform="translate(57.425 24.433)">
          <rect id="Rectangle_59" data-name="Rectangle 59" width="127.865" height="139.13" rx="3.65" transform="translate(111.285 42.023)" fill="#d63333" opacity="0.5"/>
          <rect id="Rectangle_60" data-name="Rectangle 60" width="127.865" height="139.13" rx="3.65" transform="translate(107.247 39.331)" fill="#d63333"/>
          <rect id="Rectangle_61" data-name="Rectangle 61" width="127.865" height="139.13" rx="3.65" transform="translate(107.247 39.331)" fill="#fff" opacity="0.8"/>
          <rect id="Rectangle_62" data-name="Rectangle 62" width="67.304" height="118.942" rx="3.65" transform="translate(4.037 38.732)" fill="#d63333" opacity="0.5"/>
          <rect id="Rectangle_63" data-name="Rectangle 63" width="67.304" height="118.942" rx="3.65" transform="translate(0 34.695)" fill="#d63333"/>
          <rect id="Rectangle_64" data-name="Rectangle 64" width="67.304" height="118.942" rx="3.65" transform="translate(0 34.695)" fill="#fff" opacity="0.8"/>
          <rect id="Rectangle_65" data-name="Rectangle 65" width="235.651" height="15.652" rx="3.85" fill="#d63333"/>
          <path id="Path_34" data-name="Path 34" d="M398.453,101.455a3.035,3.035,0,1,1-.877-2.154A3.021,3.021,0,0,1,398.453,101.455Z" transform="translate(-186.717 -93.629)" fill="#fff" opacity="0.6"/>
          <path id="Path_35" data-name="Path 35" d="M412.493,101.455a3.035,3.035,0,1,1-.877-2.154A3.021,3.021,0,0,1,412.493,101.455Z" transform="translate(-191.309 -93.629)" fill="#fff" opacity="0.6"/>
          <path id="Path_36" data-name="Path 36" d="M426.523,101.455a3.021,3.021,0,1,1-3-3.055,3.021,3.021,0,0,1,3,3.055Z" transform="translate(-195.898 -93.629)" fill="#fff" opacity="0.6"/>
          <rect id="Rectangle_66" data-name="Rectangle 66" width="7.765" height="7.853" transform="translate(5.491 3.896)" fill="#fff" opacity="0.6"/>
        </g>
        <g id="freepik--asset-1--inject-2" transform="translate(38.234 77.788)">
          <rect id="Rectangle_67" data-name="Rectangle 67" width="72.566" height="13.882" transform="translate(10.666)" fill="#d63333"/>
          <rect id="Rectangle_68" data-name="Rectangle 68" width="72.566" height="13.882" transform="translate(10.666)" opacity="0.2"/>
          <rect id="Rectangle_69" data-name="Rectangle 69" width="5.794" height="5.794" transform="translate(15.315 4.044)" fill="#fff"/>
          <path id="Path_37" data-name="Path 37" d="M81.46,180.69l1.083,1.386,2.18-2.806" transform="translate(-64.88 -173.732)" fill="none" stroke="#d63333" stroke-linecap="round" stroke-linejoin="round" stroke-width="1.5"/>
          <path id="Path_38" data-name="Path 38" d="M172,182.857H166.17v-3.943H172ZM169.084,176a2.476,2.476,0,0,0-2.476,2.47h.673a1.8,1.8,0,0,1,3.6,0h.673A2.476,2.476,0,0,0,169.084,176Z" transform="translate(-92.588 -172.662)" fill="#d63333"/>
          <rect id="Rectangle_70" data-name="Rectangle 70" width="72.566" height="13.882" transform="translate(0 25.665)" fill="#d63333"/>
          <rect id="Rectangle_71" data-name="Rectangle 71" width="72.566" height="13.882" transform="translate(0 25.665)" fill="#fff" opacity="0.4"/>
          <rect id="Rectangle_72" data-name="Rectangle 72" width="5.794" height="5.794" transform="translate(4.65 29.702)" fill="#fff"/>
          <rect id="Rectangle_73" data-name="Rectangle 73" width="5.827" height="3.936" transform="translate(62.917 31.916)" fill="#fff"/>
          <path id="Path_39" data-name="Path 39" d="M155.919,216.63h-.673a1.8,1.8,0,0,0-3.593,0h-.673a2.47,2.47,0,0,1,4.939,0Z" transform="translate(-87.619 -185.144)" fill="#fff"/>
          <rect id="Rectangle_74" data-name="Rectangle 74" width="72.566" height="13.882" transform="translate(11.042 52.527)" fill="#d63333"/>
          <rect id="Rectangle_75" data-name="Rectangle 75" width="72.566" height="13.882" transform="translate(11.042 52.527)" fill="#fff" opacity="0.4"/>
          <rect id="Rectangle_76" data-name="Rectangle 76" width="5.794" height="5.794" transform="translate(15.692 56.571)" fill="#fff"/>
          <path id="Path_40" data-name="Path 40" d="M82.02,258.743l1.083,1.393,2.18-2.806" transform="translate(-65.063 -199.265)" fill="none" stroke="#d63333" stroke-linecap="round" stroke-linejoin="round" stroke-width="1.5"/>
          <g id="Group_1" data-name="Group 1" transform="translate(73.959 55.749)" opacity="0.6">
            <rect id="Rectangle_77" data-name="Rectangle 77" width="5.827" height="3.936" transform="translate(0 3.029)" fill="#fff"/>
            <path id="Path_41" data-name="Path 41" d="M172.324,256.494h-.673a1.8,1.8,0,1,0-3.6,0h-.673a2.476,2.476,0,1,1,4.946,0Z" transform="translate(-166.941 -253.888)" fill="#fff"/>
          </g>
        </g>
        <g id="freepik--asset-2--inject-2" transform="translate(191.161 114.965)">
          <rect id="Rectangle_78" data-name="Rectangle 78" width="56.665" height="36.855" transform="translate(28.141)" fill="#d63333"/>
          <rect id="Rectangle_79" data-name="Rectangle 79" width="56.665" height="36.855" transform="translate(28.141)" fill="#fff" opacity="0.5"/>
          <rect id="Rectangle_80" data-name="Rectangle 80" width="52.52" height="28.1" transform="translate(30.213 6.904)" fill="#d63333"/>
          <rect id="Rectangle_81" data-name="Rectangle 81" width="38.847" height="1.211" transform="translate(34.493 11.103)" fill="#fff"/>
          <rect id="Rectangle_82" data-name="Rectangle 82" width="18.639" height="1.211" transform="translate(34.493 14.811)" fill="#fff"/>
          <rect id="Rectangle_83" data-name="Rectangle 83" width="23.478" height="1.211" transform="translate(34.493 18.512)" fill="#fff"/>
          <rect id="Rectangle_84" data-name="Rectangle 84" width="8.277" height="1.211" transform="translate(34.493 22.213)" fill="#fff"/>
          <rect id="Rectangle_85" data-name="Rectangle 85" width="5.356" height="1.211" transform="translate(34.493 25.914)" fill="#fff"/>
          <path id="Path_42" data-name="Path 42" d="M398.5,331.928v20.551a2.315,2.315,0,0,1-1.978,2.295,2.023,2.023,0,0,1-.35,0h-26.4a2.322,2.322,0,0,1-2.322-2.322V331.928a2.255,2.255,0,0,1,.236-1.016,2.322,2.322,0,0,1,2.086-1.312h10.349a2.382,2.382,0,0,0,1.346-.444,2.355,2.355,0,0,0,.848-1.157,2.328,2.328,0,0,1,2.214-1.608h5.5A2.322,2.322,0,0,1,392.24,328a2.328,2.328,0,0,0,2.214,1.6h1.689a2.328,2.328,0,0,1,2.355,2.328Z" transform="translate(-312.07 -259.254)" fill="#d63333"/>
          <path id="Path_43" data-name="Path 43" d="M396.519,335.095v21.876H369.771a2.321,2.321,0,0,1-2.322-2.321V334.126a2.255,2.255,0,0,1,.236-1.016h26.849a2.019,2.019,0,0,1,1.985,1.985Z" transform="translate(-312.07 -261.452)" fill="#fff" opacity="0.3"/>
          <path id="Path_44" data-name="Path 44" d="M308.581,289.67v25.7l-5.02,5.02H285.15V289.67Z" transform="translate(-285.15 -247.243)" fill="#d63333"/>
          <path id="Path_45" data-name="Path 45" d="M308.581,289.67v25.7l-5.02,5.02H285.15V289.67Z" transform="translate(-285.15 -247.243)" fill="#fff" opacity="0.4"/>
          <path id="Path_46" data-name="Path 46" d="M317.53,327.86h-5.02v5.02Z" transform="translate(-294.099 -259.735)" fill="#d63333"/>
          <rect id="Rectangle_86" data-name="Rectangle 86" width="17.67" height="0.962" transform="translate(2.92 47.642)" fill="#d63333"/>
          <rect id="Rectangle_87" data-name="Rectangle 87" width="14.864" height="0.962" transform="translate(2.92 50.596)" fill="#d63333"/>
          <rect id="Rectangle_88" data-name="Rectangle 88" width="17.67" height="0.962" transform="translate(2.92 53.543)" fill="#d63333"/>
          <rect id="Rectangle_89" data-name="Rectangle 89" width="6.594" height="0.962" transform="translate(2.92 56.497)" fill="#d63333"/>
          <rect id="Rectangle_90" data-name="Rectangle 90" width="4.273" height="0.962" transform="translate(2.92 59.451)" fill="#d63333"/>
        </g>
        <g id="freepik--Selection--inject-2" transform="translate(178.529 55.646)">
          <rect id="Rectangle_91" data-name="Rectangle 91" width="47.904" height="39.58" transform="translate(4.071 3.984)" fill="#d63333"/>
          <path id="Path_47" data-name="Path 47" d="M272.25,143.9v39.58h47.9V143.9Zm46.343,38.019H273.818V145.461h44.775Z" transform="translate(-268.179 -139.916)" fill="#fff" opacity="0.6"/>
          <path id="Path_48" data-name="Path 48" d="M274.58,179.492l13.727-9.972,10.2,9.972,10.2-5.827,10.645,6.554V190.3H274.58Z" transform="translate(-268.941 -148.297)" fill="#fff" opacity="0.3"/>
          <path id="Path_49" data-name="Path 49" d="M319.454,157.994a3.277,3.277,0,1,1-.957-2.322A3.277,3.277,0,0,1,319.454,157.994Z" transform="translate(-281.475 -143.452)" fill="#fff" opacity="0.6"/>
          <path id="Path_50" data-name="Path 50" d="M347.436,205.16v1.346H346.09" transform="translate(-292.332 -159.954)" fill="none" stroke="#263238" stroke-miterlimit="10" stroke-width="1"/>
          <line id="Line_1" data-name="Line 1" x1="48.18" transform="translate(3.465 46.558)" fill="none" stroke="#263238" stroke-miterlimit="10" stroke-width="1" stroke-dasharray="4.181 3.136"/>
          <path id="Path_51" data-name="Path 51" d="M269.126,206.506H267.78V205.16" transform="translate(-266.717 -159.954)" fill="none" stroke="#263238" stroke-miterlimit="10" stroke-width="1"/>
          <line id="Line_2" data-name="Line 2" y1="39.876" transform="translate(1.063 3.385)" fill="none" stroke="#263238" stroke-miterlimit="10" stroke-width="1" stroke-dasharray="3.855 2.891"/>
          <path id="Path_52" data-name="Path 52" d="M267.78,140.906V139.56h1.346" transform="translate(-266.717 -138.497)" fill="none" stroke="#263238" stroke-miterlimit="10" stroke-width="1"/>
          <line id="Line_3" data-name="Line 3" x2="48.18" transform="translate(4.522 1.063)" fill="none" stroke="#263238" stroke-miterlimit="10" stroke-width="1" stroke-dasharray="4.181 3.136"/>
          <path id="Path_53" data-name="Path 53" d="M346.09,139.56h1.346v1.346" transform="translate(-292.332 -138.497)" fill="none" stroke="#263238" stroke-miterlimit="10" stroke-width="1"/>
          <line id="Line_4" data-name="Line 4" y2="39.883" transform="translate(55.104 4.354)" fill="none" stroke="#263238" stroke-miterlimit="10" stroke-width="1" stroke-dasharray="3.855 2.891"/>
          <rect id="Rectangle_92" data-name="Rectangle 92" width="2.12" height="2.12" transform="translate(54.041)" fill="#263238"/>
          <rect id="Rectangle_93" data-name="Rectangle 93" width="2.12" height="2.12" transform="translate(54.041 45.495)" fill="#263238"/>
          <rect id="Rectangle_94" data-name="Rectangle 94" width="2.12" height="2.12" transform="translate(0 45.495)" fill="#263238"/>
          <rect id="Rectangle_95" data-name="Rectangle 95" width="2.12" height="2.12" fill="#263238"/>
          <rect id="Rectangle_96" data-name="Rectangle 96" width="2.12" height="2.12" transform="translate(26.963)" fill="#263238"/>
          <rect id="Rectangle_97" data-name="Rectangle 97" width="2.12" height="2.12" transform="translate(27.024 45.495)" fill="#263238"/>
          <rect id="Rectangle_98" data-name="Rectangle 98" width="2.12" height="2.12" transform="translate(54.041 22.751)" fill="#263238"/>
          <rect id="Rectangle_99" data-name="Rectangle 99" width="2.12" height="2.12" transform="translate(0 22.751)" fill="#263238"/>
        </g>
        <g id="freepik--Character--inject-2" transform="translate(105.509 69.238)">
          <path id="Path_54" data-name="Path 54" d="M169.236,236.62l-7.16,5.814s-1.75.034-2.3.612-2.692,4.879-2.362,5.464,3.829,1.743,4.576,1.05,2.019-4.67,2.019-5.094l9.151-6.137Z" transform="translate(-157.379 -184.342)" fill="#ebb376"/>
          <path id="Path_55" data-name="Path 55" d="M169.28,228.864l1.6,3.492s9.845-4.576,11.978-7.267c.545-.673,1.3-1.8,2.113-3.055,1.346-2.079,2.853-4.583,3.9-6.339.781-1.312,1.305-2.207,1.305-2.207l-5.572-8.788c-1.218.935-4.946,15.955-5.612,16.762S169.28,228.864,169.28,228.864Z" transform="translate(-161.272 -173.902)" fill="#d63333"/>
          <g id="Group_2" data-name="Group 2" transform="translate(8.008 30.798)" clip-path="url(#clip-path)">
            <path id="Path_56" data-name="Path 56" d="M192.6,224.231c1.346-2.079,2.853-4.583,3.9-6.339L193.91,211.5A76.225,76.225,0,0,0,192.6,224.231Z" transform="translate(-176.906 -206.924)" opacity="0.1"/>
          </g>
          <path id="Path_58" data-name="Path 58" d="M260.05,183.249l7.052-5.477s.572-1.655,1.292-2.019,5.457-1.043,5.922-.579.484,4.186-.4,4.71-5.067.511-5.464.357l-7.7,5.625Z" transform="translate(-190.962 -164.192)" fill="#ebb376"/>
          <path id="Path_59" data-name="Path 59" d="M171.53,405.165l4.219.747,1.736-5.76,1.575-5.289-4.865-1.7-1.413,6.352Z" transform="translate(-162.008 -235.546)" fill="#ebb376"/>
          <path id="Path_60" data-name="Path 60" d="M173.35,399.66l4.71.619,1.588-5.343-4.865-1.736Z" transform="translate(-162.603 -235.559)" opacity="0.2"/>
          <path id="Path_61" data-name="Path 61" d="M213.43,405.367h4.293l.7-5.753.639-5.37-5.094-.774-.283,6.312Z" transform="translate(-175.713 -235.648)" fill="#ebb376"/>
          <path id="Path_62" data-name="Path 62" d="M213.81,400.2l4.737-.209.639-5.538-5.094-.861Z" transform="translate(-175.837 -235.687)" opacity="0.2"/>
          <path id="Path_63" data-name="Path 63" d="M172.76,346.2l6.944,1.225a467.066,467.066,0,0,0,15.477-44.122c1.9-6.527,3.4-12.328,4.535-17.5l-.3,19.01v42.871h7c17.152-81.421,5-100.35,5-100.35L190.9,243.91a92.308,92.308,0,0,0-1.716,11.52l-.929,6.8-8.021,41.437Z" transform="translate(-162.41 -186.727)" fill="#263238"/>
          <path id="Path_64" data-name="Path 64" d="M180.513,395.09l-8.613-2.86.114,3.667,7.126,2.268Z" transform="translate(-162.129 -235.242)" fill="#d63333"/>
          <path id="Path_65" data-name="Path 65" d="M180.513,395.09l-8.613-2.86.114,3.667,7.126,2.268Z" transform="translate(-162.129 -235.242)" fill="#fff" opacity="0.6"/>
          <path id="Path_66" data-name="Path 66" d="M219.847,396.429l-8.977-1.319.747,3.593,7.409,1Z" transform="translate(-174.876 -236.184)" fill="#d63333"/>
          <path id="Path_67" data-name="Path 67" d="M219.847,396.429l-8.977-1.319.747,3.593,7.409,1Z" transform="translate(-174.876 -236.184)" fill="#fff" opacity="0.6"/>
          <path id="Path_68" data-name="Path 68" d="M204.73,315.3c.323-1.09.673-2.153.969-3.2,1.723-5.928,2.867-11.251,4.212-16.035h0l.673-8.8s-4.394-9.67-2.752-16.473c-.148.384-3.055,7.8-1.911,15.208a215.64,215.64,0,0,1-1.191,29.3Z" transform="translate(-172.867 -195.519)" opacity="0.2"/>
          <path id="Path_69" data-name="Path 69" d="M201.445,182.81a.963.963,0,0,0,.182.1,7.4,7.4,0,0,0,2.793.942c2.867.283,4.71-.343,5.787-1.763h0c1.494-2.113,1.487-5.511.72-9.515a15.308,15.308,0,0,0-1.494-4.589v-.074a.934.934,0,0,0-.094-.162,5.545,5.545,0,0,0-4.482-2.833,10.923,10.923,0,0,0-2.416.047C194.554,165.9,194.816,179.089,201.445,182.81Z" transform="translate(-170.174 -160.874)" fill="#ebb376"/>
          <path id="Path_70" data-name="Path 70" d="M204.12,191.173a7.239,7.239,0,0,0,2.779.834c2.867.283,4.71-.437,5.773-1.877a7.907,7.907,0,0,1-5.04.242A4.1,4.1,0,0,0,204.12,191.173Z" transform="translate(-172.668 -169.136)" opacity="0.2"/>
          <path id="Path_71" data-name="Path 71" d="M203.024,196.952c-.707,2.194,2.113,3.4,2.113,3.4,4.959-1.568,6.09-4.037,6.09-4.037-3.768-2.463-2.019-8.2-2.019-8.2l-.848.316-5.78.552s1.279,3.176,1.42,3.883h0C204.693,196.609,203.024,196.952,203.024,196.952Z" transform="translate(-172.164 -168.475)" fill="#ebb376"/>
          <path id="Path_72" data-name="Path 72" d="M207.365,167.053a8.336,8.336,0,0,1-3.768,8.506s-1.494,6.016-4.791,6.527c-4.488.673-9.286-5.195-8.579-11.924C191.148,161.441,203.879,159.086,207.365,167.053Z" transform="translate(-168.1 -159.995)" fill="#263238"/>
          <path id="Path_73" data-name="Path 73" d="M212.183,178.263c-.114-.861-1-2.214-2.308-1.844s-1.676,3.9,1.824,4.212C212.2,180.679,212.419,180.06,212.183,178.263Z" transform="translate(-174.244 -164.631)" fill="#ebb376"/>
          <path id="Path_74" data-name="Path 74" d="M217.462,410h-4.784a.424.424,0,0,0-.424.343l-.982,4.434a.734.734,0,0,0,.565.875.671.671,0,0,0,.162,0c1.958,0,2.12-.148,4.576-.148,1.514,0,6.09.155,8.183.155s2.362-2.066,1.507-2.254c-3.842-.841-6.729-2.019-7.96-3.1a1.211,1.211,0,0,0-.841-.3Z" transform="translate(-175.002 -241.054)" fill="#263238"/>
          <path id="Path_75" data-name="Path 75" d="M220.957,410.474a.108.108,0,0,1-.087-.1.114.114,0,0,1,.054-.114c.182-.114,1.79-1.1,2.342-.814a.35.35,0,0,1,.2.33.673.673,0,0,1-.249.633,1.446,1.446,0,0,1-.955.256,5.764,5.764,0,0,1-1.306-.188Zm.343-.161a2.456,2.456,0,0,0,1.776-.087.484.484,0,0,0,.155-.424c0-.1-.04-.141-.074-.141a.309.309,0,0,0-.155-.034,4.879,4.879,0,0,0-1.709.666Z" transform="translate(-178.146 -240.855)" fill="#d63333"/>
          <path id="Path_76" data-name="Path 76" d="M220.914,409.914a.121.121,0,0,1-.054-.108,3.681,3.681,0,0,1,.673-1.972.633.633,0,0,1,.5-.148.377.377,0,0,1,.377.31c.108.525-.888,1.622-1.406,1.9h-.054A.115.115,0,0,1,220.914,409.914Zm.8-1.938a2.785,2.785,0,0,0-.592,1.561c.518-.39,1.151-1.218,1.09-1.541,0-.034,0-.121-.175-.121h-.054a.4.4,0,0,0-.269.108Z" transform="translate(-178.143 -240.296)" fill="#d63333"/>
          <path id="Path_77" data-name="Path 77" d="M175.029,410h-4.791a.437.437,0,0,0-.424.343l-.982,4.434a.734.734,0,0,0,.565.875.671.671,0,0,0,.161,0c1.965,0,2.12-.148,4.583-.148,1.514,0,6.056.155,8.176.155s2.369-2.066,1.514-2.254c-3.842-.841-6.729-2.019-7.967-3.1A1.2,1.2,0,0,0,175.029,410Z" transform="translate(-161.12 -241.054)" fill="#263238"/>
          <path id="Path_78" data-name="Path 78" d="M178.507,410.474a.107.107,0,0,1-.087-.1.121.121,0,0,1,.061-.114c.175-.114,1.783-1.1,2.342-.814a.37.37,0,0,1,.2.33.673.673,0,0,1-.249.633,1.473,1.473,0,0,1-.956.256A5.77,5.77,0,0,1,178.507,410.474Zm.343-.161a2.456,2.456,0,0,0,1.776-.087.491.491,0,0,0,.162-.424c0-.1-.047-.141-.081-.141a.269.269,0,0,0-.148-.034,4.96,4.96,0,0,0-1.709.666Z" transform="translate(-164.261 -240.855)" fill="#d63333"/>
          <path id="Path_79" data-name="Path 79" d="M178.48,409.914a.114.114,0,0,1-.061-.108c0-.067.128-1.5.707-1.972a.606.606,0,0,1,.5-.148.384.384,0,0,1,.384.31c.1.525-.895,1.622-1.406,1.9h-.061Zm.794-1.938a2.78,2.78,0,0,0-.585,1.561c.511-.39,1.144-1.218,1.083-1.541,0-.034,0-.121-.168-.121h-.061a.4.4,0,0,0-.269.108Z" transform="translate(-164.261 -240.295)" fill="#d63333"/>
          <path id="Path_80" data-name="Path 80" d="M217.781,232.325s3.916-23.854-2.813-34.547c0,0-13.458-.834-22.879,4.623,0,0,3.9,10.618,4.488,29.924Z" transform="translate(-168.733 -171.622)" fill="#d63333"/>
          <g id="Group_3" data-name="Group 3" transform="translate(23.357 26.11)" clip-path="url(#clip-path-2)">
            <path id="Path_81" data-name="Path 81" d="M229.5,215.128c.289-3.237-.673-6.352-.807-9.1a26.531,26.531,0,0,1-4.428-5.04S223.048,210.66,229.5,215.128Z" transform="translate(-202.585 -198.798)" opacity="0.1"/>
          </g>
          <path id="Path_83" data-name="Path 83" d="M223.507,193.2s13.317-1.561,15.322-2.4c1.252-.525,11.042-6.924,11.042-6.924l2.295,3.452s-10.013,8.075-11.709,9.017c-3.97,2.18-12.893,5.262-12.893,5.262S222.175,197.819,223.507,193.2Z" transform="translate(-178.94 -167.088)" fill="#d63333"/>
          <path id="Path_84" data-name="Path 84" d="M203.192,169.6s5.538-5.538.316-9.266-10.47,1.137-10.47,1.137-12.489,3.015-9.831,11.325,4.394,9.01.437,13.27-7.994,10.592-3.95,14.629,18.168-.114,22.468-6.2S198.865,175.315,203.192,169.6Z" transform="translate(-164.129 -158.931)" fill="#263238"/>
          <path id="Path_85" data-name="Path 85" d="M198.7,248.041l-.088-2.261,21.546.545v2.093Z" transform="translate(-170.865 -187.339)"/>
          <rect id="Rectangle_100" data-name="Rectangle 100" width="0.868" height="2.227" transform="translate(33.794 58.596)" fill="#263238"/>
          <rect id="Rectangle_101" data-name="Rectangle 101" width="0.767" height="2.436" transform="translate(43.84 58.845)" fill="#263238"/>
          <rect id="Rectangle_102" data-name="Rectangle 102" width="0.733" height="2.604" transform="translate(28.337 58.475)" fill="#263238"/>
        </g>
      </g>
    </g>
  </g>
</svg>
