<svg xmlns="http://www.w3.org/2000/svg" xmlns:xlink="http://www.w3.org/1999/xlink" width="335" height="250" viewBox="0 0 335 250">
  <defs>
    <clipPath id="clip-vc2">
      <rect width="335" height="250"/>
    </clipPath>
  </defs>
  <g id="vc2" clip-path="url(#clip-vc2)">
    <g id="vc3" transform="translate(-2 -55)">
      <g id="freepik--background-complete--inject-2" transform="translate(0 55)">
        <rect id="Rectangle_163" data-name="Rectangle 163" width="22.464" height="0.17" transform="translate(282.69 232.894)" fill="#ebebeb"/>
        <rect id="Rectangle_164" data-name="Rectangle 164" width="5.894" height="0.17" transform="translate(218.763 234.739)" fill="#ebebeb"/>
        <rect id="Rectangle_165" data-name="Rectangle 165" width="13.016" height="0.17" transform="translate(268.996 226.6)" fill="#ebebeb"/>
        <rect id="Rectangle_166" data-name="Rectangle 166" width="29.295" height="0.17" transform="translate(35.582 227.739)" fill="#ebebeb"/>
        <rect id="Rectangle_167" data-name="Rectangle 167" width="4.293" height="0.17" transform="translate(70.92 227.739)" fill="#ebebeb"/>
        <rect id="Rectangle_168" data-name="Rectangle 168" width="63.54" height="0.17" transform="translate(89.172 230.601)" fill="#ebebeb"/>
        <path id="Path_265" data-name="Path 265" d="M173.044,246.815H42.083a3.873,3.873,0,0,1-3.873-3.873V58.839A3.873,3.873,0,0,1,42.083,55H173.044a3.873,3.873,0,0,1,3.873,3.873V242.942A3.873,3.873,0,0,1,173.044,246.815ZM42.083,55.136a3.71,3.71,0,0,0-3.7,3.7v184.1a3.71,3.71,0,0,0,3.7,3.7H173.044a3.71,3.71,0,0,0,3.7-3.7V58.839a3.71,3.71,0,0,0-3.7-3.7Z" transform="translate(-12.293 -55)" fill="#ebebeb"/>
        <path id="Path_266" data-name="Path 266" d="M389.347,246.815H258.373a3.88,3.88,0,0,1-3.873-3.873V58.839A3.88,3.88,0,0,1,258.373,55H389.347a3.873,3.873,0,0,1,3.859,3.839v184.1A3.873,3.873,0,0,1,389.347,246.815ZM258.373,55.136a3.71,3.71,0,0,0-3.7,3.7v184.1a3.71,3.71,0,0,0,3.7,3.7H389.347a3.71,3.71,0,0,0,3.7-3.7V58.839a3.71,3.71,0,0,0-3.7-3.7Z" transform="translate(-81.88 -55)" fill="#ebebeb"/>
        <rect id="Rectangle_169" data-name="Rectangle 169" width="339.136" height="0.17" transform="translate(0 221.981)" fill="#ebebeb"/>
        <rect id="Rectangle_170" data-name="Rectangle 170" width="84.641" height="90.135" transform="translate(198.028 26.907)" fill="#ebebeb"/>
        <rect id="Rectangle_171" data-name="Rectangle 171" width="74.467" height="79.961" transform="translate(203.115 31.994)" fill="#f5f5f5"/>
        <path id="Path_267" data-name="Path 267" d="M342.55,182.131h22.383l21.013-79.961H363.563Z" transform="translate(-110.208 -70.176)" fill="#fafafa"/>
        <path id="Path_268" data-name="Path 268" d="M348.233,102.17,327.22,182.131h5.426l21.013-79.961Z" transform="translate(-105.276 -70.176)" fill="#fafafa"/>
        <path id="Path_269" data-name="Path 269" d="M376.289,98.893H289.511L287.68,94.62h90.441Z" transform="translate(-92.555 -67.747)" fill="#f5f5f5"/>
        <path id="Path_270" data-name="Path 270" d="M376.289,102.543H289.511L287.68,98.27h90.441Z" transform="translate(-92.555 -68.921)" fill="#f0f0f0"/>
        <path id="Path_271" data-name="Path 271" d="M376.289,106.193H289.511l-1.831-4.273h90.441Z" transform="translate(-92.555 -70.095)" fill="#e6e6e6"/>
        <path id="Path_272" data-name="Path 272" d="M376.289,109.843H289.511l-1.831-4.273h90.441Z" transform="translate(-92.555 -71.27)" fill="#e0e0e0"/>
        <rect id="Rectangle_172" data-name="Rectangle 172" width="96.755" height="5.697" transform="translate(191.971 21.522)" fill="#e0e0e0"/>
        <path id="Path_273" data-name="Path 273" d="M284.023,154.592h0a.983.983,0,0,1-.983-.983V120.373a.984.984,0,0,1,.983-.983h0a.984.984,0,0,1,.984.983v33.235A.984.984,0,0,1,284.023,154.592Z" transform="translate(-91.062 -75.735)" fill="#e0e0e0"/>
        <rect id="Rectangle_173" data-name="Rectangle 173" width="0.712" height="19.738" transform="translate(192.602 26.08)" fill="#e0e0e0"/>
        <rect id="Rectangle_174" data-name="Rectangle 174" width="1.221" height="95.209" transform="translate(60.176 25.164)" fill="#e0e0e0"/>
        <rect id="Rectangle_175" data-name="Rectangle 175" width="1.221" height="95.209" transform="translate(136.177 25.164)" fill="#e0e0e0"/>
        <path id="Path_274" data-name="Path 274" d="M167.593,98.893H80.8L78.97,94.62h90.448Z" transform="translate(-25.407 -67.747)" fill="#f5f5f5"/>
        <path id="Path_275" data-name="Path 275" d="M167.593,107.543H80.8L78.97,103.27h90.448Z" transform="translate(-25.407 -70.53)" fill="#f5f5f5"/>
        <path id="Path_276" data-name="Path 276" d="M167.593,116.193H80.8L78.97,111.92h90.448Z" transform="translate(-25.407 -73.313)" fill="#f5f5f5"/>
        <path id="Path_277" data-name="Path 277" d="M167.593,124.843H80.8L78.97,120.57h90.448Z" transform="translate(-25.407 -76.112)" fill="#f5f5f5"/>
        <path id="Path_278" data-name="Path 278" d="M167.593,133.493H80.8L78.97,129.22h90.448Z" transform="translate(-25.407 -78.897)" fill="#f5f5f5"/>
        <path id="Path_279" data-name="Path 279" d="M167.593,142.143H80.8L78.97,137.87h90.448Z" transform="translate(-25.407 -81.682)" fill="#f5f5f5"/>
        <path id="Path_280" data-name="Path 280" d="M167.593,150.793H80.8L78.97,146.52h90.448Z" transform="translate(-25.407 -84.468)" fill="#f5f5f5"/>
        <path id="Path_281" data-name="Path 281" d="M167.593,159.443H80.8L78.97,155.17h90.448Z" transform="translate(-25.407 -87.253)" fill="#f5f5f5"/>
        <path id="Path_282" data-name="Path 282" d="M167.593,168.093H80.8L78.97,163.82h90.448Z" transform="translate(-25.407 -90.038)" fill="#f5f5f5"/>
        <path id="Path_283" data-name="Path 283" d="M167.593,176.743H80.8L78.97,172.47h90.448Z" transform="translate(-25.407 -92.823)" fill="#f5f5f5"/>
        <path id="Path_284" data-name="Path 284" d="M167.593,185.393H80.8L78.97,181.12h90.448Z" transform="translate(-25.407 -95.608)" fill="#f5f5f5"/>
        <path id="Path_285" data-name="Path 285" d="M167.593,194.033H80.8L78.97,189.76h90.448Z" transform="translate(-25.407 -98.39)" fill="#f5f5f5"/>
        <path id="Path_286" data-name="Path 286" d="M167.593,202.69H80.8l-1.831-4.28h90.448Z" transform="translate(-25.407 -101.175)" fill="#f5f5f5"/>
        <path id="Path_287" data-name="Path 287" d="M167.593,211.333H80.8L78.97,207.06h90.448Z" transform="translate(-25.407 -103.96)" fill="#f5f5f5"/>
        <path id="Path_288" data-name="Path 288" d="M167.593,219.983H80.8L78.97,215.71h90.448Z" transform="translate(-25.407 -106.745)" fill="#f5f5f5"/>
        <path id="Path_289" data-name="Path 289" d="M167.593,228.633H80.8L78.97,224.36h90.448Z" transform="translate(-25.407 -109.531)" fill="#f5f5f5"/>
        <rect id="Rectangle_176" data-name="Rectangle 176" width="90.448" height="2.442" transform="translate(53.563 119.101)" fill="#e0e0e0"/>
        <rect id="Rectangle_177" data-name="Rectangle 177" width="96.755" height="5.697" transform="translate(50.409 21.522)" fill="#e0e0e0"/>
        <path id="Path_290" data-name="Path 290" d="M75.324,154.592h0a.983.983,0,0,1-.983-.983V120.373a.983.983,0,0,1,.983-.983h0a.983.983,0,0,1,.983.983v33.235A.983.983,0,0,1,75.324,154.592Z" transform="translate(-23.917 -75.735)" fill="#e0e0e0"/>
        <rect id="Rectangle_178" data-name="Rectangle 178" width="0.712" height="19.738" transform="translate(51.047 26.08)" fill="#e0e0e0"/>
        <path id="Path_291" data-name="Path 291" d="M76.172,298.036c-.081.088.373.726-1.485.448-4.578-.678-12.548-2.543-14.766-7.251-3.168-6.722,6.654-4.266,6.315-7.705s-11.531-2.842-12.7-7.882,6.4-2.638,6.5-5.094-8.634-.936-10.371-6.376,4.87-1.431,4.11-3.7-8.139-12.487-4.131-13.674,10.8,9.306,13.43,10.791,4.938-7.081,8.058-3.459-1.831,16.278,2.143,18.727c2.964,1.831,2.13-3.208,6.037-2.265C84.589,271.875,82.805,290.615,76.172,298.036Z" transform="translate(-15.588 -116.74)" fill="#ebebeb"/>
        <path id="Path_292" data-name="Path 292" d="M68.358,276.312a15.864,15.864,0,0,1,3.954.807A30.919,30.919,0,0,0,69.5,273.5a.339.339,0,0,1,.482-.475,39.882,39.882,0,0,1,5.636,8.18,30.042,30.042,0,0,0-2.232-16.333.258.258,0,0,1,.461-.224A30.62,30.62,0,0,1,76,281.928c.468.889.943,1.845,1.4,2.869a64.3,64.3,0,0,1,3.873,11.341,23.36,23.36,0,0,0,2.713-10.357.251.251,0,0,1,.258-.244.258.258,0,0,1,.251.265,23.448,23.448,0,0,1-3.032,11.049,78.965,78.965,0,0,1,1.716,23.366.339.339,0,0,1-.36.319h-.041a.332.332,0,0,1-.271-.359,74.763,74.763,0,0,0-3.507-29.4,9.32,9.32,0,0,0-5.426-3.086.265.265,0,0,1-.21-.292.251.251,0,0,1,.285-.217,9.624,9.624,0,0,1,4.938,2.455,56.7,56.7,0,0,0-5.779-11.754,14.088,14.088,0,0,0-4.5-1.058.258.258,0,0,1-.237-.271.251.251,0,0,1,.278-.237Z" transform="translate(-21.903 -122.48)" fill="#f5f5f5"/>
        <path id="Path_293" data-name="Path 293" d="M96.725,306.918c3.805.068,10.3-3.466,12.887-6.9s-4.694-1.357-3.948-4.07,9.726-.712,11.381-4.639-4.816-3.018-4.558-5.026,6.966-1.594,9.116-5.765-3.744-1.831-2.822-3.561,8.322-9,5.229-10.513-10.032,6.057-12.351,6.9-2.869-4.388-5.894-1.886-.76,13.437-4.314,14.881c-2.652,1.078-1.526-3.934-4.578-2.666C91.475,285.9,95.158,306.884,96.725,306.918Z" transform="translate(-30.254 -123.027)" fill="#e0e0e0"/>
        <g id="Group_11" data-name="Group 11" transform="translate(63.783 143.219)" opacity="0.3">
          <path id="Path_294" data-name="Path 294" d="M96.725,306.918c3.805.068,10.3-3.466,12.887-6.9s-4.694-1.357-3.948-4.07,9.726-.712,11.381-4.639-4.816-3.018-4.558-5.026,6.966-1.594,9.116-5.765-3.744-1.831-2.822-3.561,8.322-9,5.229-10.513-10.032,6.057-12.351,6.9-2.869-4.388-5.894-1.886-.76,13.437-4.314,14.881c-2.652,1.078-1.526-3.934-4.578-2.666C91.475,285.9,95.158,306.884,96.725,306.918Z" transform="translate(-94.037 -266.246)" fill="#e0e0e0"/>
        </g>
        <path id="Path_295" data-name="Path 295" d="M97.948,306.269a.257.257,0,0,1-.136-.115A19.989,19.989,0,0,1,96.1,295.979a.258.258,0,1,1,.509.041,20.348,20.348,0,0,0,1.54,9.686,78.2,78.2,0,0,1,5.792-12.25,26.851,26.851,0,0,1,3.554-14.922.253.253,0,0,1,.427.271,26.452,26.452,0,0,0-3.52,13.864,71.074,71.074,0,0,1,9.726-13,.339.339,0,1,1,.475.482,66.113,66.113,0,0,0-7.427,9.387,20.09,20.09,0,0,1,7.169-1.289.258.258,0,0,1,.244.265.251.251,0,0,1-.251.244h0a19.541,19.541,0,0,0-7.671,1.5,81.4,81.4,0,0,0-4.137,7.115,8.594,8.594,0,0,1,7.095-1.248.258.258,0,0,1,.183.312.251.251,0,0,1-.312.176,8.207,8.207,0,0,0-7.5,1.818,68.987,68.987,0,0,0-7.319,27.863.339.339,0,0,1-.339.326h0a.339.339,0,0,1-.339-.326A66.933,66.933,0,0,1,97.948,306.269Z" transform="translate(-30.242 -126.949)" fill="#f5f5f5"/>
        <path id="Path_296" data-name="Path 296" d="M79.336,366.648c-3.629-6.823-6.016-16.685-6.016-21.026a12.073,12.073,0,0,1,4.436-9.231H96.347a12.073,12.073,0,0,1,4.436,9.231c0,4.327-2.388,14.189-6.016,21.026Z" transform="translate(-23.589 -145.617)" fill="#f0f0f0"/>
      </g>
      <g id="freepik--Shadow--inject-2" transform="translate(34.789 289.644)">
        <ellipse id="freepik--path--inject-2" cx="131.51" cy="7.678" rx="131.51" ry="7.678" fill="#f5f5f5"/>
      </g>
      <g id="freepik--Screen--inject-2" transform="translate(112.092 98.757)">
        <path id="Path_297" data-name="Path 297" d="M251.665,119.639H235.387a2.374,2.374,0,0,0-2.265,1.852l-.108.509a5.765,5.765,0,0,1-5.521,4.511H212.027a4.646,4.646,0,0,1-4.748-4.51v-.509a1.9,1.9,0,0,0-1.94-1.852H189.061a10.934,10.934,0,0,0-10.683,9.821L165.315,279.047a8.858,8.858,0,0,0,8.96,9.828h62.584a10.94,10.94,0,0,0,10.683-9.828l13.091-149.586a8.858,8.858,0,0,0-8.967-9.821Z" transform="translate(-165.261 -119.638)" fill="#d63333"/>
        <path id="Path_298" data-name="Path 298" d="M251.665,119.639H235.387a2.374,2.374,0,0,0-2.265,1.852l-.108.509a5.765,5.765,0,0,1-5.521,4.511H212.027a4.646,4.646,0,0,1-4.748-4.51v-.509a1.9,1.9,0,0,0-1.94-1.852H189.061a10.934,10.934,0,0,0-10.683,9.821L165.315,279.047a8.858,8.858,0,0,0,8.96,9.828h62.584a10.94,10.94,0,0,0,10.683-9.828l13.091-149.586a8.858,8.858,0,0,0-8.967-9.821Z" transform="translate(-165.261 -119.638)" fill="#fff" opacity="0.7"/>
        <path id="Path_299" data-name="Path 299" d="M266.584,205.434H233.349a1.974,1.974,0,0,1-1.994-2.184l2.5-28.616a2.428,2.428,0,0,1,2.374-2.184h33.235a1.967,1.967,0,0,1,1.994,2.184l-2.5,28.616A2.435,2.435,0,0,1,266.584,205.434Z" transform="translate(-186.522 -136.629)" fill="#fff"/>
        <path id="Path_300" data-name="Path 300" d="M238.256,347.852H182.637a4.89,4.89,0,0,1-4.951-5.426h0a6.043,6.043,0,0,1,5.9-5.426h55.618a4.89,4.89,0,0,1,4.951,5.426h0A6.037,6.037,0,0,1,238.256,347.852Z" transform="translate(-169.249 -189.569)" fill="#fff"/>
        <path id="Path_301" data-name="Path 301" d="M248,155.712H196.974a2.713,2.713,0,0,1-2.774-3.045l.414-4.748a3.391,3.391,0,0,1,3.31-3.039H248.95a2.747,2.747,0,0,1,2.781,3.039l-.421,4.748A3.391,3.391,0,0,1,248,155.712Z" transform="translate(-174.565 -127.759)" fill="#fff"/>
        <path id="Path_302" data-name="Path 302" d="M288.024,148.721a.943.943,0,0,1-.922.848.766.766,0,0,1-.773-.848.936.936,0,0,1,.922-.841.76.76,0,0,1,.773.841Z" transform="translate(-204.21 -128.724)" fill="#fff"/>
        <path id="Path_303" data-name="Path 303" d="M287.7,152.458a.936.936,0,0,1-.916.848.766.766,0,0,1-.773-.848.936.936,0,0,1,.916-.848.766.766,0,0,1,.773.848Z" transform="translate(-204.107 -129.924)" fill="#fff"/>
        <path id="Path_304" data-name="Path 304" d="M287.374,156.188a.943.943,0,0,1-.922.848.767.767,0,0,1-.773-.848.943.943,0,0,1,.922-.848.766.766,0,0,1,.773.848Z" transform="translate(-204.001 -131.124)" fill="#fff"/>
        <path id="Path_305" data-name="Path 305" d="M246.811,273.117H184.728a1.967,1.967,0,0,1-1.994-2.184l2.889-32.659A2.428,2.428,0,0,1,188,236.09H250.06a1.967,1.967,0,0,1,1.987,2.184l-2.856,32.659A2.428,2.428,0,0,1,246.811,273.117Z" transform="translate(-170.879 -157.104)" fill="#fff"/>
        <path id="Path_306" data-name="Path 306" d="M201.461,300.235H182.13a.475.475,0,0,1-.482-.529h0a.59.59,0,0,1,.577-.536h19.331a.475.475,0,0,1,.482.536h0A.59.59,0,0,1,201.461,300.235Z" transform="translate(-170.532 -177.398)" fill="#fff"/>
        <path id="Path_307" data-name="Path 307" d="M236.405,300.235H215.657a.475.475,0,0,1-.488-.529h0a.59.59,0,0,1,.577-.536H236.5a.475.475,0,0,1,.482.536h0A.59.59,0,0,1,236.405,300.235Z" transform="translate(-181.317 -177.398)" fill="#fff"/>
        <path id="Path_308" data-name="Path 308" d="M194.577,307.182h-13.05a.482.482,0,0,1-.488-.536h0a.6.6,0,0,1,.577-.536h13.077a.488.488,0,0,1,.488.536h0a.6.6,0,0,1-.6.536Z" transform="translate(-170.336 -179.631)" fill="#fff"/>
        <path id="Path_309" data-name="Path 309" d="M227.247,307.182h-21.42a.482.482,0,0,1-.488-.536h0a.6.6,0,0,1,.583-.536h21.413a.482.482,0,0,1,.488.536h0A.59.59,0,0,1,227.247,307.182Z" transform="translate(-178.154 -179.631)" fill="#fff"/>
        <path id="Path_310" data-name="Path 310" d="M215.773,314.125H180.917a.475.475,0,0,1-.488-.529h0a.6.6,0,0,1,.583-.536h34.856a.488.488,0,0,1,.488.536h0A.6.6,0,0,1,215.773,314.125Z" transform="translate(-170.14 -181.867)" fill="#fff"/>
        <path id="Path_311" data-name="Path 311" d="M239.676,314.125h-2.3a.475.475,0,0,1-.488-.529h0a.59.59,0,0,1,.577-.536h2.306a.475.475,0,0,1,.482.536h0A.59.59,0,0,1,239.676,314.125Z" transform="translate(-188.305 -181.867)" fill="#fff"/>
        <path id="Path_312" data-name="Path 312" d="M196.576,321.072H180.3a.488.488,0,0,1-.488-.536h0a.6.6,0,0,1,.583-.536h16.279a.482.482,0,0,1,.488.536h0A.6.6,0,0,1,196.576,321.072Z" transform="translate(-169.941 -184.1)" fill="#fff"/>
        <path id="Path_313" data-name="Path 313" d="M229.594,321.072H209.327a.488.488,0,0,1-.488-.536h0a.6.6,0,0,1,.583-.536h20.26a.482.482,0,0,1,.488.536h0A.6.6,0,0,1,229.594,321.072Z" transform="translate(-179.281 -184.1)" fill="#fff"/>
        <path id="Path_314" data-name="Path 314" d="M199.743,328.015H179.7a.475.475,0,0,1-.482-.536h0a.59.59,0,0,1,.577-.529h20.036a.475.475,0,0,1,.488.529h0A.59.59,0,0,1,199.743,328.015Z" transform="translate(-169.75 -186.336)" fill="#fff"/>
        <path id="Path_315" data-name="Path 315" d="M230.413,328.015H214.27a.475.475,0,0,1-.482-.536h0a.59.59,0,0,1,.577-.529h16.143a.475.475,0,0,1,.488.529h0a.6.6,0,0,1-.583.536Z" transform="translate(-180.872 -186.336)" fill="#fff"/>
        <path id="Path_316" data-name="Path 316" d="M268.421,203.978a.678.678,0,0,1-.963.061L239.7,177.546a.678.678,0,0,1,0-.956h0a.678.678,0,0,1,.963-.061l27.762,26.493A.678.678,0,0,1,268.421,203.978Z" transform="translate(-189.146 -137.886)" fill="#d63333"/>
        <path id="Path_317" data-name="Path 317" d="M236.1,211.043h0a.678.678,0,0,1,.142-.963L250.408,198.5a.678.678,0,0,1,.95.061h0a.678.678,0,0,1-.142.956L237.053,211.1A.678.678,0,0,1,236.1,211.043Z" transform="translate(-188.008 -144.957)" fill="#d63333"/>
        <path id="Path_318" data-name="Path 318" d="M263.085,188.966h0a.678.678,0,0,1,.142-.956l14.189-11.6a.678.678,0,0,1,.95.061h0a.678.678,0,0,1-.142.956l-14.189,11.6a.678.678,0,0,1-.95-.061Z" transform="translate(-196.69 -137.85)" fill="#d63333"/>
        <g id="Group_12" data-name="Group 12" transform="translate(50.354 38.471)" opacity="0.7">
          <path id="Path_319" data-name="Path 319" d="M268.421,203.978a.678.678,0,0,1-.963.061L239.7,177.546a.678.678,0,0,1,0-.956h0a.678.678,0,0,1,.963-.061l27.762,26.493A.678.678,0,0,1,268.421,203.978Z" transform="translate(-239.499 -176.356)" fill="#fff"/>
        </g>
        <g id="Group_13" data-name="Group 13" transform="translate(47.956 53.379)" opacity="0.7">
          <path id="Path_320" data-name="Path 320" d="M236.1,211.043h0a.678.678,0,0,1,.142-.963L250.408,198.5a.678.678,0,0,1,.95.061h0a.678.678,0,0,1-.142.956L237.053,211.1A.678.678,0,0,1,236.1,211.043Z" transform="translate(-235.964 -198.336)" fill="#fff"/>
        </g>
        <g id="Group_14" data-name="Group 14" transform="translate(66.259 38.396)" opacity="0.7">
          <path id="Path_321" data-name="Path 321" d="M263.085,188.966h0a.678.678,0,0,1,.142-.956l14.189-11.6a.678.678,0,0,1,.95.061h0a.678.678,0,0,1-.142.956l-14.189,11.6a.678.678,0,0,1-.95-.061Z" transform="translate(-262.949 -176.246)" fill="#fff"/>
        </g>
      </g>
      <g id="freepik--Icons--inject-2" transform="translate(70.14 95.57)">
        <path id="Path_322" data-name="Path 322" d="M160.033,114.84h-8.818A3.229,3.229,0,0,0,148,118.069v8.818a3.229,3.229,0,0,0,3.229,3.229h8.818a3.229,3.229,0,0,0,3.229-3.229v-8.818a3.229,3.229,0,0,0-3.242-3.229Zm-4.388,3.12c1.323,0,2.035,1.078,2.035,2.4s-.712,2.4-2.035,2.4-2.035-1.072-2.035-2.4S154.315,117.96,155.644,117.96Zm5.3,9h-10.6a.326.326,0,0,1-.231-.095l.678-1.852a3.025,3.025,0,0,1,2.842-1.994h4.009a3.032,3.032,0,0,1,2.849,1.994l.678,1.852a.312.312,0,0,1-.224.095Z" transform="translate(-117.756 -114.84)" fill="#d63333"/>
        <path id="Path_323" data-name="Path 323" d="M160.033,114.84h-8.818A3.229,3.229,0,0,0,148,118.069v8.818a3.229,3.229,0,0,0,3.229,3.229h8.818a3.229,3.229,0,0,0,3.229-3.229v-8.818a3.229,3.229,0,0,0-3.242-3.229Zm-4.388,3.12c1.323,0,2.035,1.078,2.035,2.4s-.712,2.4-2.035,2.4-2.035-1.072-2.035-2.4S154.315,117.96,155.644,117.96Zm5.3,9h-10.6a.326.326,0,0,1-.231-.095l.678-1.852a3.025,3.025,0,0,1,2.842-1.994h4.009a3.032,3.032,0,0,1,2.849,1.994l.678,1.852a.312.312,0,0,1-.224.095Z" transform="translate(-117.756 -114.84)" fill="#fff" opacity="0.7"/>
        <path id="Path_324" data-name="Path 324" d="M114.432,168.12h-6.674a4.341,4.341,0,0,0-4.348,4.341v6.674a4.348,4.348,0,0,0,4.348,4.348h6.674a4.341,4.341,0,0,0,4.341-4.348v-6.674a4.334,4.334,0,0,0-4.341-4.341Zm-3.337,11.32s-2.713-2.978-2.713-4.5a2.744,2.744,0,1,1,5.487,0c-.034,1.519-2.774,4.5-2.774,4.5Z" transform="translate(-103.41 -131.982)" fill="#d63333"/>
        <path id="Path_325" data-name="Path 325" d="M114.142,176.34a1.255,1.255,0,1,0,1.248,1.248A1.255,1.255,0,0,0,114.142,176.34Z" transform="translate(-106.457 -134.626)" fill="#d63333"/>
        <g id="Group_15" data-name="Group 15" transform="translate(0 36.138)" opacity="0.7">
          <path id="Path_326" data-name="Path 326" d="M114.432,168.12h-6.674a4.341,4.341,0,0,0-4.348,4.341v6.674a4.348,4.348,0,0,0,4.348,4.348h6.674a4.341,4.341,0,0,0,4.341-4.348v-6.674a4.334,4.334,0,0,0-4.341-4.341Zm-3.337,11.32s-2.713-2.978-2.713-4.5a2.744,2.744,0,1,1,5.487,0c-.034,1.519-2.774,4.5-2.774,4.5Z" transform="translate(-103.41 -168.12)" fill="#fff"/>
          <path id="Path_327" data-name="Path 327" d="M114.142,176.34a1.255,1.255,0,1,0,1.248,1.248A1.255,1.255,0,0,0,114.142,176.34Z" transform="translate(-106.457 -170.765)" fill="#fff"/>
        </g>
        <path id="Path_328" data-name="Path 328" d="M335.7,137.486l4.47-2.889-4.47-2.9Z" transform="translate(-178.144 -120.264)" fill="#d63333"/>
        <path id="Path_329" data-name="Path 329" d="M338.428,124.34h-8.519a3.629,3.629,0,0,0-3.629,3.629v8.519a3.635,3.635,0,0,0,3.629,3.629h8.519a3.629,3.629,0,0,0,3.629-3.629v-8.519a3.622,3.622,0,0,0-3.629-3.629Zm-4.259,13.565a5.667,5.667,0,1,0,0-.007Z" transform="translate(-175.114 -117.896)" fill="#d63333"/>
        <g id="Group_16" data-name="Group 16" transform="translate(151.166 6.444)" opacity="0.7">
          <path id="Path_330" data-name="Path 330" d="M335.7,137.486l4.47-2.889-4.47-2.9Z" transform="translate(-329.311 -126.708)" fill="#fff"/>
          <path id="Path_331" data-name="Path 331" d="M338.428,124.34h-8.519a3.629,3.629,0,0,0-3.629,3.629v8.519a3.635,3.635,0,0,0,3.629,3.629h8.519a3.629,3.629,0,0,0,3.629-3.629v-8.519a3.622,3.622,0,0,0-3.629-3.629Zm-4.259,13.565a5.667,5.667,0,1,0,0-.007Z" transform="translate(-326.28 -124.34)" fill="#fff"/>
        </g>
      </g>
      <g id="freepik--Gears--inject-2" transform="translate(207.185 127.743)">
        <path id="Path_332" data-name="Path 332" d="M350.433,169.222V168.7l1.024-.57a6.723,6.723,0,0,0-.38-1.418h-1.167a5.783,5.783,0,0,0-.529-.909l.6-1a7.2,7.2,0,0,0-1.038-1.045l-1,.6a6,6,0,0,0-.9-.522V162.67a7.388,7.388,0,0,0-1.418-.38l-.57,1.024H344.01l-.57-1.024a7.657,7.657,0,0,0-1.418.38v1.173a5.675,5.675,0,0,0-.9.522l-1-.6a6.912,6.912,0,0,0-1.044,1.045l.6,1a6.317,6.317,0,0,0-.522.909h-1.167a7.178,7.178,0,0,0-.387,1.418l1.024.57v1.045l-1.024.57a7.052,7.052,0,0,0,.387,1.418h1.167a6.313,6.313,0,0,0,.522.909l-.6,1a7.2,7.2,0,0,0,1.044,1.038l1-.6a5.2,5.2,0,0,0,.9.522v1.173a7.161,7.161,0,0,0,1.418.38l.57-1.024h1.045l.57,1.024a6.921,6.921,0,0,0,1.418-.38V174.6a5.467,5.467,0,0,0,.9-.522l1,.6a7.5,7.5,0,0,0,1.038-1.038l-.6-1a5.781,5.781,0,0,0,.529-.909h1.167a6.617,6.617,0,0,0,.38-1.418l-1.024-.57C350.419,169.554,350.433,169.4,350.433,169.222Zm-5.915,4.015a4.015,4.015,0,1,1,4.015-4.015,4.015,4.015,0,0,1-4.015,4.015Z" transform="translate(-315.8 -162.29)" fill="#d63333"/>
        <path id="Path_333" data-name="Path 333" d="M350.433,169.222V168.7l1.024-.57a6.723,6.723,0,0,0-.38-1.418h-1.167a5.783,5.783,0,0,0-.529-.909l.6-1a7.2,7.2,0,0,0-1.038-1.045l-1,.6a6,6,0,0,0-.9-.522V162.67a7.388,7.388,0,0,0-1.418-.38l-.57,1.024H344.01l-.57-1.024a7.657,7.657,0,0,0-1.418.38v1.173a5.675,5.675,0,0,0-.9.522l-1-.6a6.912,6.912,0,0,0-1.044,1.045l.6,1a6.317,6.317,0,0,0-.522.909h-1.167a7.178,7.178,0,0,0-.387,1.418l1.024.57v1.045l-1.024.57a7.052,7.052,0,0,0,.387,1.418h1.167a6.313,6.313,0,0,0,.522.909l-.6,1a7.2,7.2,0,0,0,1.044,1.038l1-.6a5.2,5.2,0,0,0,.9.522v1.173a7.161,7.161,0,0,0,1.418.38l.57-1.024h1.045l.57,1.024a6.921,6.921,0,0,0,1.418-.38V174.6a5.467,5.467,0,0,0,.9-.522l1,.6a7.5,7.5,0,0,0,1.038-1.038l-.6-1a5.781,5.781,0,0,0,.529-.909h1.167a6.617,6.617,0,0,0,.38-1.418l-1.024-.57C350.419,169.554,350.433,169.4,350.433,169.222Zm-5.915,4.015a4.015,4.015,0,1,1,4.015-4.015,4.015,4.015,0,0,1-4.015,4.015Z" transform="translate(-315.8 -162.29)" fill="#fff" opacity="0.7"/>
        <path id="Path_334" data-name="Path 334" d="M324.635,197.337a5.953,5.953,0,0,0-.034-.78l1.533-.848a10.594,10.594,0,0,0-.57-2.13l-1.75.034a8.716,8.716,0,0,0-.787-1.357l.9-1.5a10.508,10.508,0,0,0-1.553-1.553l-1.5.9a9.259,9.259,0,0,0-1.357-.78v-1.75A10.408,10.408,0,0,0,317.4,187l-.848,1.533h-1.56L314.162,187a10.65,10.65,0,0,0-2.123.57v1.75a9.184,9.184,0,0,0-1.357.78l-1.465-.9a10.551,10.551,0,0,0-1.56,1.553l.9,1.5a8.683,8.683,0,0,0-.78,1.357l-1.75-.034a10.173,10.173,0,0,0-.57,2.13l1.533.848a7.487,7.487,0,0,0,0,1.56l-1.533.855a10.21,10.21,0,0,0,.57,2.123l1.75-.034a8.383,8.383,0,0,0,.78,1.357l-.9,1.5a10.555,10.555,0,0,0,1.56,1.553l1.5-.9a8.613,8.613,0,0,0,1.357.78v1.75a10.208,10.208,0,0,0,2.123.57l.855-1.533a7.49,7.49,0,0,0,1.56,0l.848,1.533a9.991,9.991,0,0,0,2.123-.57v-1.75a8.681,8.681,0,0,0,1.357-.78l1.5.9a10.506,10.506,0,0,0,1.553-1.553l-.9-1.5a8.419,8.419,0,0,0,.787-1.357l1.75.034a10.65,10.65,0,0,0,.57-2.123l-1.533-.855A5.006,5.006,0,0,1,324.635,197.337Zm-8.818,3.486a3.5,3.5,0,1,0-.02,0Z" transform="translate(-305.46 -170.24)" fill="#d63333"/>
        <path id="Path_335" data-name="Path 335" d="M324.635,197.337a5.953,5.953,0,0,0-.034-.78l1.533-.848a10.594,10.594,0,0,0-.57-2.13l-1.75.034a8.716,8.716,0,0,0-.787-1.357l.9-1.5a10.508,10.508,0,0,0-1.553-1.553l-1.5.9a9.259,9.259,0,0,0-1.357-.78v-1.75A10.408,10.408,0,0,0,317.4,187l-.848,1.533h-1.56L314.162,187a10.65,10.65,0,0,0-2.123.57v1.75a9.184,9.184,0,0,0-1.357.78l-1.465-.9a10.551,10.551,0,0,0-1.56,1.553l.9,1.5a8.683,8.683,0,0,0-.78,1.357l-1.75-.034a10.173,10.173,0,0,0-.57,2.13l1.533.848a7.487,7.487,0,0,0,0,1.56l-1.533.855a10.21,10.21,0,0,0,.57,2.123l1.75-.034a8.383,8.383,0,0,0,.78,1.357l-.9,1.5a10.555,10.555,0,0,0,1.56,1.553l1.5-.9a8.613,8.613,0,0,0,1.357.78v1.75a10.208,10.208,0,0,0,2.123.57l.855-1.533a7.49,7.49,0,0,0,1.56,0l.848,1.533a9.991,9.991,0,0,0,2.123-.57v-1.75a8.681,8.681,0,0,0,1.357-.78l1.5.9a10.506,10.506,0,0,0,1.553-1.553l-.9-1.5a8.419,8.419,0,0,0,.787-1.357l1.75.034a10.65,10.65,0,0,0,.57-2.123l-1.533-.855A5.006,5.006,0,0,1,324.635,197.337Zm-8.818,3.486a3.5,3.5,0,1,0-.02,0Z" transform="translate(-305.46 -170.24)" fill="#fff" opacity="0.7"/>
      </g>
      <g id="freepik--speech-bubbles--inject-2" transform="translate(130.784 94.878)">
        <path id="Path_336" data-name="Path 336" d="M295.184,143.578v3.554l-3.391,1.784a.827.827,0,0,0,0,1.458l3.391,1.784v3.554a1.431,1.431,0,0,0,1.431,1.431H308.75a1.438,1.438,0,0,0,1.438-1.431V143.578a1.438,1.438,0,0,0-1.438-1.438H296.6A1.431,1.431,0,0,0,295.184,143.578Z" transform="translate(-224.522 -122.999)" fill="#d63333"/>
        <g id="Group_17" data-name="Group 17" transform="translate(73.965 22.586)" opacity="0.9">
          <path id="Path_337" data-name="Path 337" d="M302.718,148.916h6.9a.848.848,0,0,0,0-1.7h-6.9a.848.848,0,1,0,0,1.7Z" transform="translate(-301.87 -147.22)" fill="#fff"/>
          <path id="Path_338" data-name="Path 338" d="M309.616,152h-6.9a.848.848,0,0,0,0,1.7h6.9a.848.848,0,0,0,0-1.7Z" transform="translate(-301.87 -148.758)" fill="#fff"/>
          <path id="Path_339" data-name="Path 339" d="M309.616,156.69h-6.9a.848.848,0,0,0,0,1.7h6.9a.848.848,0,0,0,0-1.7Z" transform="translate(-301.87 -150.267)" fill="#fff"/>
        </g>
        <path id="Path_340" data-name="Path 340" d="M194.909,128.9h2.9l1.492,2.828a1.153,1.153,0,0,0,2.035,0l1.492-2.828h2.9a2.089,2.089,0,0,0,2.089-2.1V116.009a2.089,2.089,0,0,0-2.089-2.089H194.909a2.082,2.082,0,0,0-2.089,2.089v10.852A2.089,2.089,0,0,0,194.909,128.9Z" transform="translate(-192.82 -113.92)" fill="#d63333"/>
        <path id="Path_341" data-name="Path 341" d="M202.3,118.69l-3.337,1.953v5.711h2.482v-3.832h1.716v3.832h2.482v-5.711Z" transform="translate(-194.795 -115.455)" fill="#fff" opacity="0.9"/>
        <path id="Path_342" data-name="Path 342" d="M237.813,363.051h-2.577l-1.662-3.161a.963.963,0,0,0-1.7,0l-1.662,3.161h-2.645a2.381,2.381,0,0,0-2.381,2.381v10.242a2.381,2.381,0,0,0,2.381,2.381h10.242a2.381,2.381,0,0,0,2.381-2.381V365.431A2.381,2.381,0,0,0,237.813,363.051Z" transform="translate(-203.234 -192.893)" fill="#d63333"/>
        <path id="Path_343" data-name="Path 343" d="M235.391,370.045a3.7,3.7,0,1,0-.522,5.67.855.855,0,0,0,.224.448l2.306,2.3a.83.83,0,1,0,1.173-1.173l-2.3-2.3a.834.834,0,0,0-.454-.231A3.717,3.717,0,0,0,235.391,370.045ZM234.6,374.5a2.6,2.6,0,1,1,.762-1.838,2.6,2.6,0,0,1-.762,1.838Z" transform="translate(-204.482 -195.974)" fill="#fff" opacity="0.9"/>
      </g>
      <g id="freepik--character-2--inject-2" transform="translate(184.456 152.201)">
        <path id="Path_344" data-name="Path 344" d="M389.659,263.361s-5.528,13.7-10.941,15.18-13.565.278-13.565.278l-2.523.678-2.476-.366h-.088l-2.788-.068a.529.529,0,0,1-.475-.834l1-1.357a.678.678,0,0,1,.332-.237l2.659-.855a.733.733,0,0,1,.319,0l4.07.644s11.293-1.852,12.446-2.9,4.551-12,4.551-12Z" transform="translate(-299.218 -218.733)" fill="#eec1bb"/>
        <path id="Path_345" data-name="Path 345" d="M365.425,283.065l-.265.041-4.07-.644a.732.732,0,0,0-.319,0l-2.659.855a.678.678,0,0,0-.332.237l-1,1.357a.529.529,0,0,0,.475.834l2.788.068h.088l1.662.244A10.649,10.649,0,0,0,365.425,283.065Z" transform="translate(-299.212 -225.462)" opacity="0.1"/>
        <path id="Path_346" data-name="Path 346" d="M404.6,244.086c-4.015-1.316-9.665,1.7-11.829,14.345l8.336,2.462S410.337,245.971,404.6,244.086Z" transform="translate(-310.821 -213.03)" fill="#d63333"/>
        <path id="Path_347" data-name="Path 347" d="M375.77,219.5c0,.421.224.753.5.753s.509-.359.488-.766-.224-.746-.5-.739S375.77,219.089,375.77,219.5Z" transform="translate(-305.352 -204.97)" fill="#263238"/>
        <path id="Path_348" data-name="Path 348" d="M377.254,220.47l-1.974,3.262s.678.773,2.164.2Z" transform="translate(-305.194 -205.523)" fill="#d4827d"/>
        <path id="Path_349" data-name="Path 349" d="M377.768,215.8a.21.21,0,0,1-.2.068,1.7,1.7,0,0,0-1.485.468.224.224,0,0,1-.305,0,.231.231,0,0,1,0-.312,2.109,2.109,0,0,1,1.872-.6.217.217,0,0,1,.19.244h0A.258.258,0,0,1,377.768,215.8Z" transform="translate(-305.336 -203.89)" fill="#263238"/>
        <path id="Path_350" data-name="Path 350" d="M391.965,212.082c.305,5.514.556,7.848-1.879,10.981-3.887,3.357-10.506,3.893-12.46-1.418-1.757-4.748-1.96-12.975,3.14-15.817a7.536,7.536,0,0,1,10.255,2.923,7.658,7.658,0,0,1,.943,3.33Z" transform="translate(-305.588 -200.506)" fill="#eec1bb"/>
        <path id="Path_351" data-name="Path 351" d="M387.97,232.463l1.4,8.173,6.81-1.574L393.8,230.72Z" transform="translate(-309.277 -208.821)" fill="#eec1bb"/>
        <path id="Path_352" data-name="Path 352" d="M379.425,210.416c.346-3.581-.889.556-2.544-4.171s6.165-8.567,7.413-7.685.536,2.231,4.673,3a4.7,4.7,0,0,1,3.961,4.782s2.381,1.1,1.533,6.213a20.958,20.958,0,0,1-4.07,8.987s-1.567-1.614-4.07-.129a8.037,8.037,0,0,1-2.421-2.469c-1.112-1.669-1.458-3.256-2.984-3.391C377.729,215.259,379.31,211.6,379.425,210.416Z" transform="translate(-305.636 -198.433)" fill="#263238"/>
        <path id="Path_353" data-name="Path 353" d="M400,208.71s3.391-2.076,1.886-4.253S401.106,206.858,400,208.71Z" transform="translate(-313.147 -200.186)" fill="#263238"/>
        <path id="Path_354" data-name="Path 354" d="M381.656,218.822a4.259,4.259,0,0,0-1.078,3.073c.1,1.492,1.56,1.757,2.713.943s2.245-2.4,1.58-3.71a1.92,1.92,0,0,0-3.215-.305Z" transform="translate(-306.896 -204.757)" fill="#ffc3bd"/>
        <path id="Path_355" data-name="Path 355" d="M388.16,233.867l.556,3.242a6.1,6.1,0,0,1,1.533-4.429A2.747,2.747,0,0,0,388.16,233.867Z" transform="translate(-309.338 -209.451)" opacity="0.1"/>
        <rect id="Rectangle_179" data-name="Rectangle 179" width="1.947" height="11.483" transform="translate(28.996 45.496)" fill="#d63333"/>
        <rect id="Rectangle_180" data-name="Rectangle 180" width="1.947" height="11.483" transform="translate(28.996 45.496)" fill="#fff" opacity="0.7"/>
        <path id="Path_356" data-name="Path 356" d="M293.989,231.89h-4.85a3.29,3.29,0,0,0-3.29,3.29v22.471a3.29,3.29,0,0,0,3.29,3.29h4.85Z" transform="translate(-276.422 -209.197)" fill="#d63333"/>
        <rect id="Rectangle_181" data-name="Rectangle 181" width="39.394" height="29.044" rx="4.85" transform="translate(11.124 22.693)" fill="#d63333"/>
        <rect id="Rectangle_182" data-name="Rectangle 182" width="39.394" height="29.044" rx="4.85" transform="translate(11.124 22.693)" fill="#fff" opacity="0.5"/>
        <rect id="Rectangle_183" data-name="Rectangle 183" width="36.681" height="26.33" rx="2.85" transform="translate(12.48 24.049)" fill="#263238"/>
        <path id="Path_357" data-name="Path 357" d="M305.69,286.282a7.088,7.088,0,0,1,14.169,0Z" transform="translate(-282.805 -224.487)" fill="#d63333"/>
        <path id="Path_358" data-name="Path 358" d="M323.619,285.98H309.45v2.3h28.338v-.943Z" transform="translate(-284.015 -226.599)" fill="#d63333"/>
        <path id="Path_359" data-name="Path 359" d="M323.619,285.98H309.45v2.3h28.338v-.943Z" transform="translate(-284.015 -226.599)" fill="#fff" opacity="0.8"/>
        <path id="Path_360" data-name="Path 360" d="M323.619,288.279H309.45v-2.3l14.169,1.357Z" transform="translate(-284.015 -226.599)" fill="#d63333"/>
        <path id="Path_361" data-name="Path 361" d="M323.619,288.279H309.45v-2.3l14.169,1.357Z" transform="translate(-284.015 -226.599)" fill="#fff" opacity="0.6"/>
        <path id="Path_362" data-name="Path 362" d="M360.429,369.995H331.2a4.436,4.436,0,0,1-4.443-4.436v-67.2a4.436,4.436,0,0,1,4.443-4.436h29.227a1.187,1.187,0,0,1,1.187,1.187h0a1.187,1.187,0,0,1-1.187,1.187H331.2a2.035,2.035,0,0,0-2.069,2.035v67.2a2.035,2.035,0,0,0,2.069,2.035h29.227a1.187,1.187,0,0,1,1.187,1.187h0a1.187,1.187,0,0,1-1.187,1.241Z" transform="translate(-289.584 -229.154)" fill="#263238"/>
        <g id="Group_18" data-name="Group 18" transform="translate(37.176 64.766)" opacity="0.5">
          <path id="Path_363" data-name="Path 363" d="M360.429,369.995H331.2a4.436,4.436,0,0,1-4.443-4.436v-67.2a4.436,4.436,0,0,1,4.443-4.436h29.227a1.187,1.187,0,0,1,1.187,1.187h0a1.187,1.187,0,0,1-1.187,1.187H331.2a2.035,2.035,0,0,0-2.069,2.035v67.2a2.035,2.035,0,0,0,2.069,2.035h29.227a1.187,1.187,0,0,1,1.187,1.187h0a1.187,1.187,0,0,1-1.187,1.241Z" transform="translate(-326.76 -293.92)" fill="#fff"/>
        </g>
        <rect id="Rectangle_184" data-name="Rectangle 184" width="41.503" height="3.48" transform="translate(0 61.68)" fill="#d63333"/>
        <rect id="Rectangle_185" data-name="Rectangle 185" width="41.503" height="3.48" transform="translate(0 61.68)" fill="#fff" opacity="0.2"/>
        <rect id="Rectangle_186" data-name="Rectangle 186" width="35.399" height="3.48" transform="translate(39.604 61.68)" fill="#d63333"/>
        <rect id="Rectangle_187" data-name="Rectangle 187" width="35.399" height="3.48" transform="translate(39.604 61.68)" fill="#fff" opacity="0.5"/>
        <path id="Path_364" data-name="Path 364" d="M360.7,369.73l1.96,19.819H357.97l-4.7-19.3Z" transform="translate(-298.113 -253.544)" fill="#eec1bb"/>
        <path id="Path_365" data-name="Path 365" d="M355.579,397l5.989.1a.481.481,0,0,1,.461.387l1,4.89a.807.807,0,0,1-.617.95h-.17c-2.164-.075-4.07-.224-6.783-.271-3.168-.054-2.374.339-6.1.332-2.245,0-2.611-2.571-1.662-2.679,4.375-.475,4.85-1.784,6.559-3.317A1.94,1.94,0,0,1,355.579,397Z" transform="translate(-296.162 -262.315)" fill="#263238"/>
        <path id="Path_366" data-name="Path 366" d="M362.155,384.374,360.7,369.73l-7.434.515,3.439,14.128Z" transform="translate(-298.113 -253.544)" opacity="0.1"/>
        <path id="Path_367" data-name="Path 367" d="M389.836,302.36l-19.249.678s-25.93,9.068-26.609,16.034c-.746,7.176,7.963,40.147,7.963,40.147h7.739s-2.137-24.194-2.95-31.6,26.988-4.958,31.818-11.273C392.963,310.554,389.836,302.36,389.836,302.36Z" transform="translate(-295.109 -231.869)" fill="#263238"/>
        <path id="Path_368" data-name="Path 368" d="M389.836,302.36l-19.249.678s-25.93,9.068-26.609,16.034c-.746,7.176,7.963,40.147,7.963,40.147h7.739s-2.137-24.194-2.95-31.6,26.988-4.958,31.818-11.273C392.963,310.554,389.836,302.36,389.836,302.36Z" transform="translate(-295.109 -231.869)" opacity="0.2"/>
        <path id="Path_369" data-name="Path 369" d="M364.15,384.59l.17,2.733h-9.564l-.936-2.733Z" transform="translate(-298.29 -258.325)" fill="#d63333"/>
        <path id="Path_370" data-name="Path 370" d="M334.58,371.12,335.1,390h-4.612L327.75,371.12Z" transform="translate(-289.902 -253.991)" fill="#eec1bb"/>
        <path id="Path_371" data-name="Path 371" d="M326.869,397l5.989.1a.482.482,0,0,1,.461.387l1,4.89a.807.807,0,0,1-.617.949h-.17c-2.164-.075-4.07-.224-6.783-.271-3.174-.054-2.374.339-6.1.332-2.245,0-2.611-2.571-1.662-2.679,4.375-.475,4.85-1.784,6.559-3.317A1.926,1.926,0,0,1,326.869,397Z" transform="translate(-286.926 -262.315)" fill="#263238"/>
        <path id="Path_372" data-name="Path 372" d="M334.953,384.807l-.373-13.687h-6.83l1.987,13.7C331.223,384.828,333.264,384.814,334.953,384.807Z" transform="translate(-289.902 -253.991)" opacity="0.1"/>
        <path id="Path_373" data-name="Path 373" d="M373.823,303.954s1.6,14.637-13.287,15.322-26.514,2.388-26.853,7.685,0,32.286,0,32.286h-8.092s-3.147-17.065-4.375-27.646c-1.194-10.276-3.391-17.73,7.169-21.21,11.212-3.7,31.139-7.122,31.139-7.122l14.352-.909Z" transform="translate(-287.466 -231.869)" fill="#263238"/>
        <path id="Path_374" data-name="Path 374" d="M336.95,384.59l-.509,2.733h-8.885l-.936-2.733Z" transform="translate(-289.539 -258.325)" fill="#d63333"/>
        <path id="Path_375" data-name="Path 375" d="M398.065,241.4s0-3.3-6.667-2.917c-7.081.407-5.745,3.568-5.745,3.568Z" transform="translate(-308.499 -211.309)" fill="#d63333"/>
        <path id="Path_376" data-name="Path 376" d="M398.065,241.4s0-3.3-6.667-2.917c-7.081.407-5.745,3.568-5.745,3.568Z" transform="translate(-308.499 -211.309)" opacity="0.3"/>
        <path id="Path_377" data-name="Path 377" d="M400.349,257.079c-.448,6.518-.292,26.127-.292,26.127s-14.244.936-25.422.57l-1.3-37.719a3.317,3.317,0,0,1,2.13-3.073c3.161-1.228,10.581-2.618,22.186-1.092C401.658,242.428,400.878,249.373,400.349,257.079Z" transform="translate(-304.57 -212.199)" fill="#d63333"/>
        <path id="Path_378" data-name="Path 378" d="M361.079,263.361s-5.535,13.7-10.94,15.18-13.565.278-13.565.278l-2.523.678-2.469-.366h-.088l-2.794-.068a.529.529,0,0,1-.475-.834l1-1.357a.679.679,0,0,1,.332-.237l2.652-.855a.762.762,0,0,1,.326,0l4.07.644s11.293-1.852,12.439-2.9,4.558-12,4.558-12Z" transform="translate(-290.023 -218.733)" fill="#eec1bb"/>
        <path id="Path_379" data-name="Path 379" d="M375.6,254.341s-.861,1.024-1.906,2.5l.373,10.92c4.158-1.838,5.806-12.541,5.806-12.541l-2.713-1.913Z" transform="translate(-304.683 -216.089)" opacity="0.1"/>
        <path id="Path_380" data-name="Path 380" d="M376.016,244.086c-4.015-1.316-9.672,1.7-11.836,14.345l8.343,2.435S381.754,245.971,376.016,244.086Z" transform="translate(-301.623 -213.03)" fill="#d63333"/>
        <rect id="Rectangle_188" data-name="Rectangle 188" width="6.274" height="18.388" transform="translate(73.43 94.508)" fill="#263238"/>
        <rect id="Rectangle_189" data-name="Rectangle 189" width="6.274" height="18.388" transform="translate(73.43 94.508)" fill="#fff" opacity="0.6"/>
        <path id="Path_381" data-name="Path 381" d="M378.114,378.36V355h-8.221v23.36l-18.714,2.6v2.6L374,381.609l22.824,1.947v-2.6Z" transform="translate(-297.441 -248.805)" fill="#263238"/>
        <circle id="Ellipse_8" data-name="Ellipse 8" cx="2.476" cy="2.476" r="2.476" transform="translate(50.992 136.168)" fill="#d63333"/>
        <circle id="Ellipse_9" data-name="Ellipse 9" cx="2.476" cy="2.476" r="2.476" transform="translate(96.911 136.168)" fill="#d63333"/>
        <circle id="Ellipse_10" data-name="Ellipse 10" cx="2.476" cy="2.476" r="2.476" transform="translate(74.088 136.168)" fill="#d63333"/>
        <rect id="Rectangle_190" data-name="Rectangle 190" width="6.274" height="4.544" transform="translate(73.43 94.508)" opacity="0.3"/>
        <path id="Path_382" data-name="Path 382" d="M392.637,276.32H372.194a6.457,6.457,0,0,0-6.423,5.854l-1.723,18.469a8.512,8.512,0,0,1-8.038,7.705l-19.731.99a4.51,4.51,0,0,0-4.28,4.5v.414a3.737,3.737,0,0,0,3.737,3.737h60.088l3.235-34.592a6.457,6.457,0,0,0-6.423-7.081Z" transform="translate(-291.27 -223.491)" fill="#d63333"/>
        <path id="Path_383" data-name="Path 383" d="M392.637,276.32H372.194a6.457,6.457,0,0,0-6.423,5.854l-1.723,18.469a8.512,8.512,0,0,1-8.038,7.705l-19.731.99a4.51,4.51,0,0,0-4.28,4.5v.414a3.737,3.737,0,0,0,3.737,3.737h60.088l3.235-34.592a6.457,6.457,0,0,0-6.423-7.081Z" transform="translate(-291.27 -223.491)" fill="#fff" opacity="0.3"/>
        <path id="Path_384" data-name="Path 384" d="M352.22,307h2.815v14.725a1.357,1.357,0,0,1-1.357,1.357h-.1a1.357,1.357,0,0,1-1.357-1.357Z" transform="translate(-297.775 -233.362)" fill="#263238"/>
        <path id="Path_385" data-name="Path 385" d="M352.22,307h2.815v14.725a1.357,1.357,0,0,1-1.357,1.357h-.1a1.357,1.357,0,0,1-1.357-1.357Z" transform="translate(-297.775 -233.362)" fill="#fff" opacity="0.2"/>
        <path id="Path_386" data-name="Path 386" d="M369.26,300.768H363v5.189h6.274a2.6,2.6,0,1,0,0-5.189Z" transform="translate(-301.243 -231.356)" fill="#d63333"/>
        <path id="Path_387" data-name="Path 387" d="M369.26,300.768H363v5.189h6.274a2.6,2.6,0,1,0,0-5.189Z" transform="translate(-301.243 -231.356)" fill="#fff" opacity="0.5"/>
        <rect id="Rectangle_191" data-name="Rectangle 191" width="26.934" height="5.196" rx="2.598" transform="translate(41.083 69.412)" fill="#d63333"/>
        <rect id="Rectangle_192" data-name="Rectangle 192" width="26.934" height="5.196" rx="2.598" transform="translate(41.083 69.412)" fill="#fff" opacity="0.3"/>
        <path id="Path_388" data-name="Path 388" d="M413.924,318.016H383.87l3.351-35.792a6.457,6.457,0,0,1,6.423-5.854h20.443a6.457,6.457,0,0,1,6.423,7.054l-2.923,31.3A3.683,3.683,0,0,1,413.924,318.016Z" transform="translate(-307.958 -223.508)" fill="#d63333"/>
        <path id="Path_389" data-name="Path 389" d="M413.924,318.016H383.87l3.351-35.792a6.457,6.457,0,0,1,6.423-5.854h20.443a6.457,6.457,0,0,1,6.423,7.054l-2.923,31.3A3.683,3.683,0,0,1,413.924,318.016Z" transform="translate(-307.958 -223.508)" fill="#fff" opacity="0.5"/>
        <path id="Path_390" data-name="Path 390" d="M308.7,369.995H279.473a4.436,4.436,0,0,1-4.443-4.436v-67.2a4.436,4.436,0,0,1,4.443-4.436H308.7a1.187,1.187,0,0,1,1.187,1.187h0a1.187,1.187,0,0,1-1.187,1.187H279.473a2.035,2.035,0,0,0-2.069,2.035v67.2a2.035,2.035,0,0,0,2.069,2.035H308.7a1.187,1.187,0,0,1,1.187,1.187h0a1.187,1.187,0,0,1-1.187,1.241Z" transform="translate(-272.941 -229.154)" fill="#263238"/>
        <g id="Group_19" data-name="Group 19" transform="translate(2.089 64.766)" opacity="0.5">
          <path id="Path_391" data-name="Path 391" d="M308.7,369.995H279.473a4.436,4.436,0,0,1-4.443-4.436v-67.2a4.436,4.436,0,0,1,4.443-4.436H308.7a1.187,1.187,0,0,1,1.187,1.187h0a1.187,1.187,0,0,1-1.187,1.187H279.473a2.035,2.035,0,0,0-2.069,2.035v67.2a2.035,2.035,0,0,0,2.069,2.035H308.7a1.187,1.187,0,0,1,1.187,1.187h0a1.187,1.187,0,0,1-1.187,1.241Z" transform="translate(-275.03 -293.92)" fill="#fff"/>
        </g>
        <path id="Path_392" data-name="Path 392" d="M295.145,240.184l-2.035-1.357a.366.366,0,0,1,0-.617l2.035-1.357a.339.339,0,0,1,.468.095h0a.339.339,0,0,1-.1.461l-1.689,1.119,1.689,1.119a.339.339,0,0,1,.1.461h0A.346.346,0,0,1,295.145,240.184Z" transform="translate(-278.703 -210.776)" fill="#fff"/>
        <path id="Path_393" data-name="Path 393" d="M302.811,240.08h0a.332.332,0,0,1,.115-.441l1.689-1.119-1.689-1.139a.332.332,0,0,1-.088-.461h0a.332.332,0,0,1,.461-.1l2.035,1.357a.366.366,0,0,1,0,.617l-2.035,1.357a.339.339,0,0,1-.488-.075Z" transform="translate(-281.866 -210.767)" fill="#fff"/>
        <path id="Path_394" data-name="Path 394" d="M298.609,240.586h0a.332.332,0,0,1-.217-.421l1.4-4.436a.326.326,0,0,1,.414-.217h0a.326.326,0,0,1,.217.414l-1.4,4.443a.332.332,0,0,1-.421.217Z" transform="translate(-280.452 -210.357)" fill="#fff"/>
        <path id="Path_395" data-name="Path 395" d="M308.371,247.665H293.266a.346.346,0,0,1-.346-.353h0a.346.346,0,0,1,.346-.353h15.105a.353.353,0,0,1,.353.353h0A.353.353,0,0,1,308.371,247.665Z" transform="translate(-278.697 -214.046)" fill="#fff"/>
        <path id="Path_396" data-name="Path 396" d="M333.945,247.678H318.833a.353.353,0,0,1-.353-.353h0a.353.353,0,0,1,.353-.326h15.1a.353.353,0,0,1,.353.353h0a.353.353,0,0,1-.339.326Z" transform="translate(-286.92 -214.058)" fill="#fff"/>
        <path id="Path_397" data-name="Path 397" d="M301.9,252.249h-8.634a.346.346,0,0,1-.346-.353h0a.346.346,0,0,1,.346-.346H301.9a.353.353,0,0,1,.353.346h0A.353.353,0,0,1,301.9,252.249Z" transform="translate(-278.697 -215.522)" fill="#fff"/>
        <path id="Path_398" data-name="Path 398" d="M323.448,252.249H309.306a.346.346,0,0,1-.346-.353h0a.346.346,0,0,1,.346-.346h14.142a.346.346,0,0,1,.346.346h0a.346.346,0,0,1-.346.353Z" transform="translate(-283.857 -215.522)" fill="#fff"/>
        <path id="Path_399" data-name="Path 399" d="M316.273,256.835H293.266a.353.353,0,0,1-.346-.353h0a.346.346,0,0,1,.346-.353h23.007a.353.353,0,0,1,.353.353h0a.353.353,0,0,1-.353.353Z" transform="translate(-278.697 -216.996)" fill="#fff"/>
        <path id="Path_400" data-name="Path 400" d="M335.3,256.835h-4.8a.353.353,0,0,1-.353-.353h0a.353.353,0,0,1,.353-.353h4.8a.353.353,0,0,1,.353.353h0a.353.353,0,0,1-.353.353Z" transform="translate(-290.675 -216.996)" fill="#fff"/>
        <path id="Path_401" data-name="Path 401" d="M304.01,261.415H293.266a.346.346,0,0,1-.346-.353h0a.346.346,0,0,1,.346-.353H304.01a.353.353,0,0,1,.353.353h0A.353.353,0,0,1,304.01,261.415Z" transform="translate(-278.697 -218.469)" fill="#fff"/>
        <path id="Path_402" data-name="Path 402" d="M325.791,261.415H312.423a.353.353,0,0,1-.353-.353h0a.353.353,0,0,1,.353-.353h13.369a.353.353,0,0,1,.353.353h0A.353.353,0,0,1,325.791,261.415Z" transform="translate(-284.858 -218.469)" fill="#fff"/>
        <path id="Path_403" data-name="Path 403" d="M308.371,266H293.266a.346.346,0,0,1-.346-.353h0a.346.346,0,0,1,.346-.346h15.105a.346.346,0,0,1,.353.346h0A.353.353,0,0,1,308.371,266Z" transform="translate(-278.697 -219.946)" fill="#fff"/>
        <path id="Path_404" data-name="Path 404" d="M329.5,266H318.833a.353.353,0,0,1-.353-.353h0a.346.346,0,0,1,.353-.346h10.656a.346.346,0,0,1,.346.346h0a.346.346,0,0,1-.332.353Z" transform="translate(-286.92 -219.946)" fill="#fff"/>
      </g>
      <g id="freepik--character-1--inject-2" transform="translate(54.89 120.692)">
        <path id="Path_405" data-name="Path 405" d="M140.132,176.82c.278,3.195-.414,8.98-2.822,10.852a25.472,25.472,0,0,1,10.751,7.081c2.638-3.839-.36-6.03-.36-6.03-3.391-1.207-3.032-3.778-2.157-6.145Z" transform="translate(-99.066 -159.971)" fill="#b97964"/>
        <path id="Path_406" data-name="Path 406" d="M160.4,172.437c-.041.4.149.746.414.773s.5-.285.543-.678-.149-.746-.414-.773S160.445,172.037,160.4,172.437Z" transform="translate(-106.493 -158.342)" fill="#263238"/>
        <path id="Path_407" data-name="Path 407" d="M161.05,171.68l.984-.19S161.471,172.216,161.05,171.68Z" transform="translate(-106.704 -158.256)" fill="#263238"/>
        <path id="Path_408" data-name="Path 408" d="M160.475,173.39a11.1,11.1,0,0,0,1.2,2.713,1.757,1.757,0,0,1-1.465.136Z" transform="translate(-106.434 -158.867)" fill="#a24e3f"/>
        <path id="Path_409" data-name="Path 409" d="M161.112,169.158a.278.278,0,0,0,.163-.088.244.244,0,0,0,0-.332,2.36,2.36,0,0,0-2.1-.563.251.251,0,0,0-.075.332.224.224,0,0,0,.2.109,1.919,1.919,0,0,1,1.655.468A.244.244,0,0,0,161.112,169.158Z" transform="translate(-106.067 -157.172)" fill="#263238"/>
        <path id="Path_410" data-name="Path 410" d="M140.961,165.823c-.156,4.958-.326,7.068,1.886,9.835,3.33,4.158,9.36,3.249,10.974-1.58,1.451-4.348,1.465-11.754-3.1-14.156A6.656,6.656,0,0,0,140.961,165.823Z" transform="translate(-100.215 -154.278)" fill="#b97964"/>
        <path id="Path_411" data-name="Path 411" d="M138.309,172.891c-4.877-.834-3.48-3.907-3.48-3.907-4.8-.97-1.092-3.317-1.092-3.317-4-1.723,0-3.269,0-3.269-3.853-3.195,1.641-4.3,1.641-4.3-1.357-4.985,3.391-2.937,3.391-2.937,2.577-4.287,4.8-.2,4.8-.2,4.517-6.1,5.616-.956,5.616-.956,4.619-1.214,2.849,3.642,2.849,3.642,3.8,1.017.814,2.944.814,2.944,1.465,1.852-3.832,2.171-3.832,2.171s2.523,4.07,0,5.189L142.6,172.87S139.639,171.663,138.309,172.891Z" transform="translate(-97.346 -151.979)" fill="#263238"/>
        <path id="Path_412" data-name="Path 412" d="M148.39,169.391s3.391-8.139.739-15.085l2.238-.766S154.291,163.639,148.39,169.391Z" transform="translate(-102.631 -152.481)" fill="#d63333"/>
        <path id="Path_413" data-name="Path 413" d="M153.258,174.406c.556,1.167.773,1.675,1.574,2.035a1.451,1.451,0,0,0,2.13-1.614c-.21-1.167-1.106-2.883-2.347-2.917a1.621,1.621,0,0,0-1.357,2.5Z" transform="translate(-104.115 -158.391)" fill="#b97964"/>
        <path id="Path_414" data-name="Path 414" d="M146.6,197.5s4.592,3.391,6.457,4.748l13.287-6.267h0a3.669,3.669,0,0,1,2.238-3.473l.95-.393,2-.9a2.32,2.32,0,0,1,2.313.244h0a2.326,2.326,0,0,1,.861,2.537h0a5.745,5.745,0,0,1-4.07,3.948l-1.94.509s-11.388,8.628-15.458,8.831-10.032-3.792-10.032-3.792Z" transform="translate(-100.965 -164.537)" fill="#b97964"/>
        <path id="Path_415" data-name="Path 415" d="M130.79,192.14c3.507,0,7.427,2.184,13.565,6.186a16.855,16.855,0,0,1-4.748,7.515s-3.391-.909-7.9-5.148C126.286,195.559,128.639,192.147,130.79,192.14Z" transform="translate(-96.195 -164.9)" fill="#263238"/>
        <path id="Path_416" data-name="Path 416" d="M213.414,191.477H180.179a1.974,1.974,0,0,1-1.994-2.184l2.5-28.61a2.428,2.428,0,0,1,2.374-2.184H216.3a1.967,1.967,0,0,1,1.987,2.184l-2.5,28.61A2.428,2.428,0,0,1,213.414,191.477Z" transform="translate(-112.213 -154.077)" fill="#d63333"/>
        <path id="Path_417" data-name="Path 417" d="M213.414,191.477H180.179a1.974,1.974,0,0,1-1.994-2.184l2.5-28.61a2.428,2.428,0,0,1,2.374-2.184H216.3a1.967,1.967,0,0,1,1.987,2.184l-2.5,28.61A2.428,2.428,0,0,1,213.414,191.477Z" transform="translate(-112.213 -154.077)" fill="#fff" opacity="0.4"/>
        <path id="Path_418" data-name="Path 418" d="M214.186,190.764a.916.916,0,0,0,.9-.827l2.5-28.609a.746.746,0,0,0-.753-.827H183.6a.922.922,0,0,0-.9.827l-2.5,28.609a.746.746,0,0,0,.753.827Z" transform="translate(-112.863 -154.72)" fill="#fff" opacity="0.7"/>
        <path id="Path_419" data-name="Path 419" d="M191.11,180.32l-10.852,15.709v.285a.746.746,0,0,0,.753.827H199.84Z" transform="translate(-112.883 -161.097)" fill="#d63333"/>
        <path id="Path_420" data-name="Path 420" d="M191.11,180.32l-10.852,15.709v.285a.746.746,0,0,0,.753.827H199.84Z" transform="translate(-112.883 -161.097)" fill="#fff" opacity="0.3"/>
        <path id="Path_421" data-name="Path 421" d="M221.066,194.1l-9.1-17.276-13.47,19.2h21.576a.916.916,0,0,0,.9-.827Z" transform="translate(-118.753 -159.971)" fill="#d63333"/>
        <path id="Path_422" data-name="Path 422" d="M210.277,170.869a3.391,3.391,0,0,1-3.317,3.052,2.754,2.754,0,0,1-2.788-3.052,3.391,3.391,0,0,1,3.317-3.059,2.754,2.754,0,0,1,2.788,3.059Z" transform="translate(-120.573 -157.072)" fill="#d63333"/>
        <path id="Path_423" data-name="Path 423" d="M210.277,170.869a3.391,3.391,0,0,1-3.317,3.052,2.754,2.754,0,0,1-2.788-3.052,3.391,3.391,0,0,1,3.317-3.059,2.754,2.754,0,0,1,2.788,3.059Z" transform="translate(-120.573 -157.072)" fill="#fff" opacity="0.4"/>
        <path id="Path_424" data-name="Path 424" d="M89.3,377.37,85.92,387.381,91.1,389.5l4.049-9.238Z" transform="translate(-82.533 -224.493)" fill="#b97964"/>
        <path id="Path_425" data-name="Path 425" d="M96.251,394.628a.169.169,0,0,1-.081-.156.142.142,0,0,1,.115-.122c.109,0,2.55-.57,3.459,0a.773.773,0,0,1,.346.468.556.556,0,0,1-.176.617,2.643,2.643,0,0,1-1.892-.088A11.153,11.153,0,0,1,96.251,394.628Zm.515-.047c1.065.475,2.571.929,2.964.631.054-.041.122-.109.068-.319a.387.387,0,0,0-.217-.285.992.992,0,0,0-.258-.115A6.784,6.784,0,0,0,96.767,394.581Z" transform="translate(-85.83 -229.875)" fill="#d63333"/>
        <path id="Path_426" data-name="Path 426" d="M96.171,393.753a.149.149,0,0,1,0-.149,4.11,4.11,0,0,1,1.635-2.035,1.119,1.119,0,0,1,.861,0c.373.156.434.393.4.556-.081.712-1.913,1.56-2.713,1.655a.068.068,0,0,1-.061,0,.129.129,0,0,1-.122-.027Zm2.3-1.92a.787.787,0,0,0-.543,0,3.459,3.459,0,0,0-1.357,1.58c.875-.21,2.123-.929,2.211-1.357,0-.041,0-.149-.231-.244H98.47Z" transform="translate(-85.824 -229.034)" fill="#d63333"/>
        <path id="Path_427" data-name="Path 427" d="M90.994,392.393l-6.5-2.035a.549.549,0,0,0-.638.251l-2.808,4.924a.909.909,0,0,0,.332,1.248.833.833,0,0,0,.176.081c2.354.678,4.477,1.194,7.393,2.1,3.446,1.058,2.442,1.2,6.471,2.51,2.428.787,3.73-1.852,2.713-2.306-4.551-2.035-4.6-3.636-5.9-5.894A2.184,2.184,0,0,0,90.994,392.393Z" transform="translate(-80.926 -228.664)" fill="#263238"/>
        <path id="Path_428" data-name="Path 428" d="M88.51,382.172l5.426,2.74,2.042-4.653-5.847-2.889Z" transform="translate(-83.366 -224.493)" fill="#263238" opacity="0.2"/>
        <path id="Path_429" data-name="Path 429" d="M113.08,240.85s-7.291,5.569-5.731,23.014a50.461,50.461,0,0,1,.678,5.148,45.941,45.941,0,0,1-.739,4.85c-.583,4.015-1.655,18.992-2.788,20.938s-1.594,1.6-4.748,6.973c-3.391,5.779-7.8,15.912-11.212,33.086a19.126,19.126,0,0,0,7.624,3.195S114.8,308.67,118.757,297.73c3.547-9.787,7.773-41.022,7.773-41.022l.339-13.565Z" transform="translate(-83.376 -180.571)" fill="#d63333"/>
        <path id="Path_430" data-name="Path 430" d="M133.86,274.78h-5.277s-1.736,16.6,4,30.454c.6-2.225,1.2-4.89,1.791-7.773l2.286-14.624c-.326-2.469-.577-4.355-.617-4.477C135.929,277.975,133.86,274.78,133.86,274.78Z" transform="translate(-96.179 -191.487)" opacity="0.1"/>
        <path id="Path_431" data-name="Path 431" d="M135.2,383.31l.034,10.642,6-.4.922-10.242Z" transform="translate(-98.388 -226.405)" fill="#b97964"/>
        <path id="Path_432" data-name="Path 432" d="M145.06,397.464a.147.147,0,0,1-.054-.271c.095-.054,2.218-1.357,3.269-1.126a.794.794,0,0,1,.482.326.57.57,0,0,1,.034.644,2.713,2.713,0,0,1-1.818.536A10.619,10.619,0,0,1,145.06,397.464Zm.475-.21c1.16.1,2.713.034,3-.38.041-.054.075-.142-.041-.326a.407.407,0,0,0-.3-.2.942.942,0,0,0-.278,0,6.58,6.58,0,0,0-2.388.9Z" transform="translate(-101.519 -230.5)" fill="#d63333"/>
        <path id="Path_433" data-name="Path 433" d="M144.965,396.781a.163.163,0,0,1-.075-.136,4.214,4.214,0,0,1,.882-2.442,1.092,1.092,0,0,1,.814-.285c.407,0,.543.231.563.4.156.678-1.289,2.1-2.035,2.455a.1.1,0,0,1-.061,0,.129.129,0,0,1-.088.007ZM146.5,394.2a.76.76,0,0,0-.5.2,3.446,3.446,0,0,0-.76,1.94c.753-.482,1.7-1.574,1.641-1.994,0-.041-.034-.149-.3-.163H146.5Z" transform="translate(-101.505 -229.817)" fill="#d63333"/>
        <path id="Path_434" data-name="Path 434" d="M140.181,396.885l-6.783.244a.549.549,0,0,0-.515.448l-1.031,5.575a.909.909,0,0,0,.719,1.065.965.965,0,0,0,.2,0c2.449-.136,4.619-.346,7.671-.448,3.6-.129,2.713.332,6.939.244,2.557-.061,2.917-2.978,1.831-3.079-4.972-.448-5.541-1.926-7.515-3.629A2.184,2.184,0,0,0,140.181,396.885Z" transform="translate(-97.305 -230.769)" fill="#263238"/>
        <path id="Path_435" data-name="Path 435" d="M135.22,388.818l6.457-.136.482-5.372H135.2Z" transform="translate(-98.388 -226.405)" fill="#263238" opacity="0.2"/>
        <path id="Path_436" data-name="Path 436" d="M128.872,238s-7.278,9.638-1.886,28.487l6.1,27.531s-5.792,12.521-2.713,45.553a27.809,27.809,0,0,0,8.98-.2s6.783-34.883,7.807-46.665c1.133-12.982.454-52.112.454-52.112Z" transform="translate(-95.105 -179.654)" fill="#d63333"/>
        <path id="Path_437" data-name="Path 437" d="M137.16,190.4s-1.126-4.816,6.1-2.713,6.62,6.22,6.62,6.22Z" transform="translate(-98.998 -163.296)" fill="#263238"/>
        <path id="Path_438" data-name="Path 438" d="M137.16,190.4s-1.126-4.816,6.1-2.713,6.62,6.22,6.62,6.22Z" transform="translate(-98.998 -163.296)" opacity="0.4"/>
        <path id="Path_439" data-name="Path 439" d="M150.922,203.678a34.8,34.8,0,0,1-1.357,6.864c-.312,1.3-.6,2.645-.787,4.015-1.024,7.461-1.357,15.322-1.357,15.322a29.749,29.749,0,0,1-23.292-4.619s2.842-2.408,2.259-19.087c-.265-7.515-2.978-16.448,9.442-15.044,10.486,1.187,14.013,4.443,14.861,9.537v.2l.061.475A19.871,19.871,0,0,1,150.922,203.678Z" transform="translate(-94.826 -164.528)" fill="#263238"/>
        <path id="Path_440" data-name="Path 440" d="M160.294,206.673a34.8,34.8,0,0,1-1.357,6.864c-2.835-3.391-5.677-9.8-5.677-9.8l2.34-3.446,4.124,1.919a12.216,12.216,0,0,1,.339,1.452v.2l.061.475A19.865,19.865,0,0,1,160.294,206.673Z" transform="translate(-104.198 -167.522)" opacity="0.4"/>
        <path id="Path_441" data-name="Path 441" d="M167.976,204.125s4.07,4.015,5.677,5.63l14.067-4.219h0a3.676,3.676,0,0,1,2.713-3.093l.99-.258,2.116-.583a2.34,2.34,0,0,1,2.252.59h0a2.32,2.32,0,0,1,.475,2.632h0a5.765,5.765,0,0,1-4.612,3.3l-1.994.21s-12.555,6.857-16.6,6.478-9.353-5.243-9.353-5.243Z" transform="translate(-107.56 -167.918)" fill="#b97964"/>
        <path id="Path_442" data-name="Path 442" d="M153.763,194.58c3.473.509,7.02,3.269,12.528,8.139a16.869,16.869,0,0,1-5.826,6.728s-3.208-1.4-7.034-6.267C148.8,197.293,151.66,194.268,153.763,194.58Z" transform="translate(-103.453 -165.678)" fill="#263238"/>
      </g>
    </g>
  </g>
</svg>
