<svg xmlns="http://www.w3.org/2000/svg" xmlns:xlink="http://www.w3.org/1999/xlink" width="335" height="250" viewBox="0 0 335 250">
  <defs>
    <clipPath id="clip-vc3">
      <rect width="335" height="250"/>
    </clipPath>
  </defs>
  <g id="vc3" clip-path="url(#clip-vc3)">
    <g id="vc2" transform="translate(0 -55)">
      <g id="freepik--background-complete--inject-2" transform="translate(0 55)">
        <rect id="Rectangle_103" data-name="Rectangle 103" width="335.767" height="0.168" transform="translate(0 219.674)" fill="#ebebeb"/>
        <rect id="Rectangle_104" data-name="Rectangle 104" width="22.241" height="0.168" transform="translate(279.882 230.479)" fill="#ebebeb"/>
        <rect id="Rectangle_105" data-name="Rectangle 105" width="5.836" height="0.168" transform="translate(216.59 232.305)" fill="#ebebeb"/>
        <rect id="Rectangle_106" data-name="Rectangle 106" width="12.887" height="0.168" transform="translate(266.324 224.247)" fill="#ebebeb"/>
        <rect id="Rectangle_107" data-name="Rectangle 107" width="29.004" height="0.168" transform="translate(35.229 225.375)" fill="#ebebeb"/>
        <rect id="Rectangle_108" data-name="Rectangle 108" width="4.251" height="0.168" transform="translate(70.216 225.375)" fill="#ebebeb"/>
        <rect id="Rectangle_109" data-name="Rectangle 109" width="62.909" height="0.168" transform="translate(88.287 228.209)" fill="#ebebeb"/>
        <path id="Path_86" data-name="Path 86" d="M171.7,244.91H42.038a3.834,3.834,0,0,1-3.828-3.834V58.8A3.834,3.834,0,0,1,42.038,55H171.7a3.834,3.834,0,0,1,3.834,3.834V241.075A3.835,3.835,0,0,1,171.7,244.91ZM42.038,55.134a3.667,3.667,0,0,0-3.66,3.667V241.075a3.667,3.667,0,0,0,3.66,3.667H171.7a3.673,3.673,0,0,0,3.667-3.667V58.8a3.673,3.673,0,0,0-3.667-3.667Z" transform="translate(-12.551 -55)" fill="#ebebeb"/>
        <path id="Path_87" data-name="Path 87" d="M388.008,244.91H258.334a3.841,3.841,0,0,1-3.835-3.834V58.8a3.841,3.841,0,0,1,3.835-3.8H388.008a3.835,3.835,0,0,1,3.821,3.8V241.075A3.834,3.834,0,0,1,388.008,244.91ZM258.334,55.134a3.673,3.673,0,0,0-3.667,3.667V241.075a3.673,3.673,0,0,0,3.667,3.667H388.008a3.673,3.673,0,0,0,3.667-3.667V58.8a3.673,3.673,0,0,0-3.667-3.667Z" transform="translate(-83.595 -55)" fill="#ebebeb"/>
        <rect id="Rectangle_110" data-name="Rectangle 110" width="71.874" height="74.265" transform="translate(59.955 52.352)" fill="#ebebeb"/>
        <rect id="Rectangle_111" data-name="Rectangle 111" width="71.874" height="74.265" transform="translate(62.466 52.352)" fill="#f0f0f0"/>
        <rect id="Rectangle_112" data-name="Rectangle 112" width="68.161" height="70.78" transform="translate(64.279 54.11)" fill="#e0e0e0"/>
        <rect id="Rectangle_113" data-name="Rectangle 113" width="66.455" height="70.78" transform="translate(64.279 54.11)" fill="#f5f5f5"/>
        <rect id="Rectangle_114" data-name="Rectangle 114" width="1.35" height="70.78" transform="translate(96.842 54.11)" fill="#ebebeb"/>
        <path id="Path_88" data-name="Path 88" d="M122.487,135.67,103.55,206.443h-1.82l18.937-70.773Z" transform="translate(-33.415 -81.56)" fill="#fff"/>
        <rect id="Rectangle_115" data-name="Rectangle 115" width="1.155" height="73.231" transform="translate(97.614 53.016)" fill="#f0f0f0"/>
        <path id="Path_89" data-name="Path 89" d="M113.637,135.67,95.72,202.649V165.835l8.065-30.165Z" transform="translate(-31.441 -81.558)" fill="#fff"/>
        <path id="Path_90" data-name="Path 90" d="M186.255,145.23v6.8l-15.4,57.557h-1.82Z" transform="translate(-55.521 -84.705)" fill="#fff"/>
        <path id="Path_91" data-name="Path 91" d="M188.051,165.66v36.82l-3.7,13.813H174.5Z" transform="translate(-57.317 -91.424)" fill="#fff"/>
        <path id="Path_92" data-name="Path 92" d="M152.4,340.431h15.022l-7.884-64.219a5.728,5.728,0,0,0-5.527-4.922H88.54l9.589,69.168Z" transform="translate(-29.082 -126.23)" fill="#f5f5f5"/>
        <path id="Path_93" data-name="Path 93" d="M101.573,340.43h-15l-7.884-64.219a4.258,4.258,0,0,1,4.318-4.922h5.151a5.728,5.728,0,0,1,5.527,4.922Z" transform="translate(-25.831 -126.23)" fill="#f0f0f0"/>
        <path id="Path_94" data-name="Path 94" d="M103.672,350.924l-2.686-31.065a2.968,2.968,0,0,0-2.579-2.686l-1.115-.141a3.982,3.982,0,0,1-3.458-3.593l-.49-5.661A3.969,3.969,0,0,1,97.3,303.46H72.218a3.969,3.969,0,0,0-3.955,4.318l.5,5.661a3.969,3.969,0,0,0,3.452,3.593l1.115.141a2.968,2.968,0,0,1,2.579,2.686l2.686,31.065a4.392,4.392,0,0,0,4.372,4.029h25.068A4.392,4.392,0,0,1,103.672,350.924Z" transform="translate(-22.417 -136.797)" fill="#e6e6e6"/>
        <path id="Path_95" data-name="Path 95" d="M212.007,312.086a9.442,9.442,0,0,1,9.4-8.616H199.584a9.442,9.442,0,0,0-9.4,8.616L188,336.731h21.825Z" transform="translate(-61.752 -136.801)" fill="#e6e6e6"/>
        <path id="Path_96" data-name="Path 96" d="M204.033,303.47h-9.69a9.442,9.442,0,0,0-9.4,8.616l-2.162,24.645H130.8l-2.156-24.625a9.435,9.435,0,0,0-9.4-8.616h-9.7a3.969,3.969,0,0,0-3.955,4.318l.49,5.661a3.982,3.982,0,0,0,3.458,3.593l1.115.141a2.968,2.968,0,0,1,2.579,2.686l2.686,31.065a4.392,4.392,0,0,0,4.372,4.029h72.969a4.392,4.392,0,0,0,4.372-4.029l2.72-31.065a2.961,2.961,0,0,1,2.572-2.686l1.115-.141a3.976,3.976,0,0,0,3.458-3.593l.5-5.661a3.975,3.975,0,0,0-3.962-4.338Z" transform="translate(-34.678 -136.801)" fill="#f0f0f0"/>
        <rect id="Rectangle_116" data-name="Rectangle 116" width="101.18" height="128.129" transform="translate(292.285 218.129) rotate(180)" fill="#f0f0f0"/>
        <rect id="Rectangle_117" data-name="Rectangle 117" width="94.028" height="27.399" transform="translate(288.712 122.173) rotate(180)" fill="#e0e0e0"/>
        <rect id="Rectangle_118" data-name="Rectangle 118" width="5.339" height="22.96" transform="translate(288.712 122.164) rotate(180)" fill="#ebebeb"/>
        <rect id="Rectangle_119" data-name="Rectangle 119" width="5.339" height="22.96" transform="translate(262.885 122.164) rotate(180)" fill="#ebebeb"/>
        <rect id="Rectangle_120" data-name="Rectangle 120" width="5.339" height="22.96" transform="matrix(-0.985, -0.17, 0.17, -0.985, 229.585, 122.161)" fill="#ebebeb"/>
        <rect id="Rectangle_121" data-name="Rectangle 121" width="5.339" height="19.938" transform="translate(282.091 122.163) rotate(180)" fill="#ebebeb"/>
        <rect id="Rectangle_122" data-name="Rectangle 122" width="5.339" height="19.938" transform="translate(269.816 122.163) rotate(180)" fill="#ebebeb"/>
        <rect id="Rectangle_123" data-name="Rectangle 123" width="5.339" height="19.938" transform="translate(238.824 122.163) rotate(180)" fill="#ebebeb"/>
        <rect id="Rectangle_124" data-name="Rectangle 124" width="5.339" height="19.938" transform="translate(251.426 122.157) rotate(-167.47)" fill="#ebebeb"/>
        <rect id="Rectangle_125" data-name="Rectangle 125" width="2.673" height="24.101" transform="translate(274.798 122.172) rotate(180)" fill="#ebebeb"/>
        <rect id="Rectangle_126" data-name="Rectangle 126" width="2.673" height="24.101" transform="translate(243.021 122.178) rotate(180)" fill="#ebebeb"/>
        <rect id="Rectangle_127" data-name="Rectangle 127" width="94.028" height="27.399" transform="translate(194.678 126.476)" fill="#e0e0e0"/>
        <rect id="Rectangle_128" data-name="Rectangle 128" width="5.339" height="22.96" transform="translate(194.678 130.913)" fill="#ebebeb"/>
        <rect id="Rectangle_129" data-name="Rectangle 129" width="5.339" height="22.96" transform="translate(220.512 130.913)" fill="#ebebeb"/>
        <rect id="Rectangle_130" data-name="Rectangle 130" width="5.363" height="23.063" transform="translate(251.071 131.963) rotate(-9.744)" fill="#ebebeb"/>
        <rect id="Rectangle_131" data-name="Rectangle 131" width="5.339" height="19.938" transform="translate(201.299 133.941)" fill="#ebebeb"/>
        <rect id="Rectangle_132" data-name="Rectangle 132" width="5.339" height="19.938" transform="translate(213.575 133.941)" fill="#ebebeb"/>
        <rect id="Rectangle_133" data-name="Rectangle 133" width="5.339" height="19.938" transform="translate(244.566 133.941)" fill="#ebebeb"/>
        <rect id="Rectangle_134" data-name="Rectangle 134" width="5.339" height="19.938" transform="translate(227.658 134.406) rotate(-12.53)" fill="#ebebeb"/>
        <rect id="Rectangle_135" data-name="Rectangle 135" width="2.673" height="24.101" transform="translate(208.592 129.772)" fill="#ebebeb"/>
        <rect id="Rectangle_136" data-name="Rectangle 136" width="2.673" height="24.101" transform="translate(240.362 129.772)" fill="#ebebeb"/>
        <rect id="Rectangle_137" data-name="Rectangle 137" width="5.339" height="22.96" transform="translate(288.712 153.873) rotate(180)" fill="#ebebeb"/>
        <rect id="Rectangle_138" data-name="Rectangle 138" width="5.339" height="19.938" transform="translate(282.091 153.872) rotate(180)" fill="#ebebeb"/>
        <rect id="Rectangle_139" data-name="Rectangle 139" width="5.339" height="19.938" transform="translate(269.816 153.872) rotate(180)" fill="#ebebeb"/>
        <rect id="Rectangle_140" data-name="Rectangle 140" width="2.673" height="24.101" transform="translate(274.798 153.88) rotate(180)" fill="#ebebeb"/>
        <rect id="Rectangle_141" data-name="Rectangle 141" width="94.028" height="27.399" transform="translate(288.712 185.589) rotate(180)" fill="#e0e0e0"/>
        <rect id="Rectangle_142" data-name="Rectangle 142" width="5.339" height="22.96" transform="translate(234.741 185.581) rotate(180)" fill="#ebebeb"/>
        <rect id="Rectangle_143" data-name="Rectangle 143" width="5.339" height="22.96" transform="matrix(-0.985, -0.17, 0.17, -0.985, 201.446, 185.579)" fill="#ebebeb"/>
        <rect id="Rectangle_144" data-name="Rectangle 144" width="5.339" height="19.938" transform="translate(253.947 185.581) rotate(180)" fill="#ebebeb"/>
        <rect id="Rectangle_145" data-name="Rectangle 145" width="5.339" height="19.938" transform="translate(241.672 185.581) rotate(180)" fill="#ebebeb"/>
        <rect id="Rectangle_146" data-name="Rectangle 146" width="5.339" height="19.938" transform="translate(210.68 185.581) rotate(180)" fill="#ebebeb"/>
        <rect id="Rectangle_147" data-name="Rectangle 147" width="5.339" height="19.938" transform="translate(223.287 185.577) rotate(-167.47)" fill="#ebebeb"/>
        <rect id="Rectangle_148" data-name="Rectangle 148" width="2.673" height="24.101" transform="translate(246.661 185.588) rotate(180)" fill="#ebebeb"/>
        <rect id="Rectangle_149" data-name="Rectangle 149" width="2.673" height="24.101" transform="translate(214.891 185.588) rotate(180)" fill="#ebebeb"/>
        <rect id="Rectangle_150" data-name="Rectangle 150" width="5.339" height="22.96" transform="matrix(-0.985, -0.17, 0.17, -0.985, 262.898, 185.576)" fill="#ebebeb"/>
        <rect id="Rectangle_151" data-name="Rectangle 151" width="5.339" height="19.938" transform="translate(272.132 185.581) rotate(180)" fill="#ebebeb"/>
        <rect id="Rectangle_152" data-name="Rectangle 152" width="5.339" height="19.938" transform="translate(284.739 185.568) rotate(-167.47)" fill="#ebebeb"/>
        <rect id="Rectangle_153" data-name="Rectangle 153" width="2.673" height="24.101" transform="translate(276.343 185.588) rotate(180)" fill="#ebebeb"/>
        <path id="Path_97" data-name="Path 97" d="M407.182,179.538v-1.9H404.1a36.074,36.074,0,0,0,1.135-18.058s.04,7.884-3.008,7.938c-4.654.087-5-7.937-5-7.937s-1.121,11.483,3.056,18.058h-3.19v1.9Z" transform="translate(-130.429 -89.413)" fill="#e0e0e0"/>
        <path id="Path_98" data-name="Path 98" d="M399.22,166.106a2.686,2.686,0,1,0,2.686-2.686A2.686,2.686,0,0,0,399.22,166.106Z" transform="translate(-131.13 -90.672)" fill="#e0e0e0"/>
        <path id="Path_99" data-name="Path 99" d="M375.608,180.057v-1.108l-3.257-1.518,1.632-1.585-4.029-14.3v8.911s.557,0,.557,1.283-1.847.987-1.847-.074.6-1.209.6-1.209V161.16l-3.707,14.156,1.665,2.115-3.358,1.518v1.108Z" transform="translate(-119.519 -89.932)" fill="#e0e0e0"/>
        <path id="Path_100" data-name="Path 100" d="M345.974,180.353v-.88l-3-.685V165.659l-2.572-3.6-2.2,2.82V170.9l-1.135-1.578-1.592-.6-1.135,2.485,2.424,7.582-2.424.685v.88Z" transform="translate(-109.823 -90.228)" fill="#e0e0e0"/>
        <path id="Path_101" data-name="Path 101" d="M314.084,180.755l-3.68-18.7H299.136l2.673,10.6-3.949,7.689Z" transform="translate(-97.837 -90.228)" fill="#e0e0e0"/>
        <circle id="Ellipse_3" data-name="Ellipse 3" cx="15.815" cy="15.815" r="15.815" transform="translate(226.859 30.578) rotate(-13.28)" fill="#e0e0e0"/>
        <circle id="Ellipse_4" data-name="Ellipse 4" cx="13.451" cy="13.451" r="13.451" transform="translate(230.451 31.189) rotate(-9.22)" fill="#f0f0f0"/>
        <path id="Path_102" data-name="Path 102" d="M367.09,104.29v9.4l6.232-3.526" transform="translate(-120.577 -71.19)" fill="#f0f0f0"/>
        <path id="Path_103" data-name="Path 103" d="M366.761,114.035a.665.665,0,0,1-.672-.672v-9.4a.672.672,0,1,1,1.343,0v8.253l5.231-2.961a.674.674,0,0,1,.672,1.168l-6.232,3.526A.672.672,0,0,1,366.761,114.035Z" transform="translate(-120.248 -70.862)" fill="#e0e0e0"/>
      </g>
      <g id="freepik--Shadow--inject-2" transform="translate(37.68 289.796)">
        <ellipse id="freepik--path--inject-2" cx="130.204" cy="7.602" rx="130.204" ry="7.602" fill="#f5f5f5"/>
      </g>
      <g id="freepik--Plant--inject-2" transform="translate(52.128 194.563)">
        <path id="Path_104" data-name="Path 104" d="M96.476,344.741h0a.269.269,0,0,1-.235-.3c0-.047.04-.564.081-1.457.074-1.343.181-4.13.141-7.87a1.291,1.291,0,0,0,0-.161c-.054-4.177-.275-8.287-.672-12.229-.363-3.673-.88-7.239-1.538-10.6a84.913,84.913,0,0,0-2.142-8.569h0c-.128-.416-.262-.826-.4-1.242s-.228-.672-.349-1.014c-.3-.88-.584-1.719-.826-2.5-.537-1.712-1.007-3.425-1.41-5.083-.242-1-.457-1.981-.672-2.921a63.924,63.924,0,0,1-1.215-10.792c-.04-1.43,0-2.854.06-4.231a40.763,40.763,0,0,1,.463-4.331.57.57,0,0,1,.047-.282v-.134a.309.309,0,0,1,.074-.181.269.269,0,0,1,.376,0,.289.289,0,0,1,.074.262h0v.141a.665.665,0,0,1-.047.3,39.509,39.509,0,0,0-.457,4.264c-.081,1.343-.1,2.78-.06,4.19a62.911,62.911,0,0,0,1.209,10.7c.175.933.389,1.907.631,2.894.4,1.652.866,3.358,1.4,5.057.235.772.51,1.6.819,2.478.121.343.235.672.349,1.021s.269.833.4,1.249h0a84.774,84.774,0,0,1,2.156,8.629c.672,3.358,1.182,6.964,1.545,10.657.4,3.949.618,8.058.672,12.262v.188c.04,3.74-.074,6.547-.141,7.884-.04.907-.074,1.451-.081,1.5A.275.275,0,0,1,96.476,344.741Z" transform="translate(-80.778 -265.624)" fill="#d63333"/>
        <path id="Path_105" data-name="Path 105" d="M88.52,270.317h0a8.146,8.146,0,0,1,1.464-1.122,7.835,7.835,0,0,1,1.84-.786" transform="translate(-81.203 -264.847)" fill="#d63333"/>
        <path id="Path_106" data-name="Path 106" d="M88.39,270.44a.2.2,0,0,1-.107,0,.255.255,0,0,1-.134-.343.168.168,0,0,1,.054-.081h0a7.982,7.982,0,0,1,1.5-1.155A8.3,8.3,0,0,1,91.647,268a.262.262,0,0,1,.322.181.269.269,0,0,1-.181.329,7.5,7.5,0,0,0-1.786.766,8.228,8.228,0,0,0-1.41,1.074h0A.276.276,0,0,1,88.39,270.44Z" transform="translate(-81.074 -264.708)" fill="#d63333"/>
        <path id="Path_107" data-name="Path 107" d="M86.741,277.611a.235.235,0,0,1-.168-.06l-1.78-1.477a.262.262,0,1,1,.336-.4l1.786,1.477a.262.262,0,0,1,0,.369.255.255,0,0,1-.175.094Z" transform="translate(-79.948 -267.212)" fill="#d63333"/>
        <path id="Path_108" data-name="Path 108" d="M92.372,310.453a.282.282,0,0,1-.262-.275h0a7.226,7.226,0,0,1,1.343-3.284,6.926,6.926,0,0,1,1.068-1.155.264.264,0,1,1,.342.4,6.449,6.449,0,0,0-.987,1.095,6.515,6.515,0,0,0-.907,1.706,6.179,6.179,0,0,0-.336,1.289.248.248,0,0,1-.248.255Z" transform="translate(-82.383 -277.088)" fill="#d63333"/>
        <path id="Path_109" data-name="Path 109" d="M93.353,318.362a.269.269,0,0,1-.242-.161,4.452,4.452,0,0,0-2.639-2.384.275.275,0,0,1-.168-.336.269.269,0,0,1,.336-.168A5,5,0,0,1,93.595,318a.262.262,0,0,1-.134.349.2.2,0,0,1-.107.013Z" transform="translate(-81.786 -280.249)" fill="#d63333"/>
        <path id="Path_110" data-name="Path 110" d="M100.062,352.293c-.6-.672-1.155-3.284-1.45-4.7-.074-.336-.128-.625-.181-.833" transform="translate(-84.458 -290.583)" fill="#d63333"/>
        <path id="Path_111" data-name="Path 111" d="M99.937,352.4a.262.262,0,0,1-.2-.087c-.6-.671-1.095-2.834-1.511-4.808-.067-.336-.128-.618-.175-.826a.269.269,0,0,1,.517-.121c.047.208.107.5.181.833.269,1.283.826,3.955,1.383,4.566a.269.269,0,0,1,0,.376A.248.248,0,0,1,99.937,352.4Z" transform="translate(-84.333 -290.461)" fill="#d63333"/>
        <path id="Path_112" data-name="Path 112" d="M90.266,297.9a.262.262,0,0,1-.262-.242c-.013-.43-.685-10.657,4.922-14.686a.268.268,0,0,1,.369.054.262.262,0,0,1-.06.369c-5.372,3.908-4.7,14.149-4.7,14.25a.262.262,0,0,1-.248.282Z" transform="translate(-81.681 -269.615)" fill="#d63333"/>
        <path id="Path_113" data-name="Path 113" d="M91.082,336.214c-.672,2.471,4.808,6.883,4.808,6.883s6.917-1.175,7.561-3.646-1.289-6.379-4.7-7.273S91.727,333.743,91.082,336.214Z" transform="translate(-82.026 -285.731)" fill="#d63333"/>
        <path id="Path_114" data-name="Path 114" d="M80.363,291.073c.779,2.559,5.836,4.184,5.836,4.184s3.291-4.17,2.512-6.715-3.66-5.292-5.963-4.587S79.584,288.515,80.363,291.073Z" transform="translate(-78.432 -269.916)" fill="#d63333"/>
        <path id="Path_115" data-name="Path 115" d="M98.178,302.927a6.782,6.782,0,0,1-2.082,1.3,2.263,2.263,0,0,1-2.3-.436,2.744,2.744,0,0,1-.195-2.888c.752-1.88,3.693-5.131,6.1-4.345C103.167,297.709,99.648,301.732,98.178,302.927Z" transform="translate(-82.769 -274.054)" fill="#d63333"/>
        <path id="Path_116" data-name="Path 116" d="M87.9,312.214c.47.53.98,1.215.759,1.894a1.424,1.424,0,0,1-1.538.839A4.258,4.258,0,0,1,85.4,314.2c-1.236-.786-3.787-2.431-2.283-4.143S86.915,311.086,87.9,312.214Z" transform="translate(-79.276 -278.345)" fill="#d63333"/>
        <path id="Path_117" data-name="Path 117" d="M101.4,278.078a1.242,1.242,0,0,1,1.168.866c.128.591-.342,1.142-.806,1.531-1.162.974-4.647,3.62-5.554,1.256C95.32,279.495,99.779,277.977,101.4,278.078Z" transform="translate(-83.692 -268.021)" fill="#d63333"/>
        <path id="Path_118" data-name="Path 118" d="M92.443,266.638c.745.034,1.471-.262,2.216-.248s1.6.577,1.464,1.31-.947.94-1.632,1.014a13.716,13.716,0,0,1-3.519-.087,1.108,1.108,0,0,1-.725-.329c-.322-.43.128-1.048.672-1.229a6.97,6.97,0,0,0,1.538-.436Z" transform="translate(-81.735 -264.184)" fill="#d63333"/>
        <path id="Path_119" data-name="Path 119" d="M81.3,274.731c-.739.054-1.477-.228-2.223-.2s-1.585.611-1.437,1.343.974.92,1.659.98a13.372,13.372,0,0,0,3.512-.168,1.088,1.088,0,0,0,.725-.342c.309-.436-.154-1.041-.672-1.209a7.4,7.4,0,0,1-1.551-.4Z" transform="translate(-77.625 -266.857)" fill="#d63333"/>
        <path id="Path_120" data-name="Path 120" d="M87.817,270.892h0a.269.269,0,0,1-.242-.282c.1-1.451-.054-2.841-.329-2.921a.269.269,0,1,1,.148-.51c.839.242.772,2.5.672,3.465A.262.262,0,0,1,87.817,270.892Z" transform="translate(-80.708 -264.434)" fill="#d63333"/>
        <path id="Path_121" data-name="Path 121" d="M86.414,266.157a6.386,6.386,0,0,0-1.947-2.632,2.2,2.2,0,0,0-2.968.322c-.672,1.034.107,2.518,1.249,3a6.376,6.376,0,0,0,3.653.04v-.544Z" transform="translate(-78.815 -263.105)" fill="#d63333"/>
        <path id="Path_122" data-name="Path 122" d="M102.1,387.352h-.047a.269.269,0,0,1-.215-.309c1.773-9.469,7.159-13.6,7.219-13.639a.264.264,0,1,1,.316.423c-.054.04-5.278,4.063-7.011,13.31A.269.269,0,0,1,102.1,387.352Z" transform="translate(-85.577 -299.317)" fill="#d63333"/>
        <path id="Path_123" data-name="Path 123" d="M110.386,376a.262.262,0,0,1-.094-.51,5.856,5.856,0,0,1,2.787-.1.269.269,0,0,1-.087.524,5.373,5.373,0,0,0-2.512.074A.229.229,0,0,1,110.386,376Z" transform="translate(-88.296 -299.947)" fill="#d63333"/>
        <path id="Path_124" data-name="Path 124" d="M108.61,375.189a.262.262,0,0,1-.262-.255,11.53,11.53,0,0,1,1.813-6.541.262.262,0,0,1,.369-.067.269.269,0,0,1,.067.369,11.174,11.174,0,0,0-1.719,6.212.269.269,0,0,1-.255.282Z" transform="translate(-87.715 -297.65)" fill="#d63333"/>
        <path id="Path_125" data-name="Path 125" d="M105.794,382.447a.262.262,0,0,1-.181-.074.269.269,0,0,1,0-.376,3.734,3.734,0,0,1,3.66-.893.269.269,0,0,1,.175.329.262.262,0,0,1-.329.175,3.264,3.264,0,0,0-3.129.759.255.255,0,0,1-.195.081Z" transform="translate(-86.792 -301.812)" fill="#d63333"/>
        <path id="Path_126" data-name="Path 126" d="M104.047,384a.269.269,0,0,1-.242-.148,8.8,8.8,0,0,1-.564-4.486.269.269,0,0,1,.531.067,8.4,8.4,0,0,0,.51,4.19.262.262,0,0,1-.235.376Z" transform="translate(-86.012 -301.224)" fill="#d63333"/>
        <path id="Path_127" data-name="Path 127" d="M102.334,381.179c0,.04-.195.242.564.3,1.867.121,5.157.081,6.353-1.5,1.7-2.256-2.371-2.149-2.015-3.411s4.768-.114,5.574-1.907-2.377-1.518-2.256-2.444,3.5.363,4.546-1.538-1.847-.94-1.4-1.726,4.029-4.029,2.538-4.788-4.909,2.6-6.044,2.941-1.5-3.062-2.982-1.968-.336,6.259-2.075,6.85c-1.3.443-.672-1.377-2.256-1.343C100.716,370.669,100.206,377.848,102.334,381.179Z" transform="translate(-85.294 -296.26)" fill="#d63333"/>
        <g id="Group_4" data-name="Group 4" transform="translate(15.68 67.784)" opacity="0.3">
          <path id="Path_128" data-name="Path 128" d="M102.334,381.179c0,.04-.195.242.564.3,1.867.121,5.157.081,6.353-1.5,1.7-2.256-2.371-2.149-2.015-3.411s4.768-.114,5.574-1.907-2.377-1.518-2.256-2.444,3.5.363,4.546-1.538-1.847-.94-1.4-1.726,4.029-4.029,2.538-4.788-4.909,2.6-6.044,2.941-1.5-3.062-2.982-1.968-.336,6.259-2.075,6.85c-1.3.443-.672-1.377-2.256-1.343C100.716,370.669,100.206,377.848,102.334,381.179Z" transform="translate(-100.974 -364.044)" fill="#fff"/>
        </g>
        <path id="Path_129" data-name="Path 129" d="M98.049,387.915a.262.262,0,0,1-.255-.2,28.943,28.943,0,0,0-7.562-12.873.269.269,0,1,1,.356-.4A29.547,29.547,0,0,1,98.3,387.579a.262.262,0,0,1-.188.322Z" transform="translate(-81.728 -299.645)" fill="#d63333"/>
        <path id="Path_130" data-name="Path 130" d="M93.46,380.285h-.094a7.205,7.205,0,0,0-2.894-.437.262.262,0,1,1,0-.524,7.79,7.79,0,0,1,3.109.463h0a.262.262,0,0,1-.074.517Zm.074-.517h.06ZM93.534,379.767Z" transform="translate(-81.758 -301.275)" fill="#d63333"/>
        <path id="Path_131" data-name="Path 131" d="M95.743,379.676h0a.262.262,0,0,1-.255-.275,9.778,9.778,0,0,0-1.511-5.453.263.263,0,0,1,.43-.3,10.073,10.073,0,0,1,1.585,5.782A.262.262,0,0,1,95.743,379.676Z" transform="translate(-82.98 -299.377)" fill="#d63333"/>
        <path id="Path_132" data-name="Path 132" d="M96.685,384.632a.269.269,0,0,1-.181-.074,2.915,2.915,0,0,0-2.74-.551.262.262,0,0,1-.329-.175.269.269,0,0,1,.175-.329,3.432,3.432,0,0,1,3.257.672.262.262,0,0,1-.181.457Z" transform="translate(-82.814 -302.6)" fill="#d63333"/>
        <path id="Path_133" data-name="Path 133" d="M100.29,387.407a.222.222,0,0,1-.114,0,.262.262,0,0,1-.128-.349,7.44,7.44,0,0,0,.443-3.693.269.269,0,0,1,.235-.3.262.262,0,0,1,.3.228,7.722,7.722,0,0,1-.5,3.982.249.249,0,0,1-.235.128Z" transform="translate(-84.982 -302.508)" fill="#d63333"/>
        <path id="Path_134" data-name="Path 134" d="M96.2,385.239a7.537,7.537,0,0,1-4.983-2.4c-1.027-1.263,1.759-.578,1.43-1.605s-3.7-.107-4.392-1.565,1.78-1.222,1.645-1.981-2.686-.49-3.552-2.015,1.39-.752,1.014-1.4-3.3-3.27-2.156-3.895,3.9,2.129,4.795,2.411,1.014-1.712,2.2-.813.51,5.077,1.887,5.567c1.021.363.51-1.518,1.686-1.088C97.835,377.194,96.787,385.206,96.2,385.239Z" transform="translate(-80.029 -298.312)" fill="#d63333"/>
        <g id="Group_5" data-name="Group 5" transform="translate(4.916 71.981)" opacity="0.2">
          <path id="Path_135" data-name="Path 135" d="M96.2,385.239a7.537,7.537,0,0,1-4.983-2.4c-1.027-1.263,1.759-.578,1.43-1.605s-3.7-.107-4.392-1.565,1.78-1.222,1.645-1.981-2.686-.49-3.552-2.015,1.39-.752,1.014-1.4-3.3-3.27-2.156-3.895,3.9,2.129,4.795,2.411,1.014-1.712,2.2-.813.51,5.077,1.887,5.567c1.021.363.51-1.518,1.686-1.088C97.835,377.194,96.787,385.206,96.2,385.239Z" transform="translate(-84.945 -370.293)" fill="#fff"/>
        </g>
        <path id="Path_136" data-name="Path 136" d="M106.463,392.338c0,6.977,3.082,12.638-12.638,12.638-13.968,0-12.632-5.661-12.632-12.638s5.654-8.958,12.632-8.958S106.463,385.354,106.463,392.338Z" transform="translate(-78.785 -302.611)" fill="#263238"/>
        <rect id="Rectangle_154" data-name="Rectangle 154" width="27.976" height="6.924" transform="translate(1.071 80.635)" fill="#263238"/>
        <rect id="Rectangle_155" data-name="Rectangle 155" width="27.976" height="6.924" transform="translate(1.071 80.635)" fill="#fff" opacity="0.2"/>
      </g>
      <g id="freepik--Books--inject-2" transform="translate(153.298 283.867)">
        <path id="Path_137" data-name="Path 137" d="M257.827,410.646a8.3,8.3,0,0,1-.671,3.653H228.28v-.672h.584v-5.956h-.584V407h28.876a8.529,8.529,0,0,1,.672,3.646Z" transform="translate(-228.28 -399.674)" fill="#263238"/>
        <path id="Path_138" data-name="Path 138" d="M257.827,410.646a8.3,8.3,0,0,1-.671,3.653H228.28v-.672h.584v-5.956h-.584V407h28.876a8.529,8.529,0,0,1,.672,3.646Z" transform="translate(-228.28 -399.674)" fill="#fff" opacity="0.2"/>
        <path id="Path_139" data-name="Path 139" d="M242.382,410.646a8.3,8.3,0,0,1-.672,3.653H228.28v-.672h.584v-5.956h-.584V407h13.431a8.529,8.529,0,0,1,.672,3.646Z" transform="translate(-228.28 -399.674)" opacity="0.2"/>
        <path id="Path_140" data-name="Path 140" d="M241.248,410.975a6.756,6.756,0,0,1-.544,2.968H229.16V408H240.7A6.951,6.951,0,0,1,241.248,410.975Z" transform="translate(-228.569 -400.002)" fill="#fff" opacity="0.8"/>
        <path id="Path_141" data-name="Path 141" d="M262.324,410.64a8.3,8.3,0,0,1-.672,3.653H256.28a8.3,8.3,0,0,0,.672-3.653,8.527,8.527,0,0,0-.672-3.66h5.372A8.528,8.528,0,0,1,262.324,410.64Z" transform="translate(-237.477 -399.667)" fill="#fff" opacity="0.6"/>
        <path id="Path_142" data-name="Path 142" d="M261.658,399.763a8.3,8.3,0,0,1-.672,3.653H232.11v-.672h.6V396.8h-.584v-.672H261a8.527,8.527,0,0,1,.658,3.633Z" transform="translate(-229.538 -396.103)" fill="#d63333"/>
        <path id="Path_143" data-name="Path 143" d="M246.212,399.763a8.3,8.3,0,0,1-.672,3.653H232.11v-.672h.6V396.8h-.584v-.672h13.431A8.527,8.527,0,0,1,246.212,399.763Z" transform="translate(-229.538 -396.103)" opacity="0.2"/>
        <path id="Path_144" data-name="Path 144" d="M245.088,400.085a6.756,6.756,0,0,1-.544,2.968H233V397.11h11.544A6.95,6.95,0,0,1,245.088,400.085Z" transform="translate(-229.83 -396.425)" fill="#fff" opacity="0.8"/>
        <path id="Path_145" data-name="Path 145" d="M266.154,399.75a8.3,8.3,0,0,1-.672,3.653H260.11a8.3,8.3,0,0,0,.672-3.653,8.528,8.528,0,0,0-.672-3.66h5.372A8.53,8.53,0,0,1,266.154,399.75Z" transform="translate(-238.735 -396.09)" opacity="0.2"/>
      </g>
      <g id="freepik--Screen--inject-2" transform="translate(78.126 137.682)">
        <path id="Path_146" data-name="Path 146" d="M264.218,180.107v99.515a1.827,1.827,0,0,1-1.827,1.827H118.167a1.827,1.827,0,0,1-1.827-1.827V180.107a1.827,1.827,0,0,1,1.827-1.827H262.392A1.827,1.827,0,0,1,264.218,180.107Z" transform="translate(-116.34 -178.28)" fill="#d63333"/>
        <path id="Path_147" data-name="Path 147" d="M264.218,187.47v95.17a1.827,1.827,0,0,1-1.827,1.827H118.167a1.827,1.827,0,0,1-1.827-1.827V187.47Z" transform="translate(-116.34 -181.299)" fill="#fff" opacity="0.4"/>
        <path id="Path_148" data-name="Path 148" d="M264.218,323.16v4.029a1.827,1.827,0,0,1-1.827,1.827H118.167a1.827,1.827,0,0,1-1.827-1.827V323.16Z" transform="translate(-116.34 -225.868)" opacity="0.2"/>
        <circle id="Ellipse_5" data-name="Ellipse 5" cx="1.262" cy="1.262" r="1.262" transform="translate(142.956 1.981)" fill="#fff" opacity="0.4"/>
        <circle id="Ellipse_6" data-name="Ellipse 6" cx="1.262" cy="1.262" r="1.262" transform="translate(138.175 1.981)" fill="#fff" opacity="0.4"/>
        <path id="Path_149" data-name="Path 149" d="M317.5,182.492a1.262,1.262,0,1,1-1.262-1.262A1.263,1.263,0,0,1,317.5,182.492Z" transform="translate(-181.586 -179.249)" fill="#fff" opacity="0.4"/>
        <g id="Group_6" data-name="Group 6" transform="translate(15.271 15.841)" opacity="0.5">
          <path id="Path_150" data-name="Path 150" d="M142.579,202.36v4.076H142.1l-2.444-3.035v3.035h-.578V202.36h.477L142,205.4V202.36Z" transform="translate(-139.08 -202.031)"/>
          <path id="Path_151" data-name="Path 151" d="M148.622,205.549h-2.5a1.041,1.041,0,0,0,1.115.907,1.169,1.169,0,0,0,.893-.376l.309.363a1.565,1.565,0,0,1-1.222.5,1.545,1.545,0,0,1-1.659-1.578,1.511,1.511,0,0,1,1.551-1.571,1.491,1.491,0,0,1,1.524,1.592A1.534,1.534,0,0,1,148.622,205.549Zm-2.5-.4H148.1a.994.994,0,0,0-1.974,0Z" transform="translate(-141.208 -202.5)"/>
          <path id="Path_152" data-name="Path 152" d="M155.644,203.84l-1.155,3.082h-.537l-.886-2.3-.886,2.3h-.537L150.5,203.84h.531l.893,2.458.933-2.458h.47l.913,2.465.92-2.465Z" transform="translate(-142.831 -202.517)"/>
          <path id="Path_153" data-name="Path 153" d="M163.962,205.549h-2.5a1.041,1.041,0,0,0,1.115.907,1.168,1.168,0,0,0,.893-.376l.309.363a1.565,1.565,0,0,1-1.215.5,1.545,1.545,0,0,1-1.659-1.578,1.511,1.511,0,0,1,1.545-1.571,1.491,1.491,0,0,1,1.524,1.592A1.469,1.469,0,0,1,163.962,205.549Zm-2.5-.4h2.015a1.007,1.007,0,0,0-2.015,0Z" transform="translate(-146.246 -202.5)"/>
          <path id="Path_154" data-name="Path 154" d="M169.568,205.131V206.9h-.557v-1.712c0-.6-.3-.9-.833-.9a.913.913,0,0,0-.974,1.027V206.9h-.564v-3.082h.537v.463a1.343,1.343,0,0,1,1.115-.5,1.2,1.2,0,0,1,1.276,1.343Z" transform="translate(-148.133 -202.499)"/>
          <path id="Path_155" data-name="Path 155" d="M174.049,206.413a1.041,1.041,0,0,1-.672.215.88.88,0,0,1-.974-.967v-1.692h-.524v-.457h.524v-.672h.557v.672h.886v.457h-.886v1.665a.457.457,0,0,0,.483.517.712.712,0,0,0,.437-.148Z" transform="translate(-149.854 -202.188)"/>
          <path id="Path_156" data-name="Path 156" d="M177.769,203.787v.544h-.128a.927.927,0,0,0-.974,1.041v1.538h-.557v-3.082h.537v.517a1.175,1.175,0,0,1,1.121-.557Z" transform="translate(-151.243 -202.497)"/>
          <path id="Path_157" data-name="Path 157" d="M179.46,202.239a.363.363,0,1,1,.363.356A.363.363,0,0,1,179.46,202.239Zm.094.954h.564v3.082h-.564Z" transform="translate(-152.343 -201.87)"/>
          <path id="Path_158" data-name="Path 158" d="M184.655,205.549h-2.5a1.041,1.041,0,0,0,1.115.907,1.168,1.168,0,0,0,.893-.376l.309.363a1.565,1.565,0,0,1-1.215.5,1.544,1.544,0,0,1-1.659-1.578,1.536,1.536,0,1,1,3.069.02A1.545,1.545,0,0,1,184.655,205.549Zm-2.5-.4h1.974a.994.994,0,0,0-1.974,0Z" transform="translate(-153.046 -202.5)"/>
          <path id="Path_159" data-name="Path 159" d="M186.74,206.624l.235-.443a2.015,2.015,0,0,0,1.081.316c.517,0,.732-.154.732-.416,0-.672-1.947-.094-1.947-1.343,0-.551.5-.927,1.283-.927a2.263,2.263,0,0,1,1.128.282l-.242.443a1.578,1.578,0,0,0-.886-.242c-.49,0-.732.175-.732.423,0,.725,1.954.134,1.954,1.343,0,.564-.51.913-1.343.913a2.25,2.25,0,0,1-1.262-.349Z" transform="translate(-154.735 -202.507)"/>
        </g>
        <path id="Path_160" data-name="Path 160" d="M132.438,204.612A2.619,2.619,0,1,1,129.826,202,2.619,2.619,0,0,1,132.438,204.612Z" transform="translate(-119.907 -186.071)" opacity="0.2"/>
        <path id="Path_161" data-name="Path 161" d="M130.9,206.669a.336.336,0,0,1-.336-.336v-2.377a.336.336,0,1,1,.672,0v2.377A.336.336,0,0,1,130.9,206.669Z" transform="translate(-121.011 -186.603)" fill="#fff"/>
        <path id="Path_162" data-name="Path 162" d="M131.5,206.061h-2.377a.336.336,0,1,1,0-.672H131.5a.336.336,0,1,1,0,.672Z" transform="translate(-120.429 -187.185)" fill="#fff"/>
        <rect id="Rectangle_156" data-name="Rectangle 156" width="33.201" height="21.55" rx="2.96" transform="translate(106.075 31.596)" opacity="0.2"/>
        <path id="Path_163" data-name="Path 163" d="M302.865,232.384h-3.136a.987.987,0,0,1-.913-.611l-.672-1.571a.98.98,0,0,0-.907-.611H289.85a.987.987,0,0,0-.906.611l-.672,1.571a.987.987,0,0,1-.907.611h-3.143a1.793,1.793,0,0,0-1.793,1.793v9.032A1.8,1.8,0,0,0,284.223,245h18.595a1.793,1.793,0,0,0,1.793-1.793v-9.032a1.786,1.786,0,0,0-1.746-1.793Zm-9.294,9.4a2.99,2.99,0,1,1-.013.013Z" transform="translate(-170.895 -195.134)" fill="#fff"/>
        <g id="Group_7" data-name="Group 7" transform="translate(118.566 28.258)" opacity="0.5">
          <path id="Path_164" data-name="Path 164" d="M292.9,220.36h.269v1.874H292.9Z" transform="translate(-292.9 -220.36)"/>
          <path id="Path_165" data-name="Path 165" d="M296.444,221.617v.819h-.262v-.772c0-.282-.134-.416-.363-.416a.41.41,0,0,0-.43.47v.732h-.255v-.786c0-.282-.134-.416-.369-.416a.416.416,0,0,0-.43.47v.732h-.255v-1.457h.248v.208a.564.564,0,0,1,.49-.222.51.51,0,0,1,.49.262.671.671,0,0,1,.551-.262.544.544,0,0,1,.584.638Z" transform="translate(-293.288 -220.563)"/>
          <path id="Path_166" data-name="Path 166" d="M299.392,221.59v.86h-.248v-.188a.5.5,0,0,1-.463.208c-.322,0-.531-.175-.531-.423s.148-.416.577-.416h.4v-.047c0-.222-.121-.342-.376-.342a.732.732,0,0,0-.457.148l-.107-.188a.94.94,0,0,1,.591-.181A.524.524,0,0,1,299.392,221.59Zm-.262.43v-.2h-.41c-.255,0-.329.1-.329.222s.121.228.316.228a.41.41,0,0,0,.416-.248Z" transform="translate(-294.624 -220.576)"/>
          <path id="Path_167" data-name="Path 167" d="M302.037,221v1.229a.672.672,0,0,1-.739.725,1.034,1.034,0,0,1-.672-.208l.121-.2a.88.88,0,0,0,.551.188c.336,0,.49-.154.49-.477v-.114a.668.668,0,1,1,.013-.893V221Zm-.255.671a.457.457,0,0,0-.484-.463.463.463,0,0,0,0,.927.457.457,0,0,0,.484-.463Z" transform="translate(-295.429 -220.57)"/>
          <path id="Path_168" data-name="Path 168" d="M304.689,221.825h-1.155a.484.484,0,0,0,.517.416.531.531,0,0,0,.41-.168l.141.161a.672.672,0,0,1-.557.235.712.712,0,0,1-.766-.732.71.71,0,1,1,1.417.013S304.689,221.805,304.689,221.825Zm-1.155-.181h.9a.457.457,0,0,0-.913,0Z" transform="translate(-296.309 -220.576)"/>
        </g>
        <rect id="Rectangle_157" data-name="Rectangle 157" width="93.726" height="7.702" rx="2.77" transform="translate(7.266 31.596)" fill="#fff"/>
        <g id="Group_8" data-name="Group 8" transform="translate(8.179 28.09)" opacity="0.5">
          <path id="Path_169" data-name="Path 169" d="M129.191,220.588h-.672v-.228h1.551v.228H129.4v1.645h-.269Z" transform="translate(-128.52 -220.192)"/>
          <path id="Path_170" data-name="Path 170" d="M131.14,220.291a.175.175,0,1,1,.175.168.168.168,0,0,1-.175-.168Zm.047.443h.255v1.417h-.255Z" transform="translate(-129.38 -220.11)"/>
          <path id="Path_171" data-name="Path 171" d="M133.021,222.189a.5.5,0,0,1-.316.1.41.41,0,0,1-.45-.45v-.779H132v-.215h.242v-.316h.262v.316h.4v.208h-.4v.772c0,.154.074.235.222.235a.3.3,0,0,0,.2-.067Z" transform="translate(-129.663 -220.248)"/>
          <path id="Path_172" data-name="Path 172" d="M134.631,222.189a.49.49,0,0,1-.309.1.41.41,0,0,1-.45-.45v-.779h-.242v-.215h.248v-.316h.255v.316h.416v.208h-.41v.772a.208.208,0,0,0,.222.235.3.3,0,0,0,.2-.067Z" transform="translate(-130.198 -220.248)"/>
          <path id="Path_173" data-name="Path 173" d="M135.59,220.19h.275V222.2h-.255Z" transform="translate(-130.842 -220.136)"/>
          <path id="Path_174" data-name="Path 174" d="M137.919,221.825h-1.155a.484.484,0,0,0,.517.416.544.544,0,0,0,.41-.168l.141.161a.672.672,0,0,1-.564.235.712.712,0,0,1-.759-.732.71.71,0,1,1,1.417.013S137.919,221.805,137.919,221.825Zm-1.155-.181h.913a.457.457,0,0,0-.913,0Z" transform="translate(-131.144 -220.408)"/>
        </g>
        <rect id="Rectangle_158" data-name="Rectangle 158" width="93.726" height="7.702" rx="2.77" transform="translate(7.266 45.443)" fill="#fff"/>
        <g id="Group_9" data-name="Group 9" transform="translate(8.327 41.944)" opacity="0.5">
          <path id="Path_175" data-name="Path 175" d="M128.74,241.9a.947.947,0,0,1,.994-.96.934.934,0,0,1,.719.3l-.175.168a.672.672,0,0,0-.531-.222.725.725,0,1,0,.531,1.216l.175.168a.933.933,0,0,1-.719.3.947.947,0,0,1-.994-.96Z" transform="translate(-128.74 -240.805)"/>
          <path id="Path_176" data-name="Path 176" d="M132.852,242.207v.86H132.6v-.188a.524.524,0,0,1-.463.2c-.322,0-.531-.168-.531-.416s.148-.416.571-.416h.41V242.2c0-.222-.128-.349-.383-.349a.725.725,0,0,0-.45.154l-.107-.195a.981.981,0,0,1,.591-.181C132.631,241.63,132.852,241.818,132.852,242.207Zm-.262.423v-.195h-.4c-.255,0-.329.1-.329.222s.121.228.316.228A.4.4,0,0,0,132.59,242.63Z" transform="translate(-129.683 -241.032)"/>
          <path id="Path_177" data-name="Path 177" d="M134.871,242.852a.484.484,0,0,1-.309.094.4.4,0,0,1-.45-.443v-.759h-.242v-.215h.242v-.309h.255v.309h.41v.215h-.41v.772a.208.208,0,0,0,.222.235.343.343,0,0,0,.2-.067Z" transform="translate(-130.425 -240.898)"/>
          <path id="Path_178" data-name="Path 178" d="M136.959,242.442H135.8a.483.483,0,0,0,.517.416.517.517,0,0,0,.41-.175l.141.168a.772.772,0,0,1-1.343-.5.693.693,0,1,1,1.383.007S136.959,242.415,136.959,242.442Zm-1.155-.188h.913a.443.443,0,0,0-.457-.4A.437.437,0,0,0,135.8,242.254Z" transform="translate(-130.969 -241.032)"/>
          <path id="Path_179" data-name="Path 179" d="M139.519,241.643v1.229a.672.672,0,0,1-.739.732,1.041,1.041,0,0,1-.672-.215l.121-.195a.859.859,0,0,0,.551.181c.336,0,.483-.154.483-.477v-.114a.625.625,0,0,1-.51.222.688.688,0,0,1,0-1.377.672.672,0,0,1,.524.235v-.222Zm-.255.672a.49.49,0,1,0-.49.49A.49.49,0,0,0,139.264,242.315Z" transform="translate(-131.803 -241.032)"/>
          <path id="Path_180" data-name="Path 180" d="M140.77,242.342a.739.739,0,1,1,.739.725.705.705,0,0,1-.739-.725Zm1.215,0a.463.463,0,0,0-.477-.5.47.47,0,0,0-.484.5.477.477,0,0,0,.484.5.47.47,0,0,0,.477-.5Z" transform="translate(-132.691 -241.019)"/>
          <path id="Path_181" data-name="Path 181" d="M144.266,241.628v.248h-.06a.423.423,0,0,0-.45.477v.712H143.5v-1.424h.248v.235A.537.537,0,0,1,144.266,241.628Z" transform="translate(-133.588 -241.03)"/>
          <path id="Path_182" data-name="Path 182" d="M145,240.915a.175.175,0,0,1,.175-.175.168.168,0,0,1,.175.168.161.161,0,0,1-.175.168.168.168,0,0,1-.175-.161Zm.047.436h.262v1.424h-.262Z" transform="translate(-134.081 -240.74)"/>
          <path id="Path_183" data-name="Path 183" d="M147.446,242.442h-1.155a.477.477,0,0,0,.51.416.53.53,0,0,0,.416-.175l.141.168a.725.725,0,0,1-.564.228.712.712,0,0,1-.766-.725.7.7,0,1,1,1.39.007Zm-1.155-.188h.913a.443.443,0,0,0-.457-.4.437.437,0,0,0-.457.4Z" transform="translate(-134.418 -241.031)"/>
          <path id="Path_184" data-name="Path 184" d="M148.41,242.919l.107-.208a.906.906,0,0,0,.5.148c.242,0,.342-.074.342-.195,0-.316-.9-.04-.9-.6,0-.255.228-.43.591-.43a1.014,1.014,0,0,1,.517.128l-.107.208a.719.719,0,0,0-.41-.114c-.228,0-.336.081-.336.195,0,.336.9.06.9.618,0,.255-.235.416-.618.416A1.021,1.021,0,0,1,148.41,242.919Z" transform="translate(-135.201 -241.032)"/>
        </g>
        <rect id="Rectangle_159" data-name="Rectangle 159" width="132.003" height="18.447" rx="2.77" transform="translate(7.266 60.707)" fill="#fff"/>
        <g id="Group_10" data-name="Group 10" transform="translate(8.502 57.201)" opacity="0.5">
          <path id="Path_185" data-name="Path 185" d="M129,263.71h.792a.94.94,0,0,1,0,1.88H129Zm.772,1.645a.705.705,0,0,0,0-1.41h-.5v1.41Z" transform="translate(-129 -263.542)"/>
          <path id="Path_186" data-name="Path 186" d="M133.429,265.182h-1.148a.477.477,0,0,0,.51.416.53.53,0,0,0,.41-.175l.148.168a.739.739,0,0,1-.564.228.712.712,0,0,1-.766-.725.7.7,0,1,1,1.39.007.356.356,0,0,1,.02.081Zm-1.148-.188h.907a.436.436,0,0,0-.45-.41A.443.443,0,0,0,132.281,264.994Z" transform="translate(-129.991 -263.758)"/>
          <path id="Path_187" data-name="Path 187" d="M135.367,265.572a.5.5,0,0,1-.316.1.4.4,0,0,1-.45-.443v-.786h-.242v-.208h.242v-.316h.255v.316h.41v.208h-.41v.772a.215.215,0,0,0,.228.242.342.342,0,0,0,.2-.067Z" transform="translate(-130.761 -263.611)"/>
          <path id="Path_188" data-name="Path 188" d="M137.4,264.947v.86h-.242v-.188a.538.538,0,0,1-.47.2c-.322,0-.524-.168-.524-.416s.148-.416.571-.416h.41v-.054c0-.215-.128-.343-.383-.343a.712.712,0,0,0-.45.154l-.107-.195a.92.92,0,0,1,.584-.181C137.174,264.37,137.4,264.558,137.4,264.947Zm-.255.423v-.2h-.416c-.255,0-.322.1-.322.222s.114.235.309.235a.43.43,0,0,0,.43-.255Z" transform="translate(-131.352 -263.759)"/>
          <path id="Path_189" data-name="Path 189" d="M138.65,263.641a.175.175,0,1,1,.168.168A.168.168,0,0,1,138.65,263.641Zm.04.443h.262v1.424h-.262Z" transform="translate(-132.17 -263.46)"/>
          <path id="Path_190" data-name="Path 190" d="M139.83,263.54h.255v2.015h-.255Z" transform="translate(-132.557 -263.486)"/>
          <path id="Path_191" data-name="Path 191" d="M140.68,265.652l.107-.2a.886.886,0,0,0,.5.148c.242,0,.336-.074.336-.195,0-.316-.893-.04-.893-.611,0-.255.228-.423.591-.423a1.034,1.034,0,0,1,.517.128l-.107.2a.786.786,0,0,0-.416-.107c-.222,0-.336.081-.336.195,0,.336.907.06.907.611,0,.262-.235.423-.618.423A1.007,1.007,0,0,1,140.68,265.652Z" transform="translate(-132.836 -263.759)"/>
        </g>
        <rect id="Rectangle_160" data-name="Rectangle 160" width="147.878" height="5.983" transform="translate(0 6.171)" opacity="0.2"/>
        <rect id="Rectangle_161" data-name="Rectangle 161" width="23.081" height="6.91" rx="2.45" transform="translate(116.471 85.177)" fill="#d63333"/>
        <path id="Path_192" data-name="Path 192" d="M299.21,310.652l.148-.316a1.478,1.478,0,0,0,.933.329c.49,0,.672-.188.672-.436,0-.672-1.712-.255-1.712-1.3,0-.437.342-.806,1.081-.806a1.727,1.727,0,0,1,.907.248l-.134.322a1.471,1.471,0,0,0-.772-.228c-.477,0-.672.2-.672.45,0,.672,1.712.255,1.712,1.289,0,.43-.349.806-1.095.806A1.692,1.692,0,0,1,299.21,310.652Z" transform="translate(-176.407 -220.928)" fill="#fff"/>
        <path id="Path_193" data-name="Path 193" d="M304.913,310.285h-1.5l-.309.705h-.416l1.276-2.82h.4l1.283,2.82h-.423Zm-.141-.322-.611-1.383-.6,1.383Z" transform="translate(-177.55 -220.944)" fill="#fff"/>
        <path id="Path_194" data-name="Path 194" d="M309.734,308.17l-1.236,2.82h-.4l-1.236-2.82h.43l1.021,2.317,1.021-2.317Z" transform="translate(-178.919 -220.944)" fill="#fff"/>
        <path id="Path_195" data-name="Path 195" d="M313.735,310.641v.349H311.72v-2.82h2.015v.349h-1.592v.88h1.417v.342h-1.417v.913Z" transform="translate(-180.516 -220.944)" fill="#fff"/>
        <rect id="Rectangle_162" data-name="Rectangle 162" width="29.796" height="6.91" rx="2.45" transform="translate(83.962 85.177)" opacity="0.4"/>
        <path id="Path_196" data-name="Path 196" d="M249.77,308.167h1.189a1.417,1.417,0,1,1,0,2.82H249.77Zm1.162,2.471a1.061,1.061,0,0,0,0-2.122h-.759v2.122Z" transform="translate(-160.167 -220.941)" fill="#fff"/>
        <path id="Path_197" data-name="Path 197" d="M254.72,308.17h.4v2.82h-.4Z" transform="translate(-161.793 -220.944)" fill="#fff"/>
        <path id="Path_198" data-name="Path 198" d="M256.2,310.652l.148-.316a1.464,1.464,0,0,0,.933.329c.483,0,.672-.188.672-.437,0-.672-1.706-.255-1.706-1.3,0-.437.342-.806,1.081-.806a1.727,1.727,0,0,1,.907.248l-.134.322a1.485,1.485,0,0,0-.772-.228c-.477,0-.672.2-.672.45,0,.672,1.706.255,1.706,1.289,0,.43-.342.806-1.088.806a1.692,1.692,0,0,1-1.074-.356Z" transform="translate(-162.279 -220.928)" fill="#fff"/>
        <path id="Path_199" data-name="Path 199" d="M260,309.563a1.43,1.43,0,0,1,1.491-1.444,1.41,1.41,0,0,1,1.074.443l-.262.248a1.048,1.048,0,0,0-.792-.329,1.081,1.081,0,1,0,.792,1.827l.262.255a1.41,1.41,0,0,1-1.074.443A1.43,1.43,0,0,1,260,309.563Z" transform="translate(-163.527 -220.927)" fill="#fff"/>
        <path id="Path_200" data-name="Path 200" d="M266.136,310.285h-1.491l-.309.705h-.416l1.276-2.82h.4l1.283,2.82h-.423Zm-.141-.322-.6-1.383-.611,1.383Z" transform="translate(-164.815 -220.944)" fill="#fff"/>
        <path id="Path_201" data-name="Path 201" d="M270.82,310.987l-.6-.866h-.873v.86h-.4v-2.82h1.095c.739,0,1.182.369,1.182.98a.893.893,0,0,1-.625.893l.672.947Zm0-1.84c0-.4-.275-.631-.786-.631h-.671v1.269h.671c.5,0,.779-.235.779-.638Z" transform="translate(-166.464 -220.941)" fill="#fff"/>
        <path id="Path_202" data-name="Path 202" d="M273.3,308.167h1.189a1.417,1.417,0,1,1,0,2.82H273.3Zm1.162,2.471a1.061,1.061,0,0,0,0-2.122H273.7v2.122Z" transform="translate(-167.896 -220.941)" fill="#fff"/>
        <path id="Path_203" data-name="Path 203" d="M122.822,192h-2.686a.336.336,0,1,1,0-.672h2.686a.336.336,0,0,1,0,.672Z" transform="translate(-117.476 -182.566)" fill="#fff"/>
        <path id="Path_204" data-name="Path 204" d="M120.783,192.606a.342.342,0,0,1-.242-.1l-1.088-1.088a.336.336,0,0,1,0-.47l1.088-1.095a.342.342,0,0,1,.477,0,.336.336,0,0,1,0,.477l-.853.853.853.853a.322.322,0,0,1,0,.47A.336.336,0,0,1,120.783,192.606Z" transform="translate(-117.331 -182.049)" fill="#fff"/>
        <path id="Path_205" data-name="Path 205" d="M330.92,190h-2.854a.336.336,0,1,1,0-.672h2.854a.336.336,0,1,1,0,.672Z" transform="translate(-185.774 -181.91)" fill="#fff"/>
        <path id="Path_206" data-name="Path 206" d="M330.92,192h-2.854a.336.336,0,0,1,0-.672h2.854a.336.336,0,0,1,0,.672Z" transform="translate(-185.774 -182.566)" fill="#fff"/>
        <path id="Path_207" data-name="Path 207" d="M330.92,194h-2.854a.336.336,0,0,1,0-.672h2.854a.336.336,0,0,1,0,.672Z" transform="translate(-185.774 -183.223)" fill="#fff"/>
      </g>
      <g id="freepik--speech-bubble--inject-2" transform="translate(253.042 180.551)">
        <circle id="Ellipse_7" data-name="Ellipse 7" cx="9.536" cy="9.536" r="9.536" transform="translate(0 18.562) rotate(-76.72)" fill="#d63333"/>
        <path id="Path_208" data-name="Path 208" d="M384.447,266.22l-2.827,7.434,6.286-5Z" transform="translate(-378.391 -250.034)" fill="#d63333"/>
        <path id="Path_209" data-name="Path 209" d="M395.574,259.391H388.4a.342.342,0,0,1-.336-.336.336.336,0,0,1,.336-.336h7.179a.336.336,0,0,1,.336.336A.342.342,0,0,1,395.574,259.391Z" transform="translate(-380.506 -247.57)" fill="#fff"/>
        <path id="Path_210" data-name="Path 210" d="M393.746,261.223a.336.336,0,0,1-.336-.336v-7.172a.336.336,0,0,1,.672,0v7.172A.342.342,0,0,1,393.746,261.223Z" transform="translate(-382.263 -245.816)" fill="#fff"/>
      </g>
      <g id="freepik--Character--inject-2" transform="translate(197.861 205.323)">
        <path id="Path_211" data-name="Path 211" d="M366.565,281.473s-9.334-7.481-14.774,4.284c-3.076,6.642-.611,20.656,5.453,25.4s18.675-5.93,18.675-5.93,2.787-13.538-1.471-19.233C369,278.72,366.565,281.473,366.565,281.473Z" transform="translate(-312.977 -279.129)" fill="#263238"/>
        <path id="Path_212" data-name="Path 212" d="M352.94,311.179a.161.161,0,0,1-.148-.094c-.067-.128-6.286-13.088-3.21-22.832a8.966,8.966,0,0,1,4.647-5.8c3.955-1.84,8.643.06,8.69.081a.161.161,0,0,1,.087.222.168.168,0,0,1-.215.087c-.047,0-4.607-1.867-8.428-.087a8.662,8.662,0,0,0-4.459,5.594c-3.035,9.59,3.123,22.429,3.183,22.557a.168.168,0,0,1-.074.228A.148.148,0,0,1,352.94,311.179Z" transform="translate(-312.407 -279.959)" fill="#263238"/>
        <path id="Path_213" data-name="Path 213" d="M350.351,333.11s-1.652,14.874-2.189,16.647S340.05,361,340.05,361l2.149,1.115s8.058-8.28,9.341-10.745,3.2-15.284,3.2-15.284Z" transform="translate(-309.556 -296.86)" fill="#ebb376"/>
        <path id="Path_214" data-name="Path 214" d="M361.785,336.422l-.416-.067-5.91-.967-3.149-.51s.275-9.032,3.586-11.618l3.183,2.948Z" transform="translate(-313.583 -293.624)" fill="#d63333"/>
        <path id="Path_215" data-name="Path 215" d="M362.876,338.125l-5.91-.967a18.472,18.472,0,0,1,1.585-8.508C361.191,330.43,362.661,334.721,362.876,338.125Z" transform="translate(-315.09 -295.395)" opacity="0.2"/>
        <path id="Path_216" data-name="Path 216" d="M348.924,361.9l-5.016,7.944c-9.959-2.317-41.877-7.185-45.792,3.761-4.875,13.612,30.333,24.457,49.814,25.122s35.115-10.422,22.8-38.828Z" transform="translate(-295.632 -305.66)" fill="#263238"/>
        <path id="Path_217" data-name="Path 217" d="M348.924,361.9l-5.016,7.944c-9.959-2.317-41.877-7.185-45.792,3.761-4.875,13.612,30.333,24.457,49.814,25.122s35.115-10.422,22.8-38.828Z" transform="translate(-295.632 -305.66)" opacity="0.2"/>
        <path id="Path_218" data-name="Path 218" d="M304.7,406.982a1.767,1.767,0,0,1-.611-.88.672.672,0,0,1,.235-.625.4.4,0,0,1,.389-.114c.672.195,1.3,2.068,1.343,2.283a.094.094,0,0,1-.033.121.121.121,0,0,1-.141,0A7.107,7.107,0,0,1,304.7,406.982Zm.108-1.289a.477.477,0,0,0-.148-.087.134.134,0,0,0-.154.047.416.416,0,0,0-.168.423,2.814,2.814,0,0,0,1.39,1.343,5.485,5.485,0,0,0-.954-1.726Z" transform="translate(-297.74 -320.589)" fill="#263238"/>
        <path id="Path_219" data-name="Path 219" d="M306.605,407.751V407.7c-.228-.578-.289-2.1.181-2.431a.416.416,0,0,1,.524.054.712.712,0,0,1,.309.47c.148.766-.752,1.9-.813,1.954a.114.114,0,0,1-.121.034A.12.12,0,0,1,306.605,407.751Zm.571-2.2-.047-.034c-.134-.094-.195-.054-.222-.034-.275.188-.322,1.256-.175,1.9a2.632,2.632,0,0,0,.6-1.558A.49.49,0,0,0,307.176,405.548Z" transform="translate(-298.514 -320.538)" fill="#263238"/>
        <path id="Path_220" data-name="Path 220" d="M358.209,414.943a1.766,1.766,0,0,1,.107,1.068.671.671,0,0,1-.51.436.423.423,0,0,1-.4-.087c-.47-.49-.128-2.444-.081-2.686a.108.108,0,0,1,.087-.094.127.127,0,0,1,.128.067,7.39,7.39,0,0,1,.665,1.3Zm-.719,1.081a.475.475,0,0,0,.087.148.148.148,0,0,0,.154.034.43.43,0,0,0,.356-.3,2.781,2.781,0,0,0-.571-1.84A5.459,5.459,0,0,0,357.491,416.024Z" transform="translate(-315.178 -323.291)" fill="#263238"/>
        <path id="Path_221" data-name="Path 221" d="M337.784,399.04l8.018,2.854,3.848,1.37-.987,4.21-3.727-.792-9.106-1.941Z" transform="translate(-308.17 -318.516)" fill="#ebb376"/>
        <path id="Path_222" data-name="Path 222" d="M353.377,409.259l.672-4.969a.5.5,0,0,1,.578-.423l2.451.41s3.358.309,4,1.169c1.941,2.5.732,13.531-.564,13.921-.47.141-.974-.51-1.175-.954-.672-1.424-1.807-5.144-2.364-6.319a5.394,5.394,0,0,0-3.25-2.3A.483.483,0,0,1,353.377,409.259Z" transform="translate(-313.932 -320.099)" fill="#d63333"/>
        <path id="Path_223" data-name="Path 223" d="M356.863,413.668v.054c-.081.618-.766,1.974-1.343,2.015a.416.416,0,0,1-.43-.289.745.745,0,0,1-.047-.564c.242-.745,1.578-1.3,1.659-1.343a.1.1,0,0,1,.121,0A.121.121,0,0,1,356.863,413.668Zm-1.571,1.645v.054c.074.154.141.141.175.141.336-.034.893-.94,1.081-1.578-.383.181-1.135.6-1.283,1.068a.5.5,0,0,0,0,.316Z" transform="translate(-314.469 -323.272)" fill="#263238"/>
        <path id="Path_224" data-name="Path 224" d="M337.784,399.04l8.018,2.854-.866,4.788-9.106-1.941Z" transform="translate(-308.17 -318.516)" opacity="0.2"/>
        <path id="Path_225" data-name="Path 225" d="M346.143,407.693l-2.3.168,1.545-7.931L348,401.374Z" transform="translate(-310.801 -318.808)" fill="#d63333"/>
        <path id="Path_226" data-name="Path 226" d="M346.143,407.693l-2.3.168,1.545-7.931L348,401.374Z" transform="translate(-310.801 -318.808)" fill="#fff" opacity="0.6"/>
        <path id="Path_227" data-name="Path 227" d="M367.547,365.6,355.54,378.91s-13.276-.3-29.393,7.582c0,0-17.292-7.138-18.884-13.075-2.082-7.776,39.768-1.7,39.768-1.7Z" transform="translate(-298.762 -307.532)" opacity="0.2"/>
        <path id="Path_228" data-name="Path 228" d="M313.21,379.6v1.974c0,.5.6.712,1.095.712H353.73c.5,0,1.115-.208,1.115-.712V379.6Z" transform="translate(-300.74 -312.13)" fill="#263238"/>
        <path id="Path_229" data-name="Path 229" d="M313.21,379.6v1.974c0,.5.6.712,1.095.712H353.73c.5,0,1.115-.208,1.115-.712V379.6Z" transform="translate(-300.74 -312.13)" fill="#fff" opacity="0.4"/>
        <path id="Path_230" data-name="Path 230" d="M313.21,379.6v1.974c0,.5.6.712,1.095.712h26c.5,0,1.108-.208,1.108-.712V379.6Z" transform="translate(-300.74 -312.13)" opacity="0.2"/>
        <path id="Path_231" data-name="Path 231" d="M303.375,348.6l4.7,21.288A1.6,1.6,0,0,0,309.6,371.1h25.639a1.027,1.027,0,0,0,.96-1.343l-4.7-21.126a1.451,1.451,0,0,0-1.524-1.034H304.342C303.65,347.6,303.22,347.906,303.375,348.6Z" transform="translate(-297.499 -301.616)" fill="#263238"/>
        <path id="Path_232" data-name="Path 232" d="M303.375,348.6l4.7,21.288A1.6,1.6,0,0,0,309.6,371.1h24.766a1.041,1.041,0,0,0,.974-1.343l-4.7-21.126a1.457,1.457,0,0,0-1.524-1.041H304.342C303.65,347.594,303.22,347.9,303.375,348.6Z" transform="translate(-297.499 -301.613)" fill="#fff" opacity="0.4"/>
        <path id="Path_233" data-name="Path 233" d="M322.21,363.6h0a3.665,3.665,0,0,0,3.358,3.3c1.4,0,2.283-1.484,1.874-3.3s-1.833-3.243-3.237-3.3c.41,1.82-.463,3.3-1.894,3.3A.661.661,0,0,1,322.21,363.6Z" transform="translate(-303.696 -305.791)" opacity="0.2"/>
        <path id="Path_234" data-name="Path 234" d="M323.8,409.713,315.4,411.09l-4.029.665-1.182-4.164,3.653-1.108,8.9-2.713Z" transform="translate(-299.748 -320.069)" fill="#ebb376"/>
        <path id="Path_235" data-name="Path 235" d="M305.908,405.767l1.813,4.7a.5.5,0,0,1-.3.672l-2.344.833s-3.069,1.343-4.063.913c-2.908-1.249-7.192-11.49-6.245-12.457.342-.349,1.095,0,1.491.269,1.256.927,4.063,3.62,5.124,4.378,1.242.893,3.136.618,3.955.436a.49.49,0,0,1,.564.255Z" transform="translate(-294.641 -318.923)" fill="#d63333"/>
        <path id="Path_236" data-name="Path 236" d="M325.582,409.713l-8.394,1.377-1.558-4.607,8.9-2.713Z" transform="translate(-301.535 -320.069)" opacity="0.2"/>
        <path id="Path_237" data-name="Path 237" d="M317.78,397.36s34.248-19.239,46.04-18.7,13.518,10.966,8.643,17.46-13.874,8.105-13.874,8.105,6.131-8.656,5.245-11.094-4.352.96-4.352.96-21.536,6.95-40.373,8.576Z" transform="translate(-302.241 -311.819)" fill="#263238"/>
        <path id="Path_238" data-name="Path 238" d="M316.96,405.093l1.934-1.3,2.491,7.642H318.4Z" transform="translate(-301.972 -320.076)" fill="#d63333"/>
        <path id="Path_239" data-name="Path 239" d="M316.96,405.093l1.934-1.3,2.491,7.642H318.4Z" transform="translate(-301.972 -320.076)" fill="#fff" opacity="0.6"/>
        <path id="Path_240" data-name="Path 240" d="M390.421,345.4l-21.8,2.015s-3.418-7.078-6.044-9.838-4.943-16.788-4.943-16.788a46.556,46.556,0,0,1,5.466-2.23,54.178,54.178,0,0,1,16.681-2.807h.121c1.625,0,2.565.081,2.565.081a4.634,4.634,0,0,1,1.551,1.766c2.337,4.029,4.2,13.431,5.3,20.18C390.031,342.141,390.421,345.4,390.421,345.4Z" transform="translate(-315.33 -291.158)" fill="#d63333"/>
        <path id="Path_241" data-name="Path 241" d="M399.42,338.69c-4.808-2.2-11.369-5.93-11.027-9.71.369-4.15,3.734-8.327,5.728-10.469C396.459,322.539,398.319,331.941,399.42,338.69Z" transform="translate(-325.431 -292.064)" opacity="0.2"/>
        <path id="Path_242" data-name="Path 242" d="M380.722,342.111c1.1,3.163-.369,6.2-3.277,6.769s-6.158-1.524-7.253-4.7.363-6.2,3.277-6.776S379.627,338.948,380.722,342.111Z" transform="translate(-319.337 -298.239)" fill="#fff" opacity="0.4"/>
        <path id="Path_243" data-name="Path 243" d="M372.1,347.669l1.37-11.329,9.032,9.784Z" transform="translate(-320.083 -297.921)" fill="#d63333"/>
        <path id="Path_244" data-name="Path 244" d="M382.6,315.757a16.459,16.459,0,0,1-3.754,7.34,9.359,9.359,0,0,1-1.343,1.189,8.629,8.629,0,0,1-4.627,1.625,5.438,5.438,0,0,1-5.547-2.767,11.736,11.736,0,0,1-1.095-2.941c-.154-.611-.275-1.182-.4-1.639l1.054-.342c.531-.168,1.048-.322,1.565-.47a55.47,55.47,0,0,1,10.207-1.833l1.41-.094c.913-.047,1.719-.067,2.411-.074Z" transform="translate(-318.024 -291.158)" fill="#ebb376"/>
        <path id="Path_245" data-name="Path 245" d="M370.384,313.456c-.04,1.343-.813,1.686-.813,1.686a2.76,2.76,0,0,0,2.988,3.176c4.278-.436,5.627-5.587,5.627-5.587-3.109-1.236-3.814-4.7-3.942-6.715a11.441,11.441,0,0,1,0-1.6l-5.815,3.667a20.349,20.349,0,0,1,1.3,2.545A7.253,7.253,0,0,1,370.384,313.456Z" transform="translate(-318.878 -287.433)" fill="#ebb376"/>
        <path id="Path_246" data-name="Path 246" d="M369,307.719a21.063,21.063,0,0,1,1.034,2.686,7.252,7.252,0,0,1,.363,2.888c3.27.255,4.566-6.971,4.566-6.971l.034-.04a10.915,10.915,0,0,1,.161-1.592Z" transform="translate(-319.065 -287.525)" opacity="0.2"/>
        <path id="Path_247" data-name="Path 247" d="M359.1,287.407c-5.627,1.712-6.521,5.278-5.164,11.2,1.692,7.387,4.869,12.088,11.416,8.367C374.278,301.959,368.442,284.56,359.1,287.407Z" transform="translate(-313.934 -281.745)" fill="#ebb376"/>
        <path id="Path_248" data-name="Path 248" d="M359.03,302.12a12.508,12.508,0,0,1-.92,2.834,1.605,1.605,0,0,0,1.672.181Z" transform="translate(-315.488 -286.681)" fill="#d58745"/>
        <path id="Path_249" data-name="Path 249" d="M364.377,299.371c.134.463.49.772.8.671s.457-.53.322-1-.483-.772-.792-.672S364.25,298.908,364.377,299.371Z" transform="translate(-317.532 -285.443)" fill="#263238"/>
        <path id="Path_250" data-name="Path 250" d="M364.541,298.3l-1.121-.114S364.159,298.9,364.541,298.3Z" transform="translate(-317.232 -285.39)" fill="#263238"/>
        <path id="Path_251" data-name="Path 251" d="M355.726,301.641c.128.463.484.772.792.672s.457-.537.329-1-.49-.772-.8-.672S355.591,301.171,355.726,301.641Z" transform="translate(-314.689 -286.189)" fill="#263238"/>
        <path id="Path_252" data-name="Path 252" d="M355.881,300.574l-1.121-.114S355.505,301.165,355.881,300.574Z" transform="translate(-314.388 -286.135)" fill="#263238"/>
        <path id="Path_253" data-name="Path 253" d="M365.3,294.161a.241.241,0,0,1-.134-.04,2.848,2.848,0,0,0-2.465-.087.243.243,0,1,1-.2-.443,3.29,3.29,0,0,1,2.935.128.242.242,0,0,1,.067.336A.228.228,0,0,1,365.3,294.161Z" transform="translate(-316.883 -283.785)" fill="#263238"/>
        <path id="Path_254" data-name="Path 254" d="M353.279,296.832a.215.215,0,0,1-.154-.054.235.235,0,0,1-.034-.343,2.975,2.975,0,0,1,2.3-1.236.242.242,0,0,1,.228.255.255.255,0,0,1-.255.235h0a2.451,2.451,0,0,0-1.9,1.054A.248.248,0,0,1,353.279,296.832Z" transform="translate(-313.82 -284.408)" fill="#263238"/>
        <path id="Path_255" data-name="Path 255" d="M367.909,293.732s-4.029-3.814-4.7-7.508c0,0-12.538-1.155-9.636,10.328,0,0-4.157-9.71,5.446-12.887s13.874,10.986,10.167,16.728C369.158,300.394,370.414,296.129,367.909,293.732Z" transform="translate(-313.704 -280.469)" fill="#263238"/>
        <path id="Path_256" data-name="Path 256" d="M374.5,299.56a2.572,2.572,0,0,1,1.968-3.062c1.8-.342,3.727,2.982-.349,5.164C375.535,301.978,375,301.474,374.5,299.56Z" transform="translate(-320.853 -284.826)" fill="#ebb376"/>
        <path id="Path_257" data-name="Path 257" d="M362.428,308.964a.248.248,0,0,1,0-.49,2.586,2.586,0,0,0,2.639-2.216.242.242,0,0,1,.269-.208.248.248,0,0,1,.215.269,3.123,3.123,0,0,1-3.109,2.646Z" transform="translate(-316.838 -287.971)" fill="#263238"/>
        <path id="Path_258" data-name="Path 258" d="M381.05,300.778a.161.161,0,0,1-.161-.134c0-.034-.625-3.109-6.547-4.835-6.158-1.793-6.581-9.18-6.581-9.254a.168.168,0,1,1,.336-.013c0,.074.416,7.226,6.339,8.945,6.145,1.793,6.762,4.963,6.783,5.1a.175.175,0,0,1-.134.195Z" transform="translate(-318.658 -281.511)" fill="#263238"/>
        <path id="Path_259" data-name="Path 259" d="M379.11,326.82s-.712,14.351-1.921,17.567-13.894,15.1-13.894,15.1-3.539-.792-4.123-.557a45.014,45.014,0,0,0-3.962,3.358h9.757l.853-1.511s13.122-9.717,14.566-12.041c1.068-1.712,4.5-19.145,4.5-19.145Z" transform="translate(-314.536 -294.794)" fill="#ebb376"/>
        <path id="Path_260" data-name="Path 260" d="M392.426,315.85c8.831,2.169,4.7,15.445,4.7,15.445l-9.187-2.25S387.94,314.749,392.426,315.85Z" transform="translate(-325.286 -291.171)" fill="#d63333"/>
        <path id="Path_261" data-name="Path 261" d="M384.466,323.133a9.363,9.363,0,0,1-1.343,1.189,14.626,14.626,0,0,1,1.155-8.367l1.41-.094A16.944,16.944,0,0,0,384.466,323.133Z" transform="translate(-323.646 -291.194)" fill="#263238"/>
        <path id="Path_262" data-name="Path 262" d="M368.6,318.73a15.977,15.977,0,0,0-1.121,5.372,11.731,11.731,0,0,1-1.095-2.941,14.576,14.576,0,0,1,.672-1.981C367.562,319.032,368.079,318.911,368.6,318.73Z" transform="translate(-318.205 -292.137)" fill="#263238"/>
        <path id="Path_263" data-name="Path 263" d="M384.466,323.133a9.363,9.363,0,0,1-1.343,1.189,14.626,14.626,0,0,1,1.155-8.367l1.41-.094A16.944,16.944,0,0,0,384.466,323.133Z" transform="translate(-323.646 -291.194)" fill="#fff" opacity="0.4"/>
        <path id="Path_264" data-name="Path 264" d="M368.6,318.73a15.977,15.977,0,0,0-1.121,5.372,11.731,11.731,0,0,1-1.095-2.941,14.576,14.576,0,0,1,.672-1.981C367.562,319.032,368.079,318.911,368.6,318.73Z" transform="translate(-318.205 -292.137)" fill="#fff" opacity="0.4"/>
      </g>
    </g>
  </g>
</svg>
